<?xml version="1.0" encoding="UTF-8"?>
<svg version="1.1" xmlns="http://www.w3.org/2000/svg" width="237" height="205">
<path d="M0 0 C1.5159375 0.3403125 1.5159375 0.3403125 3.0625 0.6875 C4.3683334 4.60878522 3.44280356 6.66581091 1.66210938 10.37109375 C1.31986328 11.05300781 0.97761719 11.73492187 0.625 12.4375 C0.28662109 13.13488281 -0.05175781 13.83226562 -0.40039062 14.55078125 C-1.23556458 16.26818121 -2.08515424 17.97855738 -2.9375 19.6875 C-3.5975 19.6875 -4.2575 19.6875 -4.9375 19.6875 C-5.205625 20.55375 -5.47375 21.42 -5.75 22.3125 C-6.90861987 25.60541964 -8.31959839 28.59877875 -9.9375 31.6875 C-10.5975 31.6875 -11.2575 31.6875 -11.9375 31.6875 C-12.185 32.533125 -12.4325 33.37875 -12.6875 34.25 C-14.07668966 38.07027156 -15.8874607 41.18326616 -17.9375 44.6875 C-16.88248291 44.71255615 -15.82746582 44.7376123 -14.74047852 44.76342773 C-10.83979372 44.85734109 -6.93929375 44.95760034 -3.03881836 45.05981445 C-1.34810701 45.10322439 0.34264991 45.14489489 2.03344727 45.18481445 C4.45863606 45.24237094 6.88359415 45.30610649 9.30859375 45.37109375 C10.44922523 45.39616249 10.44922523 45.39616249 11.61289978 45.42173767 C16.94862829 45.57362829 16.94862829 45.57362829 18.0625 46.6875 C18.4375 49.5625 18.4375 49.5625 18.0625 52.6875 C14.49617963 55.44507266 11.89511371 56.04878448 7.44604492 55.9362793 C5.79489937 55.90590828 5.79489937 55.90590828 4.11039734 55.87492371 C2.34452019 55.81888725 2.34452019 55.81888725 0.54296875 55.76171875 C-0.67073898 55.73527786 -1.88444672 55.70883698 -3.13493347 55.68159485 C-7.00712666 55.59390521 -10.87837469 55.48472606 -14.75 55.375 C-17.37691938 55.31173388 -20.00387288 55.24986808 -22.63085938 55.18945312 C-29.06689034 55.03837551 -35.50227771 54.86965644 -41.9375 54.6875 C-41.60049072 55.8926123 -41.26348145 57.09772461 -40.91625977 58.33935547 C-40.46625939 59.95278576 -40.016311 61.56623054 -39.56640625 63.1796875 C-39.23461365 64.36534302 -39.23461365 64.36534302 -38.89611816 65.57495117 C-36.7600674 73.24272493 -34.83012743 80.95656575 -32.9375 88.6875 C-30.71823921 97.74820614 -28.40913153 106.749817 -25.76953125 115.69921875 C-25.03676106 118.33099902 -24.47326759 121.00866207 -23.9375 123.6875 C7.4125 123.6875 38.7625 123.6875 71.0625 123.6875 C73.00125 116.30375 74.94 108.92 76.9375 101.3125 C77.84991455 97.8467749 77.84991455 97.8467749 78.78076172 94.31103516 C79.26813256 92.44960419 79.75528845 90.58811693 80.2421875 88.7265625 C80.49105713 87.78449951 80.73992676 86.84243652 80.99633789 85.87182617 C82.39047245 80.5292589 83.61592451 75.19024198 84.64099121 69.76423645 C85.13208803 67.34464593 85.83376441 65.06543441 86.6875 62.75 C87.66501601 60.08360731 88.0625 58.58625404 88.0625 55.6875 C69.9125 55.3575 51.7625 55.0275 33.0625 54.6875 C33.0625 54.0275 33.0625 53.3675 33.0625 52.6875 C32.4025 52.6875 31.7425 52.6875 31.0625 52.6875 C30.375 50.875 30.375 50.875 30.0625 48.6875 C31.07348633 47.0690918 31.07348633 47.0690918 33.0625 45.6875 C35.65024771 45.42596931 37.99149653 45.33791562 40.57421875 45.39453125 C41.30244339 45.39877609 42.03066803 45.40302094 42.78096008 45.40739441 C45.10435127 45.42417267 47.4268715 45.46182145 49.75 45.5 C51.32615934 45.51504803 52.90233229 45.52873623 54.47851562 45.54101562 C58.34017877 45.57407315 62.20119178 45.62584806 66.0625 45.6875 C65.0725 43.2125 65.0725 43.2125 64.0625 40.6875 C63.4025 40.6875 62.7425 40.6875 62.0625 40.6875 C61.93875 39.883125 61.815 39.07875 61.6875 38.25 C61.378125 36.9815625 61.378125 36.9815625 61.0625 35.6875 C60.4025 35.3575 59.7425 35.0275 59.0625 34.6875 C57.0625 31.6875 57.0625 31.6875 57.0625 28.6875 C56.4025 28.3575 55.7425 28.0275 55.0625 27.6875 C54.39583333 25.6875 53.72916667 23.6875 53.0625 21.6875 C52.4025 21.3575 51.7425 21.0275 51.0625 20.6875 C49.0625 17.6875 49.0625 17.6875 49.0625 14.6875 C48.0725 14.1925 48.0725 14.1925 47.0625 13.6875 C45.921875 11.76171875 45.921875 11.76171875 44.8125 9.375 C44.43609375 8.59511719 44.0596875 7.81523438 43.671875 7.01171875 C43.0625 4.6875 43.0625 4.6875 43.953125 2.39453125 C44.31921875 1.83121094 44.6853125 1.26789062 45.0625 0.6875 C47.84375 0.41796875 47.84375 0.41796875 51.0625 0.6875 C52.96875 2.48828125 52.96875 2.48828125 54.5625 5 C55.44808594 6.38251953 55.44808594 6.38251953 56.3515625 7.79296875 C58.44806477 11.33979108 60.4614373 14.91412362 62.390625 18.5546875 C64.43296385 22.38168693 66.55598296 26.1596539 68.6875 29.9375 C69.05987793 30.5989502 69.43225586 31.26040039 69.81591797 31.94189453 C72.21529054 36.19974066 74.63414523 40.44612017 77.0625 44.6875 C77.68294189 44.66655273 78.30338379 44.64560547 78.94262695 44.62402344 C81.75325318 44.54088594 84.56362096 44.48884939 87.375 44.4375 C88.35146484 44.40398437 89.32792969 44.37046875 90.33398438 44.3359375 C91.74067383 44.31660156 91.74067383 44.31660156 93.17578125 44.296875 C94.03985596 44.27592773 94.90393066 44.25498047 95.79418945 44.23339844 C98.0625 44.6875 98.0625 44.6875 99.88623047 46.52954102 C101.6008333 49.67511479 100.80546306 51.47413718 99.875 54.875 C99.57207031 56.02871094 99.26914063 57.18242188 98.95703125 58.37109375 C98.66183594 59.46550781 98.36664063 60.55992188 98.0625 61.6875 C97.71898249 63.26865505 97.38412539 64.85174697 97.0625 66.4375 C96.44441281 69.24248219 95.67892621 71.91246125 94.7265625 74.62109375 C92.68162311 80.67018847 91.07438697 86.83046202 89.4375 93 C88.96957031 94.74893555 88.96957031 94.74893555 88.4921875 96.53320312 C87.67739966 99.58338951 86.86437876 102.63389486 86.0625 105.6875 C85.87381348 106.3993042 85.68512695 107.1111084 85.49072266 107.84448242 C84.97524363 109.90533913 84.97524363 109.90533913 84.6875 112.9375 C84.10034085 116.46045487 83.20529851 119.33804449 81.8828125 122.625 C81.31710249 124.04735659 80.79327692 125.48684275 80.3046875 126.9375 C79.64370574 128.88565676 78.86082405 130.79148039 78.0625 132.6875 C75.28553782 133.61315406 73.63814718 133.81306312 70.77368164 133.81448364 C69.89882111 133.81730347 69.02396057 133.82012329 68.12258911 133.82302856 C67.16561127 133.82100433 66.20863342 133.8189801 65.22265625 133.81689453 C63.70767044 133.81952301 63.70767044 133.81952301 62.16207886 133.82220459 C58.81636854 133.82661356 55.47071088 133.82368844 52.125 133.8203125 C49.80476878 133.82098581 47.48453762 133.82195607 45.16430664 133.82321167 C40.29865854 133.82468735 35.43302878 133.82253823 30.56738281 133.81787109 C24.32264242 133.81217389 18.077945 133.81545359 11.83320618 133.82144356 C7.04121577 133.82505266 2.24923559 133.82390897 -2.54275513 133.82131577 C-4.84571335 133.82064746 -7.14867249 133.82147155 -9.45162964 133.82379532 C-12.66699697 133.82632752 -15.88229416 133.82247314 -19.09765625 133.81689453 C-20.53312302 133.81993088 -20.53312302 133.81993088 -21.99758911 133.82302856 C-23.30987991 133.81879883 -23.30987991 133.81879883 -24.64868164 133.81448364 C-25.40895157 133.81410662 -26.1692215 133.81372959 -26.95252991 133.81334114 C-28.9375 133.6875 -28.9375 133.6875 -31.9375 132.6875 C-31.9375 131.3675 -31.9375 130.0475 -31.9375 128.6875 C-32.5975 128.3575 -33.2575 128.0275 -33.9375 127.6875 C-34.5 125.6484375 -34.5 125.6484375 -34.9375 123.0625 C-35.89850606 117.77318318 -37.23642871 112.79071386 -38.9375 107.6875 C-38.4425 106.6975 -38.4425 106.6975 -37.9375 105.6875 C-38.5975 105.3575 -39.2575 105.0275 -39.9375 104.6875 C-40.5 102.6484375 -40.5 102.6484375 -40.9375 100.0625 C-41.89850606 94.77318318 -43.23642871 89.79071386 -44.9375 84.6875 C-44.4425 83.6975 -44.4425 83.6975 -43.9375 82.6875 C-44.5975 82.6875 -45.2575 82.6875 -45.9375 82.6875 C-46.06125 81.65625 -46.185 80.625 -46.3125 79.5625 C-46.80960838 75.81676699 -46.80960838 75.81676699 -47.8828125 72.85546875 C-49.30874791 68.57238127 -50.2009823 64.21632351 -51.15625 59.80859375 C-51.85556721 56.71166835 -51.85556721 56.71166835 -53.03125 53.97265625 C-53.9375 51.6875 -53.9375 51.6875 -53.9375 48.6875 C-53.2775 48.6875 -52.6175 48.6875 -51.9375 48.6875 C-51.6075 47.6975 -51.2775 46.7075 -50.9375 45.6875 C-40.5425 45.1925 -40.5425 45.1925 -29.9375 44.6875 C-28.9475 42.7075 -27.9575 40.7275 -26.9375 38.6875 C-26.2775 38.6875 -25.6175 38.6875 -24.9375 38.6875 C-24.2775 36.3775 -23.6175 34.0675 -22.9375 31.6875 C-22.2775 31.6875 -21.6175 31.6875 -20.9375 31.6875 C-20.82535156 31.13578125 -20.71320313 30.5840625 -20.59765625 30.015625 C-19.82389227 27.28684789 -18.66932306 24.95977057 -17.375 22.4375 C-16.91996094 21.54546875 -16.46492188 20.6534375 -15.99609375 19.734375 C-15.47208984 18.72117187 -15.47208984 18.72117187 -14.9375 17.6875 C-14.2775 17.6875 -13.6175 17.6875 -12.9375 17.6875 C-12.67324219 16.81867187 -12.40898438 15.94984375 -12.13671875 15.0546875 C-9.86299345 8.6704816 -7.10397696 1.24037693 0 0 Z " fill="#EFEB46" transform="translate(95.9375,29.3125)"/>
<path d="M0 0 C2.78125 -0.26953125 2.78125 -0.26953125 6 0 C7.90625 1.80078125 7.90625 1.80078125 9.5 4.3125 C10.09039062 5.23417969 10.68078125 6.15585937 11.2890625 7.10546875 C13.38556477 10.65229108 15.3989373 14.22662362 17.328125 17.8671875 C19.37046385 21.69418693 21.49348296 25.4721539 23.625 29.25 C23.99737793 29.9114502 24.36975586 30.57290039 24.75341797 31.25439453 C27.15279054 35.51224066 29.57164523 39.75862017 32 44 C32.62567871 43.98428955 33.25135742 43.9685791 33.89599609 43.95239258 C36.72223931 43.89015325 39.54833861 43.85104538 42.375 43.8125 C43.35984375 43.78736328 44.3446875 43.76222656 45.359375 43.73632812 C46.77089844 43.72182617 46.77089844 43.72182617 48.2109375 43.70703125 C49.08024902 43.6913208 49.94956055 43.67561035 50.84521484 43.65942383 C51.55629395 43.77181396 52.26737305 43.8842041 53 44 C53.66 44.99 54.32 45.98 55 47 C46.75 47 38.5 47 30 47 C29.34 45.35 28.68 43.7 28 42 C26.68 42 25.36 42 24 42 C23.67 41.34 23.34 40.68 23 40 C22.34 40 21.68 40 21 40 C20.67 40.99 20.34 41.98 20 43 C19.67 42.01 19.34 41.02 19 40 C18.34 40 17.68 40 17 40 C16.87625 39.195625 16.7525 38.39125 16.625 37.5625 C16.41875 36.716875 16.2125 35.87125 16 35 C15.34 34.67 14.68 34.34 14 34 C12 31 12 31 12 28 C11.34 27.67 10.68 27.34 10 27 C9 24 9 24 8 21 C7.34 20.67 6.68 20.34 6 20 C4 17 4 17 4 14 C3.34 13.67 2.68 13.34 2 13 C0.859375 11.07421875 0.859375 11.07421875 -0.25 8.6875 C-0.62640625 7.90761719 -1.0028125 7.12773438 -1.390625 6.32421875 C-2 4 -2 4 -1.109375 1.70703125 C-0.74328125 1.14371094 -0.3771875 0.58039062 0 0 Z " fill="#EFEE4C" transform="translate(141,30)"/>
<path d="M0 0 C0.99 0 1.98 0 3 0 C2.50078601 3.19496956 1.67334239 6.1982808 0.625 9.25 C0.39039063 9.93578125 0.15578125 10.6215625 -0.0859375 11.328125 C-1 13 -1 13 -4 14 C-5.42736706 14.09049078 -6.85858593 14.12627438 -8.28881836 14.12698364 C-9.60110916 14.13121338 -9.60110916 14.13121338 -10.93991089 14.13552856 C-11.89688873 14.13350433 -12.85386658 14.1314801 -13.83984375 14.12939453 C-15.35482956 14.13202301 -15.35482956 14.13202301 -16.90042114 14.13470459 C-20.24613146 14.13911356 -23.59178912 14.13618844 -26.9375 14.1328125 C-29.25773122 14.13348581 -31.57796238 14.13445607 -33.89819336 14.13571167 C-38.76384146 14.13718735 -43.62947122 14.13503823 -48.49511719 14.13037109 C-54.73985758 14.12467389 -60.984555 14.12795359 -67.22929382 14.13394356 C-72.02128423 14.13755266 -76.81326441 14.13640897 -81.60525513 14.13381577 C-83.90821335 14.13314746 -86.21117249 14.13397155 -88.51412964 14.13629532 C-91.72949697 14.13882752 -94.94479416 14.13497314 -98.16015625 14.12939453 C-99.59562302 14.13243088 -99.59562302 14.13243088 -101.06008911 14.13552856 C-101.93494965 14.13270874 -102.80981018 14.12988892 -103.71118164 14.12698364 C-104.47145157 14.12660662 -105.2317215 14.12622959 -106.01502991 14.12584114 C-108 14 -108 14 -111 13 C-111 11.68 -111 10.36 -111 9 C-111.66 8.67 -112.32 8.34 -113 8 C-111.35 8 -109.7 8 -108 8 C-108.99 8.495 -108.99 8.495 -110 9 C-110 9.99 -110 10.98 -110 12 C-74.36 12 -38.72 12 -2 12 C-2.495 10.02 -2.495 10.02 -3 8 C-2.01 7.67 -1.02 7.34 0 7 C0 4.69 0 2.38 0 0 Z " fill="#EEEB66" transform="translate(175,149)"/>
<path d="M0 0 C0.72822464 0.00424484 1.45644928 0.00848969 2.20674133 0.01286316 C4.53013252 0.02964142 6.85265275 0.0672902 9.17578125 0.10546875 C10.75194059 0.12051678 12.32811354 0.13420498 13.90429688 0.14648438 C17.76596002 0.1795419 21.62697303 0.23131681 25.48828125 0.29296875 C25.48828125 0.62296875 25.48828125 0.95296875 25.48828125 1.29296875 C16.24828125 1.62296875 7.00828125 1.95296875 -2.51171875 2.29296875 C-2.84171875 3.94296875 -3.17171875 5.59296875 -3.51171875 7.29296875 C-2.8624794 7.30327621 -2.21324005 7.31358368 -1.54432678 7.32420349 C5.18727177 7.43203011 11.91872995 7.54664656 18.65014648 7.6652832 C21.16541621 7.70870881 23.68071688 7.75037804 26.19604492 7.7902832 C29.80266669 7.84780168 33.40913156 7.91154842 37.015625 7.9765625 C38.14790024 7.99327499 39.28017548 8.00998749 40.44676208 8.02720642 C41.48776566 8.04715164 42.52876923 8.06709686 43.60131836 8.08764648 C44.52287216 8.10319077 45.44442596 8.11873505 46.39390564 8.13475037 C48.48828125 8.29296875 48.48828125 8.29296875 49.48828125 9.29296875 C49.42407376 10.9215041 49.28707485 12.54746087 49.11328125 14.16796875 C48.97792969 15.49441406 48.97792969 15.49441406 48.83984375 16.84765625 C48.48828125 19.29296875 48.48828125 19.29296875 47.48828125 22.29296875 C49.46828125 22.29296875 51.44828125 22.29296875 53.48828125 22.29296875 C53.54223603 23.91760717 53.5810532 25.54275416 53.61328125 27.16796875 C53.63648438 28.07289062 53.6596875 28.9778125 53.68359375 29.91015625 C53.48828125 32.29296875 53.48828125 32.29296875 51.48828125 34.29296875 C51.48828125 31.65296875 51.48828125 29.01296875 51.48828125 26.29296875 C49.01328125 25.30296875 49.01328125 25.30296875 46.48828125 24.29296875 C46.30265625 25.31390625 46.30265625 25.31390625 46.11328125 26.35546875 C45.39727248 29.72070995 44.45883 32.993103 43.48828125 36.29296875 C41.27289818 29.37780873 44.500754 21.75399605 46.90234375 15.203125 C47.63491197 13.14795326 47.63491197 13.14795326 47.48828125 10.29296875 C29.33828125 9.96296875 11.18828125 9.63296875 -7.51171875 9.29296875 C-7.51171875 8.63296875 -7.51171875 7.97296875 -7.51171875 7.29296875 C-8.17171875 7.29296875 -8.83171875 7.29296875 -9.51171875 7.29296875 C-10.19921875 5.48046875 -10.19921875 5.48046875 -10.51171875 3.29296875 C-8.02278527 -0.69136837 -4.21235766 -0.09233873 0 0 Z " fill="#EDE966" transform="translate(136.51171875,74.70703125)"/>
<path d="M0 0 C0.66 0.33 1.32 0.66 2 1 C1.525625 2.19625 1.05125 3.3925 0.5625 4.625 C-0.72714556 8.06609219 -1.64110058 11.32128099 -2 15 C-1.67 15.33 -1.34 15.66 -1 16 C-0.67 15.34 -0.34 14.68 0 14 C0.66 14 1.32 14 2 14 C2 13.34 2 12.68 2 12 C2.66 12 3.32 12 4 12 C4 11.34 4 10.68 4 10 C4.66 10.33 5.32 10.66 6 11 C5.67 11.99 5.34 12.98 5 14 C4.34 14 3.68 14 3 14 C2.7525 14.845625 2.505 15.69125 2.25 16.5625 C0.86081034 20.38277156 -0.9499607 23.49576616 -3 27 C-1.94498291 27.02505615 -0.88996582 27.0501123 0.19702148 27.07592773 C4.09770628 27.16984109 7.99820625 27.27010034 11.89868164 27.37231445 C13.58939299 27.41572439 15.28014991 27.45739489 16.97094727 27.49731445 C19.39613606 27.55487094 21.82109415 27.61860649 24.24609375 27.68359375 C25.38672523 27.70866249 25.38672523 27.70866249 26.55039978 27.73423767 C31.88612829 27.88612829 31.88612829 27.88612829 33 29 C33.04080783 30.99958364 33.04254356 33.00045254 33 35 C31 31.25 31 31.25 31 29 C18.79 29 6.58 29 -6 29 C-6.33 27.35 -6.66 25.7 -7 24 C-7.66 23.34 -8.32 22.68 -9 22 C-9.99 22.33 -10.98 22.66 -12 23 C-12 22.34 -12 21.68 -12 21 C-11.34 21 -10.68 21 -10 21 C-9.01 17.535 -9.01 17.535 -8 14 C-7.34 14 -6.68 14 -6 14 C-5.88785156 13.44828125 -5.77570313 12.8965625 -5.66015625 12.328125 C-4.88639227 9.59934789 -3.73182306 7.27227057 -2.4375 4.75 C-1.98246094 3.85796875 -1.52742188 2.9659375 -1.05859375 2.046875 C-0.70925781 1.37140625 -0.35992187 0.6959375 0 0 Z " fill="#EDEB58" transform="translate(81,47)"/>
<path d="M0 0 C2.16695842 2.02574438 3.69223476 3.95169143 5.12109375 6.546875 C5.49943359 7.2275 5.87777344 7.908125 6.26757812 8.609375 C6.65365234 9.31578125 7.03972656 10.0221875 7.4375 10.75 C8.20681921 12.14074232 8.97634892 13.53136821 9.74609375 14.921875 C10.11847168 15.59798828 10.49084961 16.27410156 10.87451172 16.97070312 C12.55333998 19.99769239 14.27550454 22.99882794 16 26 C16.62567871 25.98428955 17.25135742 25.9685791 17.89599609 25.95239258 C20.72223931 25.89015325 23.54833861 25.85104538 26.375 25.8125 C27.35984375 25.78736328 28.3446875 25.76222656 29.359375 25.73632812 C30.77089844 25.72182617 30.77089844 25.72182617 32.2109375 25.70703125 C33.08024902 25.6913208 33.94956055 25.67561035 34.84521484 25.65942383 C35.55629395 25.77181396 36.26737305 25.8842041 37 26 C37.66 26.99 38.32 27.98 39 29 C30.75 29 22.5 29 14 29 C13.34 27.35 12.68 25.7 12 24 C10.68 24 9.36 24 8 24 C7.67 23.34 7.34 22.68 7 22 C6.34 22 5.68 22 5 22 C4.67 22.99 4.34 23.98 4 25 C3.67 24.01 3.34 23.02 3 22 C2.34 22 1.68 22 1 22 C0.87625 21.195625 0.7525 20.39125 0.625 19.5625 C0.41875 18.716875 0.2125 17.87125 0 17 C-0.66 16.67 -1.32 16.34 -2 16 C-0.68 15.34 0.64 14.68 2 14 C2 15.98 2 17.96 2 20 C3.32 19.67 4.64 19.34 6 19 C5.01 18.67 4.02 18.34 3 18 C3.33 14.37 3.66 10.74 4 7 C3.01 6.67 2.02 6.34 1 6 C0.67 4.02 0.34 2.04 0 0 Z " fill="#EFEE49" transform="translate(157,48)"/>
<path d="M0 0 C0.33 0 0.66 0 1 0 C1 2.64 1 5.28 1 8 C0.34 8 -0.32 8 -1 8 C-0.938125 9.134375 -0.87625 10.26875 -0.8125 11.4375 C-0.79003327 15.6537568 -1.82674211 19.01698433 -3.34375 22.921875 C-4.20075425 25.2725082 -4.20075425 25.2725082 -4 29 C-2.68 29 -1.36 29 0 29 C0.66 28.01 1.32 27.02 2 26 C2.66 26.33 3.32 26.66 4 27 C2.14285714 34.57142857 2.14285714 34.57142857 -1 37 C-1.33 36.34 -1.66 35.68 -2 35 C-2.598125 35.309375 -3.19625 35.61875 -3.8125 35.9375 C-6 37 -6 37 -9 38 C-8.34485797 29.93031407 -6.06612985 22.27666743 -3.9375 14.5 C-3.55614707 13.09127935 -3.17528343 11.68242615 -2.79492188 10.2734375 C-1.86892205 6.84741051 -0.93629766 3.42322897 0 0 Z " fill="#F0EB44" transform="translate(178,111)"/>
<path d="M0 0 C0.99 0.33 1.98 0.66 3 1 C3.70491267 3.32206525 4.37212429 5.65593068 5 8 C5.66 8.33 6.32 8.66 7 9 C7 12.63 7 16.26 7 20 C7.66 20.33 8.32 20.66 9 21 C8.67 21.66 8.34 22.32 8 23 C7.01 22.67 6.02 22.34 5 22 C4.67 20.35 4.34 18.7 4 17 C3.01 16.67 2.02 16.34 1 16 C-1.23379981 10.68902698 -1.17638558 5.52901224 0 0 Z " fill="#EFEC3E" transform="translate(154,46)"/>
<path d="M0 0 C1.32 0 2.64 0 4 0 C3.95875 1.134375 3.9175 2.26875 3.875 3.4375 C3.88574646 9.51999481 5.10119279 15.18792831 7.5625 20.75 C8.83345625 23.6234663 9.74707294 25.88056627 10 29 C9.0625 31.3125 9.0625 31.3125 8 33 C7.67 32.34 7.34 31.68 7 31 C7.33 30.34 7.66 29.68 8 29 C7.34 28.67 6.68 28.34 6 28 C5.4375 25.9609375 5.4375 25.9609375 5 23.375 C4.03899394 18.08568318 2.70107129 13.10321386 1 8 C1.33 7.34 1.66 6.68 2 6 C1.34 6 0.68 6 0 6 C-0.38218767 4.34385343 -0.71395102 2.67542976 -1 1 C-0.67 0.67 -0.34 0.34 0 0 Z " fill="#F0EE67" transform="translate(50,106)"/>
<path d="M0 0 C-0.66 0.66 -1.32 1.32 -2 2 C-2 3.32 -2 4.64 -2 6 C-2.66 6 -3.32 6 -4 6 C-4 6.66 -4 7.32 -4 8 C-4.66 8 -5.32 8 -6 8 C-6 8.66 -6 9.32 -6 10 C-6.66 10 -7.32 10 -8 10 C-8.33 10.99 -8.66 11.98 -9 13 C-9.66 12.34 -10.32 11.68 -11 11 C-10.64882254 7.04925363 -9.73319421 3.56834102 -8 0 C-5.13822943 -1.43088528 -3.06624227 -0.59991697 0 0 Z " fill="#EFED3F" transform="translate(89,51)"/>
<path d="M0 0 C2.35479531 2.14072301 3.64062915 4.1394109 5 7 C5.62567871 6.98428955 6.25135742 6.9685791 6.89599609 6.95239258 C9.72223931 6.89015325 12.54833861 6.85104538 15.375 6.8125 C16.85226563 6.77479492 16.85226563 6.77479492 18.359375 6.73632812 C19.77089844 6.72182617 19.77089844 6.72182617 21.2109375 6.70703125 C22.08024902 6.6913208 22.94956055 6.67561035 23.84521484 6.65942383 C24.55629395 6.77181396 25.26737305 6.8842041 26 7 C26.99 8.485 26.99 8.485 28 10 C23.87513162 10.08676908 19.75049616 10.14031295 15.625 10.1875 C14.449375 10.21263672 13.27375 10.23777344 12.0625 10.26367188 C10.94101563 10.27333984 9.81953125 10.28300781 8.6640625 10.29296875 C7.62717285 10.3086792 6.5902832 10.32438965 5.52197266 10.34057617 C4.68972168 10.22818604 3.8574707 10.1157959 3 10 C0.70366176 6.55549263 0.45983515 4.06187717 0 0 Z " fill="#ECEC6C" transform="translate(168,67)"/>
<path d="M0 0 C3.375 0.625 3.375 0.625 5.109375 2.8515625 C6.6202622 5.40568134 8.04045313 7.97483601 9.375 10.625 C7.4375 10.28125 7.4375 10.28125 5.375 9.625 C4.70833333 7.95833333 4.04166667 6.29166667 3.375 4.625 C2.055 4.295 0.735 3.965 -0.625 3.625 C-0.295 6.595 0.035 9.565 0.375 12.625 C-0.285 12.625 -0.945 12.625 -1.625 12.625 C-4.88101751 5.41274617 -4.88101751 5.41274617 -3.8125 2.125 C-2.625 0.625 -2.625 0.625 0 0 Z " fill="#E9EB61" transform="translate(143.625,29.375)"/>
<path d="M0 0 C1.93252416 3.48374311 2.98074405 7.04977934 4.0625 10.875 C4.40410156 12.06867188 4.74570313 13.26234375 5.09765625 14.4921875 C5.911761 17.65697568 6.5208865 20.76968838 7 24 C6.34 24 5.68 24 5 24 C4.34 22.68 3.68 21.36 3 20 C2.34 20 1.68 20 1 20 C1.01160156 19.21753906 1.02320312 18.43507812 1.03515625 17.62890625 C1.04417969 16.61699219 1.05320312 15.60507813 1.0625 14.5625 C1.07410156 13.55316406 1.08570312 12.54382813 1.09765625 11.50390625 C1.28612676 9.05978933 1.28612676 9.05978933 0 8 C-0.14115161 5.32941149 -0.04247107 2.67567762 0 0 Z " fill="#EDEC54" transform="translate(65,130)"/>
<path d="M0 0 C0.66 0.33 1.32 0.66 2 1 C1.26353108 2.94159987 0.52688239 4.88313185 -0.2109375 6.82421875 C-0.88046592 8.67039366 -1.45144414 10.55183922 -2 12.4375 C-2.33 13.283125 -2.66 14.12875 -3 15 C-3.99 15.33 -4.98 15.66 -6 16 C-7.22445284 17.62948064 -7.22445284 17.62948064 -8.1875 19.5625 C-8.785625 20.696875 -9.38375 21.83125 -10 23 C-10.66 23 -11.32 23 -12 23 C-12 22.34 -12 21.68 -12 21 C-11.34 21 -10.68 21 -10 21 C-9.01 17.535 -9.01 17.535 -8 14 C-7.34 14 -6.68 14 -6 14 C-5.88785156 13.44828125 -5.77570313 12.8965625 -5.66015625 12.328125 C-4.88639227 9.59934789 -3.73182306 7.27227057 -2.4375 4.75 C-1.98246094 3.85796875 -1.52742188 2.9659375 -1.05859375 2.046875 C-0.70925781 1.37140625 -0.35992187 0.6959375 0 0 Z " fill="#F2F16E" transform="translate(81,47)"/>
<path d="M0 0 C0.99 0.33 1.98 0.66 3 1 C3.33 4.3 3.66 7.6 4 11 C3.01 11.495 3.01 11.495 2 12 C2 11.34 2 10.68 2 10 C0.68 10.99 -0.64 11.98 -2 13 C-1.85915204 11.20793453 -1.71216299 9.41635083 -1.5625 7.625 C-1.48128906 6.62726563 -1.40007812 5.62953125 -1.31640625 4.6015625 C-1 2 -1 2 0 0 Z " fill="#F0EC3D" transform="translate(175,129)"/>
<path d="M0 0 C0.05395478 1.62463842 0.09277195 3.24978541 0.125 4.875 C0.14820313 5.77992187 0.17140625 6.68484375 0.1953125 7.6171875 C0 10 0 10 -2 12 C-2 9.36 -2 6.72 -2 4 C-4.475 3.01 -4.475 3.01 -7 2 C-7.12375 2.680625 -7.2475 3.36125 -7.375 4.0625 C-8.09100877 7.4277412 -9.02945125 10.70013425 -10 14 C-11.18771723 10.57056481 -10.80226223 8.62215325 -9.5625 5.25 C-9.27503906 4.45078125 -8.98757812 3.6515625 -8.69140625 2.828125 C-8.46324219 2.22484375 -8.23507813 1.6215625 -8 1 C-5.23735711 0.40267181 -2.83967231 0 0 0 Z " fill="#EAEA5D" transform="translate(190,97)"/>
<path d="M0 0 C0.2475 0.639375 0.495 1.27875 0.75 1.9375 C1.82032523 4.15004327 1.82032523 4.15004327 4 4.875 C4.66 4.91625 5.32 4.9575 6 5 C6.66 4.34 7.32 3.68 8 3 C8.33 3.99 8.66 4.98 9 6 C8.34 6 7.68 6 7 6 C6.566875 7.4540625 6.566875 7.4540625 6.125 8.9375 C5 12 5 12 3 13 C2.7525 12.195625 2.505 11.39125 2.25 10.5625 C1.27761141 7.828919 1.27761141 7.828919 -1.125 7.1875 C-1.74375 7.125625 -2.3625 7.06375 -3 7 C-2.01 4.69 -1.02 2.38 0 0 Z " fill="#F1EF58" transform="translate(84,43)"/>
<path d="M0 0 C1.89213369 2.38573379 3.02391783 4.07175348 4 7 C3.01 7.495 3.01 7.495 2 8 C1.34444881 10.52733235 1.34444881 10.52733235 1 13 C-0.32 12.67 -1.64 12.34 -3 12 C-3.33 9.03 -3.66 6.06 -4 3 C-3.01 3 -2.02 3 -1 3 C-0.67 2.01 -0.34 1.02 0 0 Z " fill="#F4EB44" transform="translate(153,40)"/>
<path d="M0 0 C0.33 0 0.66 0 1 0 C1 2.64 1 5.28 1 8 C0.34 8 -0.32 8 -1 8 C-0.938125 9.134375 -0.87625 10.26875 -0.8125 11.4375 C-0.78619778 16.33847991 -2.23987606 20.473967 -4 25 C-4.66 25 -5.32 25 -6 25 C-5.37768893 22.14522349 -4.75223464 19.29119519 -4.125 16.4375 C-3.95097656 15.63763672 -3.77695313 14.83777344 -3.59765625 14.01367188 C-2.55556397 9.28566059 -1.38268277 4.64008408 0 0 Z " fill="#ECEA69" transform="translate(178,111)"/>
<path d="M0 0 C1.61725534 3.00950123 2.67582623 5.97103608 3.625 9.25 C3.88539062 10.14203125 4.14578125 11.0340625 4.4140625 11.953125 C4.60742188 12.62859375 4.80078125 13.3040625 5 14 C3.68 13.67 2.36 13.34 1 13 C1 11.35 1 9.7 1 8 C-0.65 8 -2.3 8 -4 8 C-3.34 7.01 -2.68 6.02 -2 5 C-1.34 5 -0.68 5 0 5 C0 3.35 0 1.7 0 0 Z " fill="#F1EE66" transform="translate(59,107)"/>
<path d="M0 0 C0.66 0 1.32 0 2 0 C3.75734451 4.97361654 5.32584613 9.7415998 6 15 C5.01 14.67 4.02 14.34 3 14 C2.814375 12.4840625 2.814375 12.4840625 2.625 10.9375 C2.01914665 7.12062388 1.12806088 3.68499888 0 0 Z " fill="#EDEE6C" transform="translate(58,140)"/>
<path d="M0 0 C0.99 0 1.98 0 3 0 C3 1.98 3 3.96 3 6 C1.35 6.33 -0.3 6.66 -2 7 C-2.33 5.02 -2.66 3.04 -3 1 C-2.01 1.33 -1.02 1.66 0 2 C0 1.34 0 0.68 0 0 Z " fill="#EFEA3D" transform="translate(88,42)"/>
<path d="M0 0 C0.66 0.33 1.32 0.66 2 1 C1.67 1.99 1.34 2.98 1 4 C0.34 4 -0.32 4 -1 4 C-1.268125 4.928125 -1.53625 5.85625 -1.8125 6.8125 C-3 10 -3 10 -6 13 C-5.34 10.03 -4.68 7.06 -4 4 C-3.34 4 -2.68 4 -2 4 C-2 3.34 -2 2.68 -2 2 C-1.34 2 -0.68 2 0 2 C0 1.34 0 0.68 0 0 Z " fill="#EFF068" transform="translate(85,57)"/>
<path d="M0 0 C0.66 0.33 1.32 0.66 2 1 C0.14285714 8.57142857 0.14285714 8.57142857 -3 11 C-3.75 8.3125 -3.75 8.3125 -4 5 C-2.0625 2.125 -2.0625 2.125 0 0 Z " fill="#EEED6B" transform="translate(180,137)"/>
<path d="M0 0 C0.66 0 1.32 0 2 0 C1.71872579 1.48117801 1.42466268 2.95993249 1.125 4.4375 C0.96257812 5.26121094 0.80015625 6.08492187 0.6328125 6.93359375 C0.31957031 7.95646484 0.31957031 7.95646484 0 9 C-0.99 9.495 -0.99 9.495 -2 10 C-2.33 7.69 -2.66 5.38 -3 3 C-2.01 3.33 -1.02 3.66 0 4 C0 2.68 0 1.36 0 0 Z " fill="#ECEB58" transform="translate(181,128)"/>
<path d="M0 0 C1.57554035 2.88628401 2.46276373 5.53342384 3.125 8.75 C3.29257813 9.54921875 3.46015625 10.3484375 3.6328125 11.171875 C3.81457031 12.07679688 3.81457031 12.07679688 4 13 C3.01 13.495 3.01 13.495 2 14 C0.02905192 9.07262981 -0.1799928 5.21979128 0 0 Z " fill="#E9EB62" transform="translate(65,130)"/>
<path d="M0 0 C3.36591427 2.72478774 4.44226276 6.06856792 6 10 C5.34 10 4.68 10 4 10 C4 9.01 4 8.02 4 7 C3.01 6.67 2.02 6.34 1 6 C0.67 4.02 0.34 2.04 0 0 Z " fill="#F5F66F" transform="translate(157,48)"/>
<path d="M0 0 C0.33 2.64 0.66 5.28 1 8 C0.34 8 -0.32 8 -1 8 C-1.12375 7.195625 -1.2475 6.39125 -1.375 5.5625 C-1.684375 4.2940625 -1.684375 4.2940625 -2 3 C-2.66 2.67 -3.32 2.34 -4 2 C-1 0 -1 0 0 0 Z " fill="#F0F174" transform="translate(159,62)"/>
<path d="M0 0 C1.89213369 2.38573379 3.02391783 4.07175348 4 7 C1 7 1 7 -0.6875 5.5 C-1.120625 5.005 -1.55375 4.51 -2 4 C-1.34 4 -0.68 4 0 4 C0 2.68 0 1.36 0 0 Z " fill="#F3F162" transform="translate(153,40)"/>
<path d="M0 0 C1.04005702 3.38018531 1.08004482 6.4780279 1 10 C0.01 10.33 -0.98 10.66 -2 11 C-1.125 3.375 -1.125 3.375 0 0 Z " fill="#ECEB68" transform="translate(171,138)"/>
<path d="M0 0 C0.66 0 1.32 0 2 0 C2 0.66 2 1.32 2 2 C1.34 2 0.68 2 0 2 C0 1.34 0 0.68 0 0 Z " fill="#EBEBDE" transform="translate(59,59)"/>
<path d="M0 0 C0.99 0.495 0.99 0.495 2 1 C1.01 1.495 1.01 1.495 0 2 C0 1.34 0 0.68 0 0 Z " fill="#BEBEBE" transform="translate(134,184)"/>
<path d="M0 0 C0.99 0.495 0.99 0.495 2 1 C1.01 1.495 1.01 1.495 0 2 C0 1.34 0 0.68 0 0 Z " fill="#CACACA" transform="translate(109,184)"/>
<path d="M0 0 C0.99 0.495 0.99 0.495 2 1 C1.01 1.495 1.01 1.495 0 2 C0 1.34 0 0.68 0 0 Z " fill="#E9F7E3" transform="translate(184,159)"/>
<path d="M0 0 C0.99 0.495 0.99 0.495 2 1 C1.01 1.495 1.01 1.495 0 2 C0 1.34 0 0.68 0 0 Z " fill="#C9C9C8" transform="translate(159,134)"/>
<path d="M0 0 C0.99 0.495 0.99 0.495 2 1 C1.01 1.495 1.01 1.495 0 2 C0 1.34 0 0.68 0 0 Z " fill="#C5C6C5" transform="translate(109,134)"/>
<path d="M0 0 C0.99 0.495 0.99 0.495 2 1 C1.01 1.495 1.01 1.495 0 2 C0 1.34 0 0.68 0 0 Z " fill="#C9C9C8" transform="translate(209,84)"/>
<path d="M0 0 C0.99 0.495 0.99 0.495 2 1 C1.01 1.495 1.01 1.495 0 2 C0 1.34 0 0.68 0 0 Z " fill="#CCD6B8" transform="translate(34,84)"/>
<path d="M0 0 C0.99 0.495 0.99 0.495 2 1 C1.01 1.495 1.01 1.495 0 2 C0 1.34 0 0.68 0 0 Z " fill="#E4E5D0" transform="translate(159,34)"/>
<path d="M0 0 C0.99 0.495 0.99 0.495 2 1 C1.01 1.495 1.01 1.495 0 2 C0 1.34 0 0.68 0 0 Z " fill="#E8EDB1" transform="translate(134,34)"/>
<path d="M0 0 C0.99 0.495 0.99 0.495 2 1 C1.01 1.495 1.01 1.495 0 2 C0 1.34 0 0.68 0 0 Z " fill="#EFEFEF" transform="translate(159,9)"/>
<path d="M0 0 C0.99 0.495 0.99 0.495 2 1 C1.01 1.495 1.01 1.495 0 2 C0 1.34 0 0.68 0 0 Z " fill="#A0A0A0" transform="translate(34,9)"/>
<path d="M0 0 C0.99 0.495 0.99 0.495 2 1 C1.01 1.495 1.01 1.495 0 2 C0 1.34 0 0.68 0 0 Z " fill="#DBDBDB" transform="translate(184,9)"/>
<path d="M0 0 C0.99 0.495 0.99 0.495 2 1 C1.01 1.495 1.01 1.495 0 2 C0 1.34 0 0.68 0 0 Z " fill="#CDCDCD" transform="translate(134,9)"/>
<path d="" fill="#A0A0A0" transform="translate(0,0)"/>
<path d="" fill="#D0D0D0" transform="translate(0,0)"/>
<path d="" fill="#E6E6E6" transform="translate(0,0)"/>
<path d="" fill="#ECECEC" transform="translate(0,0)"/>
<path d="" fill="#BABABA" transform="translate(0,0)"/>
<path d="M0 0 C2 1 2 1 2 1 Z " fill="#989898" transform="translate(134,134)"/>
<path d="M0 0 C2 1 2 1 2 1 Z " fill="#E2E2E2" transform="translate(159,109)"/>
<path d="" fill="#F6F6F6" transform="translate(0,0)"/>
<path d="M0 0 C2 1 2 1 2 1 Z " fill="#989898" transform="translate(234,9)"/>
<path d="" fill="#A2A2A2" transform="translate(0,0)"/>
<path d="" fill="#CACACA" transform="translate(0,0)"/>
<path d="" fill="#C6C6C6" transform="translate(0,0)"/>
<path d="" fill="#9A9A9A" transform="translate(0,0)"/>
<path d="" fill="#9C9C9C" transform="translate(0,0)"/>
<path d="" fill="#A9A9A9" transform="translate(0,0)"/>
<path d="" fill="#B4B4B4" transform="translate(0,0)"/>
<path d="" fill="#A4A4A4" transform="translate(0,0)"/>
<path d="" fill="#A4A4A4" transform="translate(0,0)"/>
<path d="" fill="#E3E3E3" transform="translate(0,0)"/>
<path d="" fill="#BEBEBE" transform="translate(0,0)"/>
<path d="" fill="#ABABAB" transform="translate(0,0)"/>
<path d="" fill="#ADADAD" transform="translate(0,0)"/>
<path d="" fill="#B7B7B7" transform="translate(0,0)"/>
<path d="" fill="#A5A5A5" transform="translate(0,0)"/>
<path d="" fill="#A4A4A4" transform="translate(0,0)"/>
<path d="" fill="#B6B6B6" transform="translate(0,0)"/>
<path d="" fill="#CACACA" transform="translate(0,0)"/>
<path d="" fill="#E2E2E2" transform="translate(0,0)"/>
<path d="" fill="#979797" transform="translate(0,0)"/>
<path d="" fill="#DCDCDC" transform="translate(0,0)"/>
<path d="" fill="#949494" transform="translate(0,0)"/>
<path d="" fill="#979797" transform="translate(0,0)"/>
<path d="" fill="#C9C9C9" transform="translate(0,0)"/>
<path d="" fill="#D0D0CC" transform="translate(0,0)"/>
<path d="" fill="#C3C3C3" transform="translate(0,0)"/>
<path d="" fill="#A4A4A4" transform="translate(0,0)"/>
<path d="" fill="#C1C1C1" transform="translate(0,0)"/>
<path d="" fill="#979797" transform="translate(0,0)"/>
<path d="" fill="#9B9B9B" transform="translate(0,0)"/>
<path d="" fill="#ACACAC" transform="translate(0,0)"/>
<path d="" fill="#B1B3AB" transform="translate(0,0)"/>
<path d="" fill="#9C9C9C" transform="translate(0,0)"/>
<path d="" fill="#979797" transform="translate(0,0)"/>
<path d="" fill="#AAAAAA" transform="translate(0,0)"/>
<path d="" fill="#CBCBCB" transform="translate(0,0)"/>
<path d="" fill="#D5D5D5" transform="translate(0,0)"/>
</svg>
