<?xml version="1.0" encoding="UTF-8"?>
<svg version="1.1" xmlns="http://www.w3.org/2000/svg" width="237" height="205">
<path d="M0 0 C78.21 0 156.42 0 237 0 C237 67.65 237 135.3 237 205 C158.79 205 80.58 205 0 205 C0 137.35 0 69.7 0 0 Z " fill="#121212" transform="translate(0,0)"/>
<path d="M0 0 C4.70588235 0.70588235 4.70588235 0.70588235 6 2 C6.45084219 6.26297374 5.39988831 8.62103401 3.21875 12.24609375 C2.62320313 13.24962891 2.02765625 14.25316406 1.4140625 15.28710938 C0.78242187 16.32673828 0.15078125 17.36636719 -0.5 18.4375 C-1.71950075 20.47741596 -2.93824361 22.51778518 -4.15625 24.55859375 C-4.77371094 25.58710449 -5.39117187 26.61561523 -6.02734375 27.67529297 C-9.42780986 33.40642508 -12.71267716 39.20344765 -16 45 C-14.42532959 44.98428955 -14.42532959 44.98428955 -12.81884766 44.96826172 C-8.93134967 44.93211547 -5.04386659 44.90911922 -1.15625 44.89013672 C0.52769466 44.88006683 2.21162179 44.86641012 3.89550781 44.84912109 C6.31319501 44.82491574 8.73065143 44.81352704 11.1484375 44.8046875 C11.9036972 44.79436493 12.65895691 44.78404236 13.43710327 44.77340698 C15.2929398 44.77300682 17.1481928 44.87777284 19 45 C19.66 45.66 20.32 46.32 21 47 C20.44444444 51.55555556 20.44444444 51.55555556 19 53 C17.15881971 53.09381302 15.31402359 53.11743954 13.47045898 53.11352539 C12.28931015 53.11344986 11.10816132 53.11337433 9.89122009 53.11329651 C8.6058284 53.10813522 7.32043671 53.10297394 5.99609375 53.09765625 C4.68794205 53.0962413 3.37979034 53.09482635 2.03199768 53.09336853 C-1.45162859 53.0895441 -4.93521339 53.07971446 -8.41882324 53.06866455 C-11.97126708 53.05844882 -15.52371759 53.05387056 -19.07617188 53.04882812 C-26.05079832 53.03809212 -33.02539717 53.0210166 -40 53 C-39.84573547 53.52945221 -39.69147095 54.05890442 -39.53253174 54.60440063 C-35.69709226 67.80443015 -32.11663457 81.04830654 -28.75 94.375 C-28.09854579 96.94397864 -27.4461879 99.51272342 -26.79278564 102.08120728 C-26.39301831 103.65361365 -25.99444506 105.22632433 -25.59735107 106.79940796 C-24.74712461 110.15202594 -23.86008758 113.46563287 -22.86425781 116.77978516 C-22 120 -22 120 -22 124 C10.01 124 42.02 124 75 124 C75.33 122.02 75.66 120.04 76 118 C76.32416639 116.53346101 76.6660444 115.07069051 77.02807617 113.61303711 C77.22886276 112.80035873 77.42964935 111.98768036 77.63652039 111.15037537 C77.85314835 110.28477493 78.06977631 109.4191745 78.29296875 108.52734375 C78.52148026 107.6090126 78.74999176 106.69068146 78.98542786 105.74452209 C79.47093777 103.7967485 79.9576756 101.84928063 80.44555664 99.90209961 C81.17179774 97.00024188 81.89182647 94.09689432 82.61132812 91.19335938 C85.80427775 78.38023218 89.29186487 65.67334221 93 53 C92.28812027 53.00222061 91.57624054 53.00444122 90.8427887 53.00672913 C84.14725765 53.02673253 77.45173489 53.04197438 70.75618076 53.05181217 C67.31359652 53.05703982 63.87103688 53.06413531 60.4284668 53.07543945 C56.47444957 53.08834235 52.52044244 53.09322918 48.56640625 53.09765625 C46.70394005 53.10539818 46.70394005 53.10539818 44.80384827 53.11329651 C43.09218727 53.11340981 43.09218727 53.11340981 41.34594727 53.11352539 C40.335569 53.115746 39.32519073 53.11796661 38.28419495 53.12025452 C36 53 36 53 35 52 C34.95919217 50.00041636 34.95745644 47.99954746 35 46 C37.95810476 44.52094762 40.9547155 44.87809097 44.1953125 44.90234375 C44.90275604 44.9037587 45.61019958 44.90517365 46.33908081 44.90663147 C48.60109669 44.912234 50.86301398 44.92478682 53.125 44.9375 C54.65755065 44.94251468 56.19010286 44.94707764 57.72265625 44.95117188 C61.48180888 44.96220423 65.24088772 44.97947048 69 45 C65.07785995 37.84612555 60.99428487 30.79180908 56.875 23.75 C55.94494141 22.15671875 55.94494141 22.15671875 54.99609375 20.53125 C51.7190496 14.89358719 51.7190496 14.89358719 48.32080078 9.32910156 C46.78481986 6.62055111 46.58562304 5.06638952 47 2 C47.66 1.34 48.32 0.68 49 0 C51.38842773 0.02197266 51.38842773 0.02197266 54 1 C55.94165039 3.42724609 55.94165039 3.42724609 57.78515625 6.6484375 C58.12209 7.22653168 58.45902374 7.80462585 58.8061676 8.40023804 C59.52103867 9.63141577 60.22848183 10.86693187 60.92901611 12.10632324 C61.97863088 13.96221586 63.04794231 15.80514308 64.12451172 17.64550781 C65.89538566 20.68008562 67.64481203 23.72627227 69.38452148 26.77880859 C70.45781486 28.66061813 71.53637186 30.53934761 72.61523438 32.41796875 C73.30500001 33.62482144 73.99446508 34.83184598 74.68359375 36.0390625 C75.29775146 37.11365723 75.91190918 38.18825195 76.54467773 39.29541016 C78 42 78 42 79 45 C79.62567871 44.99476318 80.25135742 44.98952637 80.89599609 44.98413086 C83.72232057 44.96338382 86.54862905 44.95034714 89.375 44.9375 C90.35984375 44.92912109 91.3446875 44.92074219 92.359375 44.91210938 C93.77089844 44.90727539 93.77089844 44.90727539 95.2109375 44.90234375 C96.08024902 44.89710693 96.94956055 44.89187012 97.84521484 44.88647461 C100 45 100 45 102 46 C102.48999224 53.59487978 100.66676181 60.31001104 98.75 67.625 C98.44964844 68.80707031 98.14929688 69.98914063 97.83984375 71.20703125 C96.32461485 77.11964787 94.72427868 82.998653 93.01953125 88.859375 C91.5473667 93.95730726 90.21109601 99.07015919 88.96484375 104.2265625 C88.79749725 104.91638214 88.63015076 105.60620178 88.45773315 106.31692505 C87.77413395 109.1417189 87.09300984 111.96698833 86.42456055 114.79541016 C85.92571779 116.89962824 85.41500045 119.00067371 84.90234375 121.1015625 C84.60835693 122.33213379 84.31437012 123.56270508 84.01147461 124.83056641 C83.01544153 127.95161429 82.21249829 129.63021337 80 132 C77.9681778 132.50336456 77.9681778 132.50336456 75.59729004 132.50793457 C74.69718704 132.51921387 73.79708405 132.53049316 72.8697052 132.54211426 C71.39216011 132.52996887 71.39216011 132.52996887 69.88476562 132.51757812 C68.84551437 132.5245874 67.80626312 132.53159668 66.73551941 132.53881836 C63.29215969 132.5564575 59.84961842 132.5447541 56.40625 132.53125 C54.01875653 132.5339432 51.63126412 132.53782417 49.24377441 132.54284668 C44.2367917 132.54874978 39.23009414 132.54015233 34.22314453 132.52148438 C27.79658562 132.4986948 21.37069484 132.51181348 14.94416046 132.53577423 C10.01315248 132.55021005 5.0823036 132.54563632 0.15129089 132.53526306 C-2.21865416 132.53258966 -4.58861353 132.53588696 -6.95854187 132.54518127 C-10.26767382 132.55531004 -13.57571517 132.53989617 -16.88476562 132.51757812 C-18.36231071 132.52972351 -18.36231071 132.52972351 -19.8697052 132.54211426 C-20.7698082 132.53083496 -21.66991119 132.51955566 -22.59729004 132.50793457 C-23.77087948 132.50567242 -23.77087948 132.50567242 -24.9681778 132.50336456 C-27 132 -27 132 -28.71535492 130.16088104 C-30.4422895 127.25603188 -31.05695656 124.48222142 -31.8125 121.1875 C-32.15344995 119.74443692 -32.49599346 118.30174974 -32.83984375 116.859375 C-33.02401855 116.07884766 -33.20819336 115.29832031 -33.39794922 114.49414062 C-34.49273748 109.9587161 -35.68917772 105.44980957 -36.875 100.9375 C-37.38935673 98.97006092 -37.90367917 97.00261288 -38.41796875 95.03515625 C-39.48013024 90.97969049 -40.54593541 86.9251978 -41.61328125 82.87109375 C-43.0909455 77.25134056 -44.55564879 71.62841096 -46 66 C-46.18224121 65.29004883 -46.36448242 64.58009766 -46.55224609 63.84863281 C-49.54870314 52.0357345 -49.54870314 52.0357345 -49 46 C-48 45 -48 45 -45.86694336 44.88647461 C-44.95050049 44.89171143 -44.03405762 44.89694824 -43.08984375 44.90234375 C-42.10048828 44.90556641 -41.11113281 44.90878906 -40.09179688 44.91210938 C-39.05087891 44.92048828 -38.00996094 44.92886719 -36.9375 44.9375 C-35.37032227 44.94426758 -35.37032227 44.94426758 -33.77148438 44.95117188 C-31.1809334 44.96300087 -28.59049441 44.97948311 -26 45 C-25.74114014 44.30342285 -25.48228027 43.6068457 -25.21557617 42.88916016 C-23.87202302 39.69582656 -22.26961329 36.7816749 -20.55078125 33.7734375 C-20.04722359 32.89094833 -20.04722359 32.89094833 -19.53349304 31.9906311 C-18.82313322 30.7475759 -18.11117198 29.50543463 -17.39770508 28.26416016 C-16.32907596 26.40385597 -15.26669406 24.54009445 -14.20507812 22.67578125 C-2.90653065 2.90653065 -2.90653065 2.90653065 0 0 Z " fill="#EBE63F" transform="translate(93,30)"/>
</svg>
