<?xml version="1.0" encoding="UTF-8"?>
<svg version="1.1" xmlns="http://www.w3.org/2000/svg" width="540" height="149">
<path d="M0 0 C178.2 0 356.4 0 540 0 C540 49.17 540 98.34 540 149 C361.8 149 183.6 149 0 149 C0 99.83 0 50.66 0 0 Z " fill="#FDFEFD" transform="translate(0,0)"/>
<path d="M0 0 C0.66 0.33 1.32 0.66 2 1 C1.34 2.98 0.68 4.96 0 7 C-1.65 7.33 -3.3 7.66 -5 8 C-4.505 8.99 -4.505 8.99 -4 10 C-3.01 9.67 -2.02 9.34 -1 9 C-1 9.66 -1 10.32 -1 11 C-1.96679688 11.29003906 -1.96679688 11.29003906 -2.953125 11.5859375 C-5.34351201 12.88708247 -5.34351201 12.88708247 -5.609375 16.0390625 C-5.65578125 17.22242187 -5.7021875 18.40578125 -5.75 19.625 C-5.83507813 21.40777344 -5.83507813 21.40777344 -5.921875 23.2265625 C-5.96054688 24.59941406 -5.96054688 24.59941406 -6 26 C-4.35 26 -2.7 26 -1 26 C-1 26.33 -1 26.66 -1 27 C-2.65 27 -4.3 27 -6 27 C-5.505 31.455 -5.505 31.455 -5 36 C-4.01 35.34 -3.02 34.68 -2 34 C2.33032472 33.30260688 5.95800684 33.51225852 9.9375 35.375 C12.9525729 39.2123655 13.39110682 43.23791008 14 48 C14.66 48 15.32 48 16 48 C16.08088751 44.84951552 16.08088751 44.84951552 15.375 41.1875 C14.85351345 37.29420998 15.57691159 34.68328764 17 31 C17 29.68 17 28.36 17 27 C17.99 27 18.98 27 20 27 C20.33 25.35 20.66 23.7 21 22 C20.34 22 19.68 22 19 22 C17 19 17 19 17 16 C18.32 16 19.64 16 21 16 C23.15842059 19.47187808 23.18475863 22.03064174 22.875 26.0625 C22.81054688 27.10535156 22.74609375 28.14820313 22.6796875 29.22265625 C21.85608835 32.58805277 20.80625121 33.14023588 18 35 C17.24984805 37.95691709 17.24984805 37.95691709 18 41 C19.2684375 41.9590625 19.2684375 41.9590625 20.5625 42.9375 C21.366875 43.618125 22.17125 44.29875 23 45 C22.8125 48.75 22.8125 48.75 22 52 C24.14526099 52.19393875 26.29123677 52.37998676 28.4375 52.5625 C29.63246094 52.66691406 30.82742187 52.77132812 32.05859375 52.87890625 C33.02925781 52.91886719 33.99992187 52.95882812 35 53 C35.33 52.67 35.66 52.34 36 52 C35.34 51.67 34.68 51.34 34 51 C34.33 49.68 34.66 48.36 35 47 C35 47.99 35 48.98 35 50 C45.05107702 46.45256105 57.29304416 37.37383326 62.1875 27.6875 C62.82990684 26.14032933 63.43954532 24.57870649 64 23 C64.433125 21.88625 64.86625 20.7725 65.3125 19.625 C66.16890626 16.8073413 66.16890626 16.8073413 66 13 C62.24284385 11.12142193 58.56461914 11.57140796 54.6328125 12.6484375 C45.88594688 15.8365474 39.40127366 21.40474835 33 28 C32.34 28.33 31.68 28.66 31 29 C31 28.01 31 27.02 31 26 C30.01 26 29.02 26 28 26 C28 24.35 28 22.7 28 21 C29.27875 21.165 30.5575 21.33 31.875 21.5 C37.61034742 21.53590202 40.30010102 18.68399538 44.453125 15.046875 C49.38176102 11.08582397 54.62657186 9.22968659 60.875 8.625 C63.83121558 8.97974587 65.43637617 9.61275767 68 11 C68.2358396 16.77807024 67.86783046 21.51324804 66 27 C67.485 27.495 67.485 27.495 69 28 C68.125 32.75 68.125 32.75 67 35 C66.95449619 37.18702667 66.9615866 39.3753373 67 41.5625 C67.03759919 43.7080039 67.04670095 45.85467492 67 48 C66.67 48.33 66.34 48.66 66 49 C65.76198206 52.76672828 65.60390481 56.52693107 65.48242188 60.29882812 C65.44826172 61.09353516 65.41410156 61.88824219 65.37890625 62.70703125 C65.34132202 63.79721558 65.34132202 63.79721558 65.30297852 64.90942383 C64.57941555 69.90206657 61.92229319 72.12355393 58.0625 75.125 C53.00494526 79.14578925 48.24515999 83.34739649 43.5078125 87.73828125 C42.26644531 88.85783203 42.26644531 88.85783203 41 90 C39.85144531 91.13501953 39.85144531 91.13501953 38.6796875 92.29296875 C33.21164714 95.77625394 26.03608481 93.84781667 19.96875 92.64453125 C19.22289642 92.50283005 18.47704285 92.36112885 17.70858765 92.21513367 C15.30403401 91.75589488 12.90189706 91.28542416 10.5 90.8125 C8.84132394 90.48820272 7.18263244 90.16398448 5.52392578 89.83984375 C3.03555762 89.35297522 0.54745107 88.86494046 -1.93991089 88.37295532 C-6.83880379 87.40713129 -11.74236737 86.50982028 -16.6640625 85.66796875 C-18.81773581 85.27879785 -20.9713839 84.88948737 -23.125 84.5 C-24.10017578 84.34764893 -25.07535156 84.19529785 -26.08007812 84.03833008 C-28.56996727 83.56682208 -30.70588235 83.07367197 -33 82 C-34.78574215 79.33411609 -35.30587237 78.01503563 -36 75 C-36.25458984 74.06043457 -36.50917969 73.12086914 -36.77148438 72.15283203 C-37.63293393 68.88406471 -38.41741043 65.60391985 -39.1875 62.3125 C-39.46013672 61.18521484 -39.73277344 60.05792969 -40.01367188 58.89648438 C-42 50.52801927 -42 50.52801927 -42 46 C-42.99 45.67 -43.98 45.34 -45 45 C-45.6875 42.9375 -45.6875 42.9375 -46 41 C-45.37351563 40.59007812 -44.74703125 40.18015625 -44.1015625 39.7578125 C-43.28429688 39.21898437 -42.46703125 38.68015625 -41.625 38.125 C-40.81289063 37.59132812 -40.00078125 37.05765625 -39.1640625 36.5078125 C-36.92405904 35.04134945 -36.92405904 35.04134945 -35 33 C-35.515625 31.906875 -36.03125 30.81375 -36.5625 29.6875 C-38 26 -38 26 -37 23 C-36.34 24.32 -35.68 25.64 -35 27 C-34.67 26.34 -34.34 25.68 -34 25 C-30.9375 24.375 -30.9375 24.375 -28 24 C-26.4375 25.8125 -26.4375 25.8125 -25 28 C-25.33 28.99 -25.66 29.98 -26 31 C-26.226875 30.360625 -26.45375 29.72125 -26.6875 29.0625 C-27.84191647 26.7227493 -27.84191647 26.7227493 -30.58203125 26.37109375 C-31.37996094 26.24863281 -32.17789063 26.12617187 -33 26 C-32.566875 26.97582031 -32.13375 27.95164062 -31.6875 28.95703125 C-31.1247129 30.2420618 -30.56222866 31.52722502 -30 32.8125 C-29.71382812 33.45509766 -29.42765625 34.09769531 -29.1328125 34.75976562 C-27.86288959 37.67756469 -27 39.78265714 -27 43 C-26.30132813 43.06058594 -25.60265625 43.12117188 -24.8828125 43.18359375 C-23.97273438 43.26738281 -23.06265625 43.35117188 -22.125 43.4375 C-21.22007813 43.51871094 -20.31515625 43.59992188 -19.3828125 43.68359375 C-17 44 -17 44 -15 45 C-13.7763932 42.9254644 -13.7763932 42.9254644 -14 40 C-14 38.33333333 -14 36.66666667 -14 35 C-12.79371992 37.33214148 -11.8345262 39.49642139 -11 42 C-10.67 37.71 -10.34 33.42 -10 29 C-10.66 28.67 -11.32 28.34 -12 28 C-11.34 28 -10.68 28 -10 28 C-10 22.72 -10 17.44 -10 12 C-11.32 12.33 -12.64 12.66 -14 13 C-12.68 11.35 -11.36 9.7 -10 8 C-10.66 8 -11.32 8 -12 8 C-12 7.34 -12 6.68 -12 6 C-11.13375 5.7525 -10.2675 5.505 -9.375 5.25 C-5.81697746 3.93221387 -3.0773845 2.19813178 0 0 Z " fill="#2D2D2D" transform="translate(49,39)"/>
<path d="M0 0 C1.74320664 5.92690256 2.38426962 11.58164388 2.77734375 17.7421875 C2.97799142 20.67797975 3.28050903 23.57836769 3.625 26.5 C3.98303865 29.88208817 3.99138888 32.69537039 3 36 C3.99 36 4.98 36 6 36 C6.33 36.66 6.66 37.32 7 38 C7.680625 37.29875 8.36125 36.5975 9.0625 35.875 C16.55447791 28.44597989 24.59387131 21.38979625 35.5625 20.8125 C39 21 39 21 42 23 C41.20040938 32.39518983 37.09305465 41.51369443 29.9765625 47.8515625 C28.86601289 48.7840051 27.74869307 49.70843929 26.625 50.625 C26.07328125 51.0890625 25.5215625 51.553125 24.953125 52.03125 C15.0112696 60.29279181 15.0112696 60.29279181 9 61 C9.99 61.33 10.98 61.66 12 62 C8.92859569 63.81205858 6.97222701 64.22518386 3.4375 63.8125 C2.67308594 63.73644531 1.90867188 63.66039062 1.12109375 63.58203125 C-1.40228115 62.88961346 -2.44532418 62.08972659 -4 60 C-3.6875 57.3125 -3.6875 57.3125 -3 55 C-3.825 54.46375 -4.65 53.9275 -5.5 53.375 C-8 51 -8 51 -8.5 47.9375 C-8 45 -8 45 -6.625 43.125 C-5 42 -5 42 -3 42 C-3 38.37 -3 34.74 -3 31 C-3.33 31 -3.66 31 -4 31 C-4 29.35 -4 27.7 -4 26 C-5.32 26 -6.64 26 -8 26 C-7.34 27.98 -6.68 29.96 -6 32 C-5.34 32 -4.68 32 -4 32 C-4 33.98 -4 35.96 -4 38 C-5.32 37.67 -6.64 37.34 -8 37 C-7.79375 37.86625 -7.5875 38.7325 -7.375 39.625 C-7 43 -7 43 -8.0625 45.8125 C-9.368789 50.25388259 -8.25999995 53.63846171 -7 58 C-7.99 58.66 -8.98 59.32 -10 60 C-11.485 59.505 -11.485 59.505 -13 59 C-12.690625 58.2265625 -12.690625 58.2265625 -12.375 57.4375 C-11.82351684 53.85285947 -12.71805779 51.35746769 -14 48 C-15.88245398 45.66575706 -17.16091669 45.09580693 -20.12109375 44.7578125 C-24.64990812 44.62395592 -26.8019759 44.90098795 -31 47 C-31 39.08 -31 31.16 -31 23 C-29.35 22.34 -27.7 21.68 -26 21 C-27.32 21 -28.64 21 -30 21 C-30 20.01 -30 19.02 -30 18 C-28.35 17.67 -26.7 17.34 -25 17 C-25.020625 16.236875 -25.04125 15.47375 -25.0625 14.6875 C-25 12 -25 12 -24 9 C-21.67461548 7.13571337 -19.03175062 5.77132972 -16.4375 4.3125 C-15.74591797 3.89677734 -15.05433594 3.48105469 -14.34179688 3.05273438 C-9.2952731 0.18849115 -5.78684207 -0.44914747 0 0 Z " fill="#6B6B6B" transform="translate(74,29)"/>
<path d="M0 0 C0.66 0.33 1.32 0.66 2 1 C1.34 2.98 0.68 4.96 0 7 C-1.65 7.33 -3.3 7.66 -5 8 C-4.505 8.99 -4.505 8.99 -4 10 C-3.01 9.67 -2.02 9.34 -1 9 C-1 9.66 -1 10.32 -1 11 C-1.96679688 11.29003906 -1.96679688 11.29003906 -2.953125 11.5859375 C-5.34351201 12.88708247 -5.34351201 12.88708247 -5.609375 16.0390625 C-5.65578125 17.22242187 -5.7021875 18.40578125 -5.75 19.625 C-5.83507813 21.40777344 -5.83507813 21.40777344 -5.921875 23.2265625 C-5.96054688 24.59941406 -5.96054688 24.59941406 -6 26 C-4.35 26 -2.7 26 -1 26 C-1 26.33 -1 26.66 -1 27 C-2.65 27 -4.3 27 -6 27 C-5.505 31.455 -5.505 31.455 -5 36 C-4.01 35.34 -3.02 34.68 -2 34 C2.33032472 33.30260688 5.95800684 33.51225852 9.9375 35.375 C12.9525729 39.2123655 13.39110682 43.23791008 14 48 C14.66 48 15.32 48 16 48 C16.08088751 44.84951552 16.08088751 44.84951552 15.375 41.1875 C14.85351345 37.29420998 15.57691159 34.68328764 17 31 C17 29.68 17 28.36 17 27 C17.99 27 18.98 27 20 27 C20.33 25.35 20.66 23.7 21 22 C20.34 22 19.68 22 19 22 C17 19 17 19 17 16 C18.32 16 19.64 16 21 16 C23.15842059 19.47187808 23.18475863 22.03064174 22.875 26.0625 C22.81054688 27.10535156 22.74609375 28.14820313 22.6796875 29.22265625 C21.85608835 32.58805277 20.80625121 33.14023588 18 35 C17.24984805 37.95691709 17.24984805 37.95691709 18 41 C19.2684375 41.9590625 19.2684375 41.9590625 20.5625 42.9375 C21.366875 43.618125 22.17125 44.29875 23 45 C22.8125 48.75 22.8125 48.75 22 52 C24.14526099 52.19393875 26.29123677 52.37998676 28.4375 52.5625 C29.63246094 52.66691406 30.82742187 52.77132812 32.05859375 52.87890625 C33.02925781 52.91886719 33.99992187 52.95882812 35 53 C35.33 52.67 35.66 52.34 36 52 C35.34 51.67 34.68 51.34 34 51 C34.33 49.68 34.66 48.36 35 47 C35 47.99 35 48.98 35 50 C45.05107702 46.45256105 57.29304416 37.37383326 62.1875 27.6875 C62.82990684 26.14032933 63.43954532 24.57870649 64 23 C64.433125 21.88625 64.86625 20.7725 65.3125 19.625 C66.16890626 16.8073413 66.16890626 16.8073413 66 13 C62.24284385 11.12142193 58.56461914 11.57140796 54.6328125 12.6484375 C45.88594688 15.8365474 39.40127366 21.40474835 33 28 C32.34 28.33 31.68 28.66 31 29 C31 28.01 31 27.02 31 26 C30.01 26 29.02 26 28 26 C28 24.35 28 22.7 28 21 C29.27875 21.165 30.5575 21.33 31.875 21.5 C37.61034742 21.53590202 40.30010102 18.68399538 44.453125 15.046875 C49.38176102 11.08582397 54.62657186 9.22968659 60.875 8.625 C63.83121558 8.97974587 65.43637617 9.61275767 68 11 C68.2358396 16.77807024 67.86783046 21.51324804 66 27 C67.485 27.495 67.485 27.495 69 28 C68.68563548 33.18701457 65.69966733 36.5947359 62 40 C61.34 40 60.68 40 60 40 C60 40.66 60 41.32 60 42 C58.34516392 43.49877503 56.62409488 44.92488473 54.875 46.3125 C53.87339844 47.11171875 52.87179688 47.9109375 51.83984375 48.734375 C50.43412109 49.85585937 50.43412109 49.85585937 49 51 C47.80872738 52.0164283 46.62020374 53.03611371 45.4375 54.0625 C43 56 43 56 41 56 C41 56.66 41 57.32 41 58 C36.17819159 60.00908684 32.77296796 61.40395206 27.5859375 60.2578125 C26.74160156 60.07863281 25.89726563 59.89945313 25.02734375 59.71484375 C24.15207031 59.52019531 23.27679688 59.32554688 22.375 59.125 C15.58824936 57.63622717 8.93120133 56.54773758 2 56 C2 55.34 2 54.68 2 54 C1.11296387 53.93304932 1.11296387 53.93304932 0.20800781 53.86474609 C-6.42183334 53.29222765 -12.76752458 52.10198518 -19.25 50.625 C-21.26689272 50.175627 -23.28381977 49.72640802 -25.30078125 49.27734375 C-26.27096191 49.05933105 -27.24114258 48.84131836 -28.24072266 48.61669922 C-31.96818895 47.78360951 -35.70191002 46.98335964 -39.4375 46.1875 C-40.52933594 45.95417969 -41.62117188 45.72085938 -42.74609375 45.48046875 C-43.86177734 45.24263672 -43.86177734 45.24263672 -45 45 C-45.33 43.68 -45.66 42.36 -46 41 C-45.37351563 40.59007812 -44.74703125 40.18015625 -44.1015625 39.7578125 C-43.28429688 39.21898437 -42.46703125 38.68015625 -41.625 38.125 C-40.81289063 37.59132812 -40.00078125 37.05765625 -39.1640625 36.5078125 C-36.92405904 35.04134945 -36.92405904 35.04134945 -35 33 C-35.515625 31.906875 -36.03125 30.81375 -36.5625 29.6875 C-38 26 -38 26 -37 23 C-36.34 24.32 -35.68 25.64 -35 27 C-34.67 26.34 -34.34 25.68 -34 25 C-30.9375 24.375 -30.9375 24.375 -28 24 C-26.4375 25.8125 -26.4375 25.8125 -25 28 C-25.33 28.99 -25.66 29.98 -26 31 C-26.226875 30.360625 -26.45375 29.72125 -26.6875 29.0625 C-27.84191647 26.7227493 -27.84191647 26.7227493 -30.58203125 26.37109375 C-31.37996094 26.24863281 -32.17789063 26.12617187 -33 26 C-32.566875 26.97582031 -32.13375 27.95164062 -31.6875 28.95703125 C-31.1247129 30.2420618 -30.56222866 31.52722502 -30 32.8125 C-29.71382812 33.45509766 -29.42765625 34.09769531 -29.1328125 34.75976562 C-27.86288959 37.67756469 -27 39.78265714 -27 43 C-26.30132813 43.06058594 -25.60265625 43.12117188 -24.8828125 43.18359375 C-23.97273438 43.26738281 -23.06265625 43.35117188 -22.125 43.4375 C-21.22007813 43.51871094 -20.31515625 43.59992188 -19.3828125 43.68359375 C-17 44 -17 44 -15 45 C-13.7763932 42.9254644 -13.7763932 42.9254644 -14 40 C-14 38.33333333 -14 36.66666667 -14 35 C-12.79371992 37.33214148 -11.8345262 39.49642139 -11 42 C-10.67 37.71 -10.34 33.42 -10 29 C-10.66 28.67 -11.32 28.34 -12 28 C-11.34 28 -10.68 28 -10 28 C-10 22.72 -10 17.44 -10 12 C-11.32 12.33 -12.64 12.66 -14 13 C-12.68 11.35 -11.36 9.7 -10 8 C-10.66 8 -11.32 8 -12 8 C-12 7.34 -12 6.68 -12 6 C-11.13375 5.7525 -10.2675 5.505 -9.375 5.25 C-5.81697746 3.93221387 -3.0773845 2.19813178 0 0 Z " fill="#0F0F0F" transform="translate(49,39)"/>
<path d="M0 0 C0.02685938 2.14576637 0.04633088 4.29162645 0.0625 6.4375 C0.07410156 7.63246094 0.08570313 8.82742187 0.09765625 10.05859375 C0 13 0 13 -1 14 C-1.23801794 17.76672828 -1.39609519 21.52693107 -1.51757812 25.29882812 C-1.55173828 26.09353516 -1.58589844 26.88824219 -1.62109375 27.70703125 C-1.6461499 28.4338208 -1.67120605 29.16061035 -1.69702148 29.90942383 C-2.42058445 34.90206657 -5.07770681 37.12355393 -8.9375 40.125 C-14.0320123 44.17379662 -18.8207612 48.41101555 -23.58984375 52.8359375 C-29.34115523 58 -29.34115523 58 -32 58 C-32.09922585 53.81915709 -32.17163374 49.63894629 -32.21972656 45.45727539 C-32.23978421 44.03625543 -32.26703778 42.61531741 -32.30175781 41.19458008 C-32.35054011 39.14644105 -32.37302539 37.09939725 -32.390625 35.05078125 C-32.41157227 33.82012939 -32.43251953 32.58947754 -32.45410156 31.3215332 C-31.91832106 27.40255805 -30.79927578 25.74429233 -28 23 C-27.34 23 -26.68 23 -26 23 C-26 22.34 -26 21.68 -26 21 C-24.3125 19.51953125 -24.3125 19.51953125 -22 17.8125 C-18.0182898 14.81835457 -14.29550789 11.65546685 -10.62890625 8.28515625 C-9 7 -9 7 -7 7 C-7 6.34 -7 5.68 -7 5 C-2.47619048 0 -2.47619048 0 0 0 Z " fill="#1E1E1E" transform="translate(116,74)"/>
<path d="M0 0 C1.60301957 5.73437896 2.37797723 11.06116098 2.625 17 C2.68300781 18.16208984 2.68300781 18.16208984 2.7421875 19.34765625 C2.83521357 21.23143415 2.91863175 23.11568256 3 25 C2.505 23.515 2.505 23.515 2 22 C1.34 21.67 0.68 21.34 0 21 C-0.66 20.34 -1.32 19.68 -2 19 C-2 18.01 -2 17.02 -2 16 C-3.65 16.33 -5.3 16.66 -7 17 C-7.33 18.32 -7.66 19.64 -8 21 C-8.639375 20.814375 -9.27875 20.62875 -9.9375 20.4375 C-10.9584375 20.2209375 -10.9584375 20.2209375 -12 20 C-12.33 20.33 -12.66 20.66 -13 21 C-10.69 21.66 -8.38 22.32 -6 23 C-9.01031744 23.93423645 -9.86650268 24.04449911 -13 23 C-13 23.99 -13 24.98 -13 26 C-13.66 26 -14.32 26 -15 26 C-15 27.98 -15 29.96 -15 32 C-13.35 32.33 -11.7 32.66 -10 33 C-9.92652344 34.57587891 -9.92652344 34.57587891 -9.8515625 36.18359375 C-9.46623574 43.65875491 -8.94572447 50.73596197 -7 58 C-7.99 58.66 -8.98 59.32 -10 60 C-11.485 59.505 -11.485 59.505 -13 59 C-12.690625 58.2265625 -12.690625 58.2265625 -12.375 57.4375 C-11.82351684 53.85285947 -12.71805779 51.35746769 -14 48 C-15.88245398 45.66575706 -17.16091669 45.09580693 -20.12109375 44.7578125 C-24.64990812 44.62395592 -26.8019759 44.90098795 -31 47 C-31 39.08 -31 31.16 -31 23 C-29.35 22.34 -27.7 21.68 -26 21 C-27.32 21 -28.64 21 -30 21 C-30 20.01 -30 19.02 -30 18 C-28.35 17.67 -26.7 17.34 -25 17 C-25.020625 16.236875 -25.04125 15.47375 -25.0625 14.6875 C-25 12 -25 12 -24 9 C-21.67461548 7.13571337 -19.03175062 5.77132972 -16.4375 4.3125 C-15.74591797 3.89677734 -15.05433594 3.48105469 -14.34179688 3.05273438 C-9.2952731 0.18849115 -5.78684207 -0.44914747 0 0 Z " fill="#181818" transform="translate(74,29)"/>
<path d="M0 0 C5.625 -0.25 5.625 -0.25 9 2 C10.36928521 5.89165271 11 8.85843452 11 13 C11.66 13 12.32 13 13 13 C13.0825 12.34 13.165 11.68 13.25 11 C14.24759791 7.00960837 16.07166683 3.61450357 18 0 C20.375 -0.125 20.375 -0.125 23 0 C25 2 25 2 25.22705078 4.98095703 C25.21657715 6.22731934 25.20610352 7.47368164 25.1953125 8.7578125 C25.1924826 9.42086395 25.18965271 10.08391541 25.18673706 10.76705933 C25.17553435 12.88655583 25.15043051 15.00563104 25.125 17.125 C25.11497028 18.56119182 25.10584441 19.99739025 25.09765625 21.43359375 C25.075595 24.95586628 25.04106494 28.47789203 25 32 C22.36 32 19.72 32 17 32 C16.67 29.69 16.34 27.38 16 25 C15.7525 25.639375 15.505 26.27875 15.25 26.9375 C14 29 14 29 11.875 29.75 C10.946875 29.87375 10.946875 29.87375 10 30 C9.34 28.68 8.68 27.36 8 26 C7.67 27.98 7.34 29.96 7 32 C4.03 32 1.06 32 -2 32 C-2.08226668 28.95613276 -1.97608217 26.92824652 -1 24 C-0.92966173 22.3229597 -0.91570098 20.6432169 -0.9375 18.96484375 C-0.94523438 17.99095703 -0.95296875 17.01707031 -0.9609375 16.01367188 C-0.97382813 14.99853516 -0.98671875 13.98339844 -1 12.9375 C-1.02544802 10.92583433 -1.04650188 8.91410676 -1.0625 6.90234375 C-1.07410156 6.01023193 -1.08570313 5.11812012 -1.09765625 4.19897461 C-1 2 -1 2 0 0 Z " fill="#0E0F13" transform="translate(243,91)"/>
<path d="M0 0 C0 0.66 0 1.32 0 2 C0.99 1.67 1.98 1.34 3 1 C1.125 4.875 1.125 4.875 0 6 C0.66 6 1.32 6 2 6 C2 16.56 2 27.12 2 38 C1.34 37.34 0.68 36.68 0 36 C0 36.99 0 37.98 0 39 C-2.12534659 38.85930804 -4.25027529 38.71229079 -6.375 38.5625 C-7.55835937 38.48128906 -8.74171875 38.40007812 -9.9609375 38.31640625 C-13 38 -13 38 -15 37 C-16.12525342 34.53085583 -17.14959136 32.08969512 -18.125 29.5625 C-18.40214844 28.86833984 -18.67929687 28.17417969 -18.96484375 27.45898438 C-21 22.28086515 -21 22.28086515 -21 20 C-18.625 19.875 -18.625 19.875 -16 20 C-15.34 20.66 -14.68 21.32 -14 22 C-14.66 21.01 -15.32 20.02 -16 19 C-19.08365871 18.7497843 -19.08365871 18.7497843 -22 19 C-22.33 20.32 -22.66 21.64 -23 23 C-23.66 21.02 -24.32 19.04 -25 17 C-25.66 17 -26.32 17 -27 17 C-26.67 15.68 -26.34 14.36 -26 13 C-25.36191406 12.86722656 -24.72382813 12.73445313 -24.06640625 12.59765625 C-23.24011719 12.42105469 -22.41382813 12.24445312 -21.5625 12.0625 C-20.73878906 11.88847656 -19.91507813 11.71445312 -19.06640625 11.53515625 C-17.02338796 11.19247006 -17.02338796 11.19247006 -16 10 C-16.66 9.67 -17.32 9.34 -18 9 C-15.37785672 7.49480613 -12.75255792 5.99568681 -10.125 4.5 C-9.37863281 4.07074219 -8.63226562 3.64148437 -7.86328125 3.19921875 C-7.14785156 2.79316406 -6.43242187 2.38710938 -5.6953125 1.96875 C-5.03547363 1.59169922 -4.37563477 1.21464844 -3.69580078 0.82617188 C-2 0 -2 0 0 0 Z " fill="#D6D6D6" transform="translate(37,45)"/>
<path d="M0 0 C6.625 -0.25 6.625 -0.25 10 2 C11.26667889 4.59590983 12.0703807 7.25540969 13 10 C13.33 6.7 13.66 3.4 14 0 C16.31 0 18.62 0 21 0 C21 10.56 21 21.12 21 32 C18.36 32 15.72 32 13 32 C12.37132332 30.62667716 11.74726109 29.25124167 11.125 27.875 C10.77695312 27.10929687 10.42890625 26.34359375 10.0703125 25.5546875 C8.89960037 22.76036001 7.95806226 19.87418679 7 17 C6.67 21.95 6.34 26.9 6 32 C3.36 32 0.72 32 -2 32 C-2.4519779 21.27807975 -1.1148557 10.6459824 0 0 Z " fill="#0B0A0D" transform="translate(464,91)"/>
<path d="M0 0 C3.07279405 1.60347465 5.33919586 3.63119142 6.875 6.8125 C6.91625 7.534375 6.9575 8.25625 7 9 C7.12375 10.8871875 7.12375 10.8871875 7.25 12.8125 C7.13190722 19.88494555 3.7951064 25.0907244 -1 30 C-4.26521691 31.99541033 -6.93798972 32.07276183 -10.671875 32.0390625 C-11.48237305 32.03342285 -12.29287109 32.0277832 -13.12792969 32.02197266 C-13.74571289 32.01472168 -14.36349609 32.0074707 -15 32 C-15.02925502 28.31251691 -15.04688418 24.62506408 -15.0625 20.9375 C-15.07087891 19.89916016 -15.07925781 18.86082031 -15.08789062 17.79101562 C-15.10496442 12.41276931 -14.95415152 7.29666789 -14 2 C-9.47756778 -0.33415856 -4.9825935 -0.86691873 0 0 Z " fill="#0C0B0E" transform="translate(454,91)"/>
<path d="M0 0 C7.36113576 -0.36202307 7.36113576 -0.36202307 9.875 1.0625 C11.51811193 3.89230388 12.22448449 6.83828293 13 10 C13.66 6.7 14.32 3.4 15 0 C17.31 0 19.62 0 22 0 C21.9278125 1.30453125 21.855625 2.6090625 21.78125 3.953125 C21.27893466 13.31177017 20.8285099 22.62520768 21 32 C18.36 32 15.72 32 13 32 C11.35 27.38 9.7 22.76 8 18 C7.67 22.62 7.34 27.24 7 32 C4.36 32 1.72 32 -1 32 C-1.10194194 21.27344291 -1.07419152 10.68436922 0 0 Z " fill="#0B080C" transform="translate(295,91)"/>
<path d="M0 0 C0.99 0.66 1.98 1.32 3 2 C2.10693963 12.49345938 -2.83597481 21.64654265 -10.875 28.4375 C-11.4525 28.911875 -12.03 29.38625 -12.625 29.875 C-13.21023437 30.37257813 -13.79546875 30.87015625 -14.3984375 31.3828125 C-18.73111264 35 -18.73111264 35 -21 35 C-21 32.69 -21 30.38 -21 28 C-19.68 28 -18.36 28 -17 28 C-18.39321845 23.12373543 -20.93858296 20.92422027 -25 18 C-27.21735439 17.14720662 -27.21735439 17.14720662 -29 17 C-28.67 18.32 -28.34 19.64 -28 21 C-28.99 21.66 -29.98 22.32 -31 23 C-31.66 21.35 -32.32 19.7 -33 18 C-25.68011218 8.16498485 -12.90792204 -1.58056188 0 0 Z " fill="#F4F4F4" transform="translate(113,50)"/>
<path d="M0 0 C2.125 1.625 2.125 1.625 4.125 3.625 C4.33680578 8.84954256 3.42403019 12.57619022 0.125 16.625 C0.34843221 19.00827695 1.09364073 20.56412613 2.1875 22.6875 C3.125 24.625 3.125 24.625 3.125 27.625 C-1.09722222 30.625 -1.09722222 30.625 -3.875 30.625 C-4.54654933 29.33586513 -5.21208859 28.04359796 -5.875 26.75 C-6.24625 26.03070313 -6.6175 25.31140625 -7 24.5703125 C-7.875 22.625 -7.875 22.625 -7.875 20.625 C-8.865 20.625 -9.855 20.625 -10.875 20.625 C-10.86339844 21.26308594 -10.85179687 21.90117188 -10.83984375 22.55859375 C-10.83082031 23.38488281 -10.82179687 24.21117188 -10.8125 25.0625 C-10.80089844 25.88621094 -10.78929687 26.70992187 -10.77734375 27.55859375 C-10.875 29.625 -10.875 29.625 -11.875 30.625 C-14.20797433 30.66592937 -16.54205225 30.66741723 -18.875 30.625 C-19.05207265 20.59088331 -18.49777469 10.63387894 -17.875 0.625 C-6.12367476 -2.92871402 -6.12367476 -2.92871402 0 0 Z " fill="#111012" transform="translate(210.875,92.375)"/>
<path d="M0 0 C1.53597454 3.07194908 1.2265038 5.60244293 1 9 C-0.5 12.4375 -0.5 12.4375 -2 15 C-2.66 15 -3.32 15 -4 15 C-3.319375 16.051875 -2.63875 17.10375 -1.9375 18.1875 C-0.50156159 20.72090563 -0.00366364 21.83513601 0.0625 24.8125 C-1 27 -1 27 -3.5625 28.3125 C-4.7690625 28.6528125 -4.7690625 28.6528125 -6 29 C-6.32613281 28.36191406 -6.65226562 27.72382812 -6.98828125 27.06640625 C-7.42527344 26.24011719 -7.86226563 25.41382812 -8.3125 24.5625 C-8.95638672 23.32693359 -8.95638672 23.32693359 -9.61328125 22.06640625 C-10.90020887 19.69352356 -10.90020887 19.69352356 -14 19 C-14 22.3 -14 25.6 -14 29 C-16.31 29 -18.62 29 -21 29 C-21.02934711 25.50001799 -21.04691445 22.00006821 -21.0625 18.5 C-21.07087891 17.51773438 -21.07925781 16.53546875 -21.08789062 15.5234375 C-21.1065727 9.91881483 -20.92444998 4.53377053 -20 -1 C-15.45683542 -5.54316458 -4.52280149 -3.45861291 0 0 Z " fill="#0E0C10" transform="translate(401,94)"/>
<path d="M0 0 C3.71365145 0.53052164 4.33955827 0.65051501 6.5 3.5 C7.29956055 5.96435547 7.29956055 5.96435547 7.88671875 8.8671875 C8.10263672 9.91777344 8.31855469 10.96835938 8.54101562 12.05078125 C8.86102539 13.69626953 8.86102539 13.69626953 9.1875 15.375 C9.41244141 16.46425781 9.63738281 17.55351563 9.86914062 18.67578125 C10.81234346 23.36025978 11.63787148 27.70556 11.5 32.5 C8.53 32.5 5.56 32.5 2.5 32.5 C2.5 30.52 2.5 28.54 2.5 26.5 C-1.46 26.995 -1.46 26.995 -5.5 27.5 C-5.5 29.15 -5.5 30.8 -5.5 32.5 C-8.47 32.5 -11.44 32.5 -14.5 32.5 C-13.88964699 26.44595797 -12.16799667 21.09032538 -10.125 15.375 C-9.82078125 14.49457031 -9.5165625 13.61414063 -9.203125 12.70703125 C-4.96881914 0.70983131 -4.96881914 0.70983131 0 0 Z " fill="#191719" transform="translate(178.5,90.5)"/>
<path d="M0 0 C3.71365145 0.53052164 4.33955827 0.65051501 6.5 3.5 C7.29956055 5.96435547 7.29956055 5.96435547 7.88671875 8.8671875 C8.10263672 9.91777344 8.31855469 10.96835938 8.54101562 12.05078125 C8.86102539 13.69626953 8.86102539 13.69626953 9.1875 15.375 C9.41244141 16.46425781 9.63738281 17.55351563 9.86914062 18.67578125 C10.81234346 23.36025978 11.63787148 27.70556 11.5 32.5 C8.53 32.5 5.56 32.5 2.5 32.5 C2.5 30.52 2.5 28.54 2.5 26.5 C-1.46 26.995 -1.46 26.995 -5.5 27.5 C-5.5 29.15 -5.5 30.8 -5.5 32.5 C-8.47 32.5 -11.44 32.5 -14.5 32.5 C-13.88964699 26.44595797 -12.16799667 21.09032538 -10.125 15.375 C-9.82078125 14.49457031 -9.5165625 13.61414063 -9.203125 12.70703125 C-4.96881914 0.70983131 -4.96881914 0.70983131 0 0 Z " fill="#181719" transform="translate(131.5,90.5)"/>
<path d="M0 0 C6.93 0 13.86 0 21 0 C21 2.31 21 4.62 21 7 C16.38 7.33 11.76 7.66 7 8 C7 9.32 7 10.64 7 12 C10.63 12 14.26 12 18 12 C18 13.98 18 15.96 18 18 C14.37 18.33 10.74 18.66 7 19 C7 20.32 7 21.64 7 23 C11.29 23 15.58 23 20 23 C20 25.64 20 28.28 20 31 C13.07 31 6.14 31 -1 31 C-1.14285714 9.71428571 -1.14285714 9.71428571 0 0 Z " fill="#0C0709" transform="translate(271,91)"/>
<path d="M0 0 C6.93 0 13.86 0 21 0 C21 2.31 21 4.62 21 7 C16.38 7.33 11.76 7.66 7 8 C7 9.32 7 10.64 7 12 C10.3 12 13.6 12 17 12 C17 13.98 17 15.96 17 18 C13.52674819 19.1577506 10.63932552 19.06866652 7 19 C7 20.32 7 21.64 7 23 C11.29 23 15.58 23 20 23 C20 25.64 20 28.28 20 31 C13.07 31 6.14 31 -1 31 C-1.14285714 9.71428571 -1.14285714 9.71428571 0 0 Z " fill="#07080B" transform="translate(416,91)"/>
<path d="M0 0 C3.0625 1.9375 3.0625 1.9375 5 5 C5.9424963 9.57783919 5.3789157 13.0699342 3.625 17.375 C-0.06077838 21.06077838 -3.99685155 21.91152877 -9 23 C-9.33 25.97 -9.66 28.94 -10 32 C-12.31 32 -14.62 32 -17 32 C-17 22.1 -17 12.2 -17 2 C-5.24833703 -0.93791574 -5.24833703 -0.93791574 0 0 Z " fill="#141011" transform="translate(162,91)"/>
<path d="M0 0 C6.6 0 13.2 0 20 0 C20 2.31 20 4.62 20 7 C13.565 7.495 13.565 7.495 7 8 C7 9.65 7 11.3 7 13 C10.3 13 13.6 13 17 13 C17 15.31 17 17.62 17 20 C12.05 20.495 12.05 20.495 7 21 C7 24.3 7 27.6 7 31 C4.36 31 1.72 31 -1 31 C-1.10513504 20.59163101 -0.96486051 10.37225043 0 0 Z " fill="#0C0709" transform="translate(358,92)"/>
<path d="M0 0 C0.97983928 2.60391539 1.95889794 5.20811968 2.9375 7.8125 C3.21529297 8.55048828 3.49308594 9.28847656 3.77929688 10.04882812 C4.18051758 11.11713867 4.18051758 11.11713867 4.58984375 12.20703125 C4.83597412 12.8616333 5.08210449 13.51623535 5.33569336 14.19067383 C5.92037033 15.78311815 6.46355559 17.39066676 7 19 C7 18.01 7 17.02 7 16 C8.98 16.66 10.96 17.32 13 18 C13.04898438 18.67546875 13.09796875 19.3509375 13.1484375 20.046875 C13.22320312 20.93890625 13.29796875 21.8309375 13.375 22.75 C13.44460937 23.63171875 13.51421875 24.5134375 13.5859375 25.421875 C14.00494995 28.03082043 14.78518715 29.68081184 16 32 C16.42151885 33.57158878 16.7968834 35.15629082 17.125 36.75 C17.29257813 37.54921875 17.46015625 38.3484375 17.6328125 39.171875 C17.75398438 39.77515625 17.87515625 40.3784375 18 41 C17.01 41.66 16.02 42.32 15 43 C13.515 42.505 13.515 42.505 12 42 C12.309375 41.2265625 12.309375 41.2265625 12.625 40.4375 C13.17648316 36.85285947 12.28194221 34.35746769 11 31 C9.11754602 28.66575706 7.83908331 28.09580693 4.87890625 27.7578125 C0.35009188 27.62395592 -1.8019759 27.90098795 -6 30 C-6 22.08 -6 14.16 -6 6 C-4.35 5.34 -2.7 4.68 -1 4 C-2.32 4 -3.64 4 -5 4 C-5 3.01 -5 2.02 -5 1 C-3 0 -3 0 0 0 Z " fill="#EAEAEA" transform="translate(49,46)"/>
<path d="M0 0 C7.59 0 15.18 0 23 0 C23 1.98 23 3.96 23 6 C22.67 6.33 22.34 6.66 22 7 C19.69 7 17.38 7 15 7 C15 15.25 15 23.5 15 32 C12.36 32 9.72 32 7 32 C7 24.08 7 16.16 7 8 C4.69 8.33 2.38 8.66 0 9 C0 6.03 0 3.06 0 0 Z " fill="#0E0D11" transform="translate(319,91)"/>
<path d="M0 0 C7.59 0 15.18 0 23 0 C23 1.98 23 3.96 23 6 C22.67 6.33 22.34 6.66 22 7 C19.69 7 17.38 7 15 7 C15 15.25 15 23.5 15 32 C12.36 32 9.72 32 7 32 C7 24.08 7 16.16 7 8 C4.69 8.33 2.38 8.66 0 9 C0 6.03 0 3.06 0 0 Z " fill="#0E0D11" transform="translate(217,91)"/>
<path d="M0 0 C1.32 3.3 2.64 6.6 4 10 C5.65 6.7 7.3 3.4 9 0 C11.31 0.33 13.62 0.66 16 1 C14.56115869 6.1231471 13.01928807 11.06198369 10.875 15.9375 C8.67811271 21.2117065 8.21560199 26.32966771 8 32 C5.36 32 2.72 32 0 32 C-0.03738281 31.2265625 -0.07476563 30.453125 -0.11328125 29.65625 C-0.46624279 24.06423184 -0.9570825 19.18580243 -3.16796875 14.0234375 C-4.7693373 10.12902947 -5.83225846 6.0415452 -7 2 C-4.35261084 0.5393715 -3.10551666 0 0 0 Z " fill="#141013" transform="translate(513,91)"/>
<path d="M0 0 C2.64 0 5.28 0 8 0 C8 7.59 8 15.18 8 23 C11.63 23 15.26 23 19 23 C19 25.97 19 28.94 19 32 C12.4 32 5.8 32 -1 32 C-1.14075771 21.30241403 -0.59090445 10.67848748 0 0 Z " fill="#0E0D10" transform="translate(488,91)"/>
<path d="M0 0 C2.375 -0.125 2.375 -0.125 5 0 C7 2 7 2 7.22705078 4.98095703 C7.21134033 6.85050049 7.21134033 6.85050049 7.1953125 8.7578125 C7.1924826 9.42086395 7.18965271 10.08391541 7.18673706 10.76705933 C7.17553435 12.88655583 7.15043051 15.00563104 7.125 17.125 C7.11497028 18.56119182 7.10584441 19.99739025 7.09765625 21.43359375 C7.075595 24.95586628 7.04106494 28.47789203 7 32 C4.36 32 1.72 32 -1 32 C-1.33 29.03 -1.66 26.06 -2 23 C-2.99 22.67 -3.98 22.34 -5 22 C-5 21.34 -5 20.68 -5 20 C-4.34 20 -3.68 20 -3 20 C-3.33 19.34 -3.66 18.68 -4 18 C-4.66 18.33 -5.32 18.66 -6 19 C-5.64134677 11.58783319 -3.64079463 6.43520528 0 0 Z " fill="#0C060A" transform="translate(261,91)"/>
<path d="M0 0 C1.82089479 3.64178957 1.05121113 8.00553148 1 12 C-2.3 12 -5.6 12 -9 12 C-9.33 13.32 -9.66 14.64 -10 16 C-10.66 16.66 -11.32 17.32 -12 18 C-12.40047444 20.32275177 -12.7397104 22.65739357 -13 25 C-15.35546875 24.8046875 -15.35546875 24.8046875 -18 24 C-19.36328125 21.8203125 -19.36328125 21.8203125 -20.3125 19.125 C-20.80169922 17.79855469 -20.80169922 17.79855469 -21.30078125 16.4453125 C-22 14 -22 14 -22 11 C-19.97754809 9.51166744 -18.03749953 8.25048886 -15.875 7 C-15.30523437 6.65710937 -14.73546875 6.31421875 -14.1484375 5.9609375 C-4.13770277 0 -4.13770277 0 0 0 Z " fill="#F8F8F8" transform="translate(71,32)"/>
<path d="M0 0 C2.64 0 5.28 0 8 0 C7.67 10.56 7.34 21.12 7 32 C4.36 32 1.72 32 -1 32 C-1.02469321 27.7641643 -1.04285671 23.52836658 -1.05493164 19.29248047 C-1.05996474 17.8510668 -1.06679173 16.40965824 -1.07543945 14.96826172 C-1.08754983 12.89809915 -1.09323847 10.82800399 -1.09765625 8.7578125 C-1.10289307 7.5114502 -1.10812988 6.26508789 -1.11352539 4.98095703 C-1 2 -1 2 0 0 Z " fill="#0B0408" transform="translate(406,91)"/>
<path d="M0 0 C2.64 0 5.28 0 8 0 C8 0.99 8 1.98 8 3 C8.99 3.33 9.98 3.66 11 4 C11.95946595 8.61965088 11.96102244 12.68129125 11.5625 17.375 C11.46066406 18.62023437 11.35882813 19.86546875 11.25390625 21.1484375 C11.17011719 22.08945313 11.08632812 23.03046875 11 24 C10.34 24 9.68 24 9 24 C8.34 21.03 7.68 18.06 7 15 C6.67 15 6.34 15 6 15 C6 13.35 6 11.7 6 10 C4.68 10 3.36 10 2 10 C2.66 11.98 3.32 13.96 4 16 C4.66 16 5.32 16 6 16 C6 17.98 6 19.96 6 22 C4.68 21.67 3.36 21.34 2 21 C2.226875 21.9075 2.45375 22.815 2.6875 23.75 C3 27 3 27 0 31 C-0.33 26.38 -0.66 21.76 -1 17 C-2.32 16.67 -3.64 16.34 -5 16 C-5 14.02 -5 12.04 -5 10 C-4.34 10 -3.68 10 -3 10 C-3 9.01 -3 8.02 -3 7 C-1.68 7 -0.36 7 1 7 C-0.65 6.67 -2.3 6.34 -4 6 C-3.01 5.01 -2.02 4.02 -1 3 C-1 3.66 -1 4.32 -1 5 C-0.01 4.67 0.98 4.34 2 4 C2.33 3.01 2.66 2.02 3 1 C2.01 0.67 1.02 0.34 0 0 Z " fill="#E9E9E9" transform="translate(64,45)"/>
<path d="M0 0 C1.30069281 2.44625711 2.29890881 4.67331928 3.25 7.25 C3.518125 7.91902344 3.78625 8.58804688 4.0625 9.27734375 C5.48088672 12.96080723 6.33698149 16.04812615 6 20 C5.34 20.33 4.68 20.66 4 21 C3.34 20.01 2.68 19.02 2 18 C2.66 19.98 3.32 21.96 4 24 C1.69 23.67 -0.62 23.34 -3 23 C-4.00419637 20.5433053 -5.00350501 18.08481647 -6 15.625 C-6.28617188 14.92632812 -6.57234375 14.22765625 -6.8671875 13.5078125 C-9 8.2265625 -9 8.2265625 -9 6 C-6.625 5.875 -6.625 5.875 -4 6 C-3.34 6.66 -2.68 7.32 -2 8 C-2.66 7.01 -3.32 6.02 -4 5 C-7.08365871 4.7497843 -7.08365871 4.7497843 -10 5 C-10.33 6.32 -10.66 7.64 -11 9 C-14 3.25 -14 3.25 -14 1 C-12.41913952 0.63495397 -10.83516093 0.28339494 -9.25 -0.0625 C-8.36828125 -0.25972656 -7.4865625 -0.45695312 -6.578125 -0.66015625 C-2.27475317 -1.2274189 -2.27475317 -1.2274189 0 0 Z " fill="#F1F1F1" transform="translate(25,59)"/>
<path d="M0 0 C4.36787565 1.18296632 4.36787565 1.18296632 6 3.8125 C6.39415803 6.96576426 6.58260835 8.92325568 4.8125 11.625 C2.57968261 13.08788036 0.62655933 13.45755955 -2 13.8125 C-1.01 14.1425 -0.02 14.4725 1 14.8125 C-2.07140431 16.62455858 -4.02777299 17.03768386 -7.5625 16.625 C-8.32691406 16.54894531 -9.09132813 16.47289063 -9.87890625 16.39453125 C-12.40013066 15.70270356 -13.43342105 14.88783932 -15 12.8125 C-14.875 10.25 -14.875 10.25 -14 7.8125 C-10.5647952 5.52236347 -9.014669 5.63407027 -5 5.8125 C-5.33 4.4925 -5.66 3.1725 -6 1.8125 C-3 -0.1875 -3 -0.1875 0 0 Z " fill="#EFEFEF" transform="translate(85,76.1875)"/>
<path d="M0 0 C2.9375 0.8125 2.9375 0.8125 6 2 C6.33 2.99 6.66 3.98 7 5 C7.33 4.01 7.66 3.02 8 2 C8.99 2.33 9.98 2.66 11 3 C11.33 5.31 11.66 7.62 12 10 C12.33 7.69 12.66 5.38 13 3 C16 3 16 3 19 4 C20.4783226 6.95664519 20.06032783 9.74229737 20 13 C18 13 16 13 14 13 C14 13.66 14 14.32 14 15 C12.24929483 14.88529863 10.49942464 14.75780972 8.75 14.625 C7.77546875 14.55539063 6.8009375 14.48578125 5.796875 14.4140625 C3.02758321 14.00408355 1.27890649 13.61595187 -1 12 C-2.11714584 9.37576119 -2.45369812 6.82255969 -3 4 C-2.34 3.67 -1.68 3.34 -1 3 C-0.67 2.01 -0.34 1.02 0 0 Z " fill="#4D4D4D" transform="translate(16,108)"/>
<path d="M0 0 C0.33 0 0.66 0 1 0 C2.06309567 5.17317421 2.11693938 10.12369336 2.0625 15.375 C2.05798828 16.20644531 2.05347656 17.03789063 2.04882812 17.89453125 C2.03713164 19.92971897 2.01919935 21.96486923 2 24 C1.34 24 0.68 24 0 24 C0 26.31 0 28.62 0 31 C-0.33 31 -0.66 31 -1 31 C-1 28.36 -1 25.72 -1 23 C-5.29 23 -9.58 23 -14 23 C-14 21.68 -14 20.36 -14 19 C-10.37 18.67 -6.74 18.34 -3 18 C-3 16.02 -3 14.04 -3 12 C-6.63 12 -10.26 12 -14 12 C-14 10.68 -14 9.36 -14 8 C-9.23692563 7.04738513 -4.8333472 6.91666643 0 7 C0 4.69 0 2.38 0 0 Z " fill="#E7F5F6" transform="translate(292,91)"/>
<path d="M0 0 C2.475 0.99 2.475 0.99 5 2 C5.1799928 7.21979128 4.97094808 11.07262981 3 16 C0.13275314 15.42655063 -0.8614515 15.1385485 -3 13 C-3.78375 13.66 -4.5675 14.32 -5.375 15 C-8 17 -8 17 -10 17 C-9.67 11.72 -9.34 6.44 -9 1 C-7.35 1 -5.7 1 -4 1 C-2.1875 3 -2.1875 3 -1 5 C-0.67 3.35 -0.34 1.7 0 0 Z " fill="#081826" transform="translate(456,98)"/>
<path d="M0 0 C0 0.66 0 1.32 0 2 C0.99 1.67 1.98 1.34 3 1 C1.68544658 3.93246533 0.25126383 5.74873617 -2 8 C-2.515625 8.86625 -3.03125 9.7325 -3.5625 10.625 C-5 13 -5 13 -7 14 C-7.72159424 15.64363134 -8.39351421 17.31050386 -9 19 C-9.66 19 -10.32 19 -11 19 C-11.66 17.35 -12.32 15.7 -13 14 C-15.1464753 14.11344376 -17.29220592 14.24106345 -19.4375 14.375 C-21.22994141 14.47941406 -21.22994141 14.47941406 -23.05859375 14.5859375 C-24.02925781 14.72257812 -24.99992187 14.85921875 -26 15 C-26.33 15.66 -26.66 16.32 -27 17 C-26.67 15.68 -26.34 14.36 -26 13 C-25.36191406 12.86722656 -24.72382813 12.73445313 -24.06640625 12.59765625 C-23.24011719 12.42105469 -22.41382813 12.24445312 -21.5625 12.0625 C-20.73878906 11.88847656 -19.91507813 11.71445312 -19.06640625 11.53515625 C-17.02338796 11.19247006 -17.02338796 11.19247006 -16 10 C-16.66 9.67 -17.32 9.34 -18 9 C-15.37785672 7.49480613 -12.75255792 5.99568681 -10.125 4.5 C-9.37863281 4.07074219 -8.63226562 3.64148437 -7.86328125 3.19921875 C-7.14785156 2.79316406 -6.43242187 2.38710938 -5.6953125 1.96875 C-5.03547363 1.59169922 -4.37563477 1.21464844 -3.69580078 0.82617188 C-2 0 -2 0 0 0 Z " fill="#E4E4E4" transform="translate(37,45)"/>
<path d="M0 0 C0.33 0 0.66 0 1 0 C1 2.97 1 5.94 1 9 C0.67 8.34 0.34 7.68 0 7 C-1.65 7.33 -3.3 7.66 -5 8 C-5.33 9.32 -5.66 10.64 -6 12 C-6.639375 11.814375 -7.27875 11.62875 -7.9375 11.4375 C-8.9584375 11.2209375 -8.9584375 11.2209375 -10 11 C-10.33 11.33 -10.66 11.66 -11 12 C-8.69 12.66 -6.38 13.32 -4 14 C-7.01031744 14.93423645 -7.86650268 15.04449911 -11 14 C-11 14.99 -11 15.98 -11 17 C-11.66 17 -12.32 17 -13 17 C-13 18.98 -13 20.96 -13 23 C-11.35 23.33 -9.7 23.66 -8 24 C-8 28.62 -8 33.24 -8 38 C-10 36 -10 36 -10.1953125 33.6171875 C-10.16050781 32.25980469 -10.16050781 32.25980469 -10.125 30.875 C-10.10695313 29.96492188 -10.08890625 29.05484375 -10.0703125 28.1171875 C-10.04710937 27.41851562 -10.02390625 26.71984375 -10 26 C-11.65 26 -13.3 26 -15 26 C-15.33 25.34 -15.66 24.68 -16 24 C-16 24.99 -16 25.98 -16 27 C-17.65 27 -19.3 27 -21 27 C-19.68 26.67 -18.36 26.34 -17 26 C-17.66708984 24.42798828 -17.66708984 24.42798828 -18.34765625 22.82421875 C-18.9197696 21.44551937 -19.49135691 20.06660161 -20.0625 18.6875 C-20.35705078 17.99720703 -20.65160156 17.30691406 -20.95507812 16.59570312 C-23.11328125 11.33984375 -23.11328125 11.33984375 -22 8 C-21.75765625 8.71027344 -21.5153125 9.42054687 -21.265625 10.15234375 C-20.76289062 11.53099609 -20.76289062 11.53099609 -20.25 12.9375 C-19.92515625 13.85402344 -19.6003125 14.77054688 -19.265625 15.71484375 C-18.22179047 18.1788835 -18.22179047 18.1788835 -15.859375 18.81640625 C-14.93898438 18.90728516 -14.93898438 18.90728516 -14 19 C-14.061875 17.906875 -14.12375 16.81375 -14.1875 15.6875 C-14 12 -14 12 -12.5625 10.25 C-12.046875 9.8375 -11.53125 9.425 -11 9 C-10.67 8.01 -10.34 7.02 -10 6 C-6.7 6 -3.4 6 0 6 C0 4.02 0 2.04 0 0 Z " fill="#2F2F2F" transform="translate(72,38)"/>
<path d="M0 0 C1.00399524 2.62353518 2.00334445 5.24867795 3 7.875 C3.28617188 8.62136719 3.57234375 9.36773437 3.8671875 10.13671875 C6 15.7734375 6 15.7734375 6 18 C2.04 18.33 -1.92 18.66 -6 19 C-6 14.71 -6 10.42 -6 6 C-4.35 5.34 -2.7 4.68 -1 4 C-2.32 4 -3.64 4 -5 4 C-5 3.01 -5 2.02 -5 1 C-3 0 -3 0 0 0 Z " fill="#F5F5F5" transform="translate(49,46)"/>
<path d="M0 0 C0.99 1.32 1.98 2.64 3 4 C3.33 3.34 3.66 2.68 4 2 C7.0625 1.375 7.0625 1.375 10 1 C11.5625 2.8125 11.5625 2.8125 13 5 C12.67 5.99 12.34 6.98 12 8 C11.773125 7.360625 11.54625 6.72125 11.3125 6.0625 C10.15808353 3.7227493 10.15808353 3.7227493 7.41796875 3.37109375 C6.62003906 3.24863281 5.82210938 3.12617187 5 3 C5.44472656 3.97582031 5.88945312 4.95164062 6.34765625 5.95703125 C6.91977851 7.24196157 7.49136533 8.5271304 8.0625 9.8125 C8.35705078 10.45509766 8.65160156 11.09769531 8.95507812 11.75976562 C11.11328125 16.66015625 11.11328125 16.66015625 10 20 C7.9160597 19.88556397 5.83283507 19.75804453 3.75 19.625 C2.58984375 19.55539063 1.4296875 19.48578125 0.234375 19.4140625 C-3 19 -3 19 -7 17 C-3.7 15.02 -0.4 13.04 3 11 C2.2575 9.1128125 2.2575 9.1128125 1.5 7.1875 C0.43891831 4.49058403 0 2.95274099 0 0 Z " fill="#404040" transform="translate(11,62)"/>
<path d="M0 0 C0.3690205 9.41002278 0.3690205 9.41002278 -2 14 C-2.66 13.34 -3.32 12.68 -4 12 C-3.67 11.0925 -3.34 10.185 -3 9.25 C-1.80394277 5.92954193 -1.80394277 5.92954193 -2 2 C-5.75715615 0.12142193 -9.43538086 0.57140796 -13.3671875 1.6484375 C-22.11405312 4.8365474 -28.59872634 10.40474835 -35 17 C-35.66 17.33 -36.32 17.66 -37 18 C-37 17.01 -37 16.02 -37 15 C-37.99 15 -38.98 15 -40 15 C-40 13.35 -40 11.7 -40 10 C-38.72125 10.165 -37.4425 10.33 -36.125 10.5 C-30.38965258 10.53590202 -27.69989898 7.68399538 -23.546875 4.046875 C-16.73696301 -1.42612176 -8.04785254 -4.35489856 0 0 Z " fill="#3C3C3C" transform="translate(117,50)"/>
<path d="M0 0 C1.32 0 2.64 0 4 0 C6.15842059 3.47187808 6.18475863 6.03064174 5.875 10.0625 C5.81054688 11.10535156 5.74609375 12.14820312 5.6796875 13.22265625 C4.85608835 16.58805277 3.80625121 17.14023588 1 19 C0.24984805 21.95691709 0.24984805 21.95691709 1 25 C3.37842577 27.40406384 3.37842577 27.40406384 6 29 C5.01 32.465 5.01 32.465 4 36 C0.04 35.505 0.04 35.505 -4 35 C-2.948125 34.319375 -2.948125 34.319375 -1.875 33.625 C0.28088406 31.22320509 0.28088406 31.22320509 -0.25 28.71875 C-0.67227562 26.96630617 -1.10484378 25.2163153 -1.546875 23.46875 C-2.15153978 20.1743695 -1.30055017 18.03461706 0 15 C0 13.68 0 12.36 0 11 C0.99 11 1.98 11 3 11 C3.33 9.35 3.66 7.7 4 6 C3.34 6 2.68 6 2 6 C0 3 0 3 0 0 Z " fill="#343434" transform="translate(66,55)"/>
<path d="M0 0 C1.875 0.1875 1.875 0.1875 4 1 C5.1875 3.375 5.1875 3.375 6 6 C6.33 6.99 6.66 7.98 7 9 C7.66 9 8.32 9 9 9 C9 10.98 9 12.96 9 15 C7.68 14.67 6.36 14.34 5 14 C5.226875 14.9075 5.45375 15.815 5.6875 16.75 C6 20 6 20 3 24 C2.67 19.38 2.34 14.76 2 10 C0.68 9.67 -0.64 9.34 -2 9 C-2 7.02 -2 5.04 -2 3 C-1.34 3 -0.68 3 0 3 C0 2.01 0 1.02 0 0 Z " fill="#EDEDED" transform="translate(61,52)"/>
<path d="M0 0 C-0.99 0.495 -0.99 0.495 -2 1 C-2 1.66 -2 2.32 -2 3 C-0.35 2.67 1.3 2.34 3 2 C3 4.31 3 6.62 3 9 C-2.37209302 12.05232558 -2.37209302 12.05232558 -5.25 11.8125 C-7 11 -7 11 -9 9 C-9.33015665 5.89652746 -9.50531294 3.84218824 -7.875 1.125 C-5.21965017 -0.4682099 -3.03210482 -0.20214032 0 0 Z " fill="#F9F9F9" transform="translate(75,71)"/>
<path d="M0 0 C3.38420641 0 5.42590712 0.49795015 7.9921875 2.7421875 C11.59410484 6.69127759 11.59410484 6.69127759 13 9 C12.67 9.99 12.34 10.98 12 12 C10.68 11.67 9.36 11.34 8 11 C8.33 13.64 8.66 16.28 9 19 C8.34 19 7.68 19 7 19 C6.5978125 17.329375 6.5978125 17.329375 6.1875 15.625 C5.34190981 11.78159049 5.34190981 11.78159049 2 10 C2 9.34 2 8.68 2 8 C0.68 7.67 -0.64 7.34 -2 7 C-1.01 7 -0.02 7 1 7 C0.67 4.69 0.34 2.38 0 0 Z " fill="#585858" transform="translate(84,67)"/>
<path d="M0 0 C1.875 1.1875 1.875 1.1875 3 3 C3.40186757 6.21494057 3.57455806 8.1381629 1.75 10.875 C0 12 0 12 -4 12 C-4.268125 11.236875 -4.53625 10.47375 -4.8125 9.6875 C-5.79559745 6.98210334 -5.79559745 6.98210334 -7.6875 5.4375 C-8.3371875 4.7259375 -8.3371875 4.7259375 -9 4 C-8.8125 1.875 -8.8125 1.875 -8 0 C-5.06317146 -1.46841427 -3.13175678 -0.76696084 0 0 Z " fill="#FAFAFA" transform="translate(88,77)"/>
<path d="M0 0 C1.89611434 0.14213297 3.79188394 0.28886907 5.6875 0.4375 C6.74324219 0.51871094 7.79898437 0.59992188 8.88671875 0.68359375 C11.65086297 0.96451681 14.28945741 1.40156852 17 2 C17 2.99 17 3.98 17 5 C16.01 5.495 16.01 5.495 15 6 C13.86649466 8.01669827 13.86649466 8.01669827 13 10 C12.34 8.02 11.68 6.04 11 4 C10.67 4 10.34 4 10 4 C9.67 7.63 9.34 11.26 9 15 C7.4005386 11.80107719 6.57404764 9.64537424 5.875 6.25 C5.70742188 5.45078125 5.53984375 4.6515625 5.3671875 3.828125 C5.18542969 2.92320313 5.18542969 2.92320313 5 2 C4.34 2 3.68 2 3 2 C2.67 3.32 2.34 4.64 2 6 C1.34 5.67 0.68 5.34 0 5 C0 3.35 0 1.7 0 0 Z " fill="#070707" transform="translate(14,88)"/>
<path d="M0 0 C0 0.66 0 1.32 0 2 C0.99 1.67 1.98 1.34 3 1 C1.43795274 5.21752761 -1.45134252 7.37399346 -5 10 C-7.375 10.8125 -7.375 10.8125 -9 11 C-9 10.34 -9 9.68 -9 9 C-9.598125 9.165 -10.19625 9.33 -10.8125 9.5 C-13.60998271 10.13942462 -15.40031215 10.29984393 -18 9 C-15.37785672 7.49480613 -12.75255792 5.99568681 -10.125 4.5 C-9.37863281 4.07074219 -8.63226563 3.64148437 -7.86328125 3.19921875 C-7.14785156 2.79316406 -6.43242187 2.38710938 -5.6953125 1.96875 C-5.03547363 1.59169922 -4.37563477 1.21464844 -3.69580078 0.82617188 C-2 0 -2 0 0 0 Z " fill="#9D9D9D" transform="translate(37,45)"/>
<path d="M0 0 C1.65 0 3.3 0 5 0 C5.99 1.98 6.98 3.96 8 6 C7.34 6 6.68 6 6 6 C5.9175 6.721875 5.835 7.44375 5.75 8.1875 C4.84286169 11.58926868 3.39989121 13.45466084 1 16 C0.34 16 -0.32 16 -1 16 C-0.67 10.72 -0.34 5.44 0 0 Z " fill="#F5F3E6" transform="translate(447,99)"/>
<path d="M0 0 C0.66 0 1.32 0 2 0 C2.33 3.96 2.66 7.92 3 12 C2.05125 12.309375 1.1025 12.61875 0.125 12.9375 C-2.86080408 13.87394742 -2.86080408 13.87394742 -5 15 C-5 11.04 -5 7.08 -5 3 C-4.01 3 -3.02 3 -2 3 C-1.34 2.01 -0.68 1.02 0 0 Z " fill="#8E8E8E" transform="translate(96,109)"/>
<path d="M0 0 C1.33333333 0 2.66666667 0 4 0 C4.33 2.97 4.66 5.94 5 9 C5.66 8.34 6.32 7.68 7 7 C7.99 7 8.98 7 10 7 C10 7.66 10 8.32 10 9 C8.06640625 10.7265625 8.06640625 10.7265625 5.5625 12.625 C4.73878906 13.25664063 3.91507812 13.88828125 3.06640625 14.5390625 C1 16 1 16 0 16 C0 10.72 0 5.44 0 0 Z " fill="#4B4B4B" transform="translate(87,114)"/>
<path d="M0 0 C0.66 0 1.32 0 2 0 C2.03738281 0.77085938 2.07476562 1.54171875 2.11328125 2.3359375 C2.21189453 3.84027344 2.21189453 3.84027344 2.3125 5.375 C2.39951172 6.87160156 2.39951172 6.87160156 2.48828125 8.3984375 C2.65714844 9.25695312 2.82601562 10.11546875 3 11 C3.99 11.66 4.98 12.32 6 13 C1.03083364 12.48594831 -3.29026351 11.76615118 -8 10 C-8 9.34 -8 8.68 -8 8 C-7.34 8 -6.68 8 -6 8 C-5.67 7.34 -5.34 6.68 -5 6 C-4.01 6.66 -3.02 7.32 -2 8 C-1.855625 7.236875 -1.71125 6.47375 -1.5625 5.6875 C-1 3 -1 3 0 0 Z " fill="#4B4B4B" transform="translate(38,113)"/>
<path d="M0 0 C3.77450884 -0.35947703 5.84678896 -0.07226936 9.3125 1.5625 C12 4 12 4 12.875 7.75 C12.91625 8.8225 12.9575 9.895 13 11 C11.68 10.34 10.36 9.68 9 9 C9 8.34 9 7.68 9 7 C8.2575 6.71125 7.515 6.4225 6.75 6.125 C4.43260203 5.17697356 2.22082885 4.15154089 0 3 C0 2.01 0 1.02 0 0 Z " fill="#7A7A7A" transform="translate(90,61)"/>
<path d="M0 0 C1.32 1.32 2.64 2.64 4 4 C4.66 3.67 5.32 3.34 6 3 C6.33 4.65 6.66 6.3 7 8 C5.02 8.66 3.04 9.32 1 10 C1.33 11.65 1.66 13.3 2 15 C-0.97 15 -3.94 15 -7 15 C-6.67 14.34 -6.34 13.68 -6 13 C-3.9375 12.375 -3.9375 12.375 -2 12 C-1.73067479 7.34947128 -1.73067479 7.34947128 -3 3 C-2.01 2.01 -1.02 1.02 0 0 Z " fill="#4E4E4E" transform="translate(79,68)"/>
<path d="M0 0 C0.66 0 1.32 0 2 0 C2 2.97 2 5.94 2 9 C2.66 9.33 3.32 9.66 4 10 C1.03 12.475 1.03 12.475 -2 15 C-2.66 14.67 -3.32 14.34 -4 14 C-4 10.7 -4 7.4 -4 4 C-3.34 3.67 -2.68 3.34 -2 3 C-1.67 4.98 -1.34 6.96 -1 9 C-0.67 6.03 -0.34 3.06 0 0 Z " fill="#8D8D8D" transform="translate(104,103)"/>
<path d="M0 0 C0.66 0 1.32 0 2 0 C2.33 0.66 2.66 1.32 3 2 C5.01669827 3.13350534 5.01669827 3.13350534 7 4 C6.49396008 6.16874252 6.00016187 7.99967627 5 10 C1.9375 10.625 1.9375 10.625 -1 11 C-1.185625 10.071875 -1.185625 10.071875 -1.375 9.125 C-1.87197356 6.80879168 -1.87197356 6.80879168 -4 5 C-2.68 4.67 -1.36 4.34 0 4 C0 2.68 0 1.36 0 0 Z " fill="#F2F2F2" transform="translate(51,75)"/>
<path d="M0 0 C1.8125 1.375 1.8125 1.375 2.5625 4 C2.68625 5.175625 2.68625 5.175625 2.8125 6.375 C2.420625 5.735625 2.02875 5.09625 1.625 4.4375 C-0.59320649 1.913334 -1.95180479 1.878095 -5.1875 1.375 C-4.74277344 2.35082031 -4.29804688 3.32664062 -3.83984375 4.33203125 C-3.26772149 5.61696157 -2.69613467 6.9021304 -2.125 8.1875 C-1.68317383 9.15139648 -1.68317383 9.15139648 -1.23242188 10.13476562 C0.92578125 15.03515625 0.92578125 15.03515625 -0.1875 18.375 C-3.30749182 16.81500409 -3.63866846 14.24720503 -4.875 11.0625 C-5.33261719 9.91136719 -5.79023438 8.76023437 -6.26171875 7.57421875 C-7.14780566 4.51217158 -7.364186 3.26322927 -6.1875 0.375 C-3.77466168 -0.48672797 -2.49284286 -0.71224082 0 0 Z " fill="#939393" transform="translate(21.1875,63.625)"/>
<path d="M0 0 C0.99 0.33 1.98 0.66 3 1 C3 3.97 3 6.94 3 10 C1.02 10.66 -0.96 11.32 -3 12 C-3 9.03 -3 6.06 -3 3 C-2.34 3 -1.68 3 -1 3 C-0.67 2.01 -0.34 1.02 0 0 Z " fill="#767676" transform="translate(107,85)"/>
<path d="M0 0 C-0.33 5.94 -0.66 11.88 -1 18 C-1.66 18 -2.32 18 -3 18 C-4.20626271 13.325732 -4.08900525 8.78650463 -4 4 C-4 3.67 -4 3.34 -4 3 C-4.66 3 -5.32 3 -6 3 C-6 2.34 -6 1.68 -6 1 C-3 0 -3 0 0 0 Z " fill="#F1F1F1" transform="translate(76,51)"/>
<path d="M0 0 C4.875 1.75 4.875 1.75 6 4 C6.04022391 6.3329866 6.04320247 8.66706666 6 11 C5.401875 10.67 4.80375 10.34 4.1875 10 C1.94613529 8.79212012 1.94613529 8.79212012 -1 9 C-1.09765625 2.84765625 -1.09765625 2.84765625 -1 1 C-0.67 0.67 -0.34 0.34 0 0 Z " fill="#8C8C8C" transform="translate(30,110)"/>
<path d="M0 0 C2.49361571 1.20381448 4.68143083 2.45428722 7 4 C6.34 6.31 5.68 8.62 5 11 C2.36 10.67 -0.28 10.34 -3 10 C-2.319375 9.46375 -1.63875 8.9275 -0.9375 8.375 C1.38259327 6.08837848 1.38259327 6.08837848 0.75 2.75 C0.5025 1.8425 0.255 0.935 0 0 Z " fill="#636363" transform="translate(65,80)"/>
<path d="M0 0 C0.33 0 0.66 0 1 0 C1 2.97 1 5.94 1 9 C0.67 8.34 0.34 7.68 0 7 C-1.65 7.33 -3.3 7.66 -5 8 C-5.33 9.32 -5.66 10.64 -6 12 C-6.598125 11.773125 -7.19625 11.54625 -7.8125 11.3125 C-8.534375 11.209375 -9.25625 11.10625 -10 11 C-11.77190909 12.35444301 -11.77190909 12.35444301 -13 14 C-13 10.17745143 -12.60078552 8.83026659 -10 6 C-6.63115091 5.55516002 -3.37889673 5.71472729 0 6 C0 4.02 0 2.04 0 0 Z " fill="#616161" transform="translate(72,38)"/>
<path d="M0 0 C2 1 2 1 3 3 C2.01 3 1.02 3 0 3 C-0.33 3.66 -0.66 4.32 -1 5 C-2.62490124 6.766197 -3.84203813 7.92101907 -6 9 C-5.67 10.32 -5.34 11.64 -5 13 C-5.99 13.66 -6.98 14.32 -8 15 C-8.66 13.35 -9.32 11.7 -10 10 C-7.02911382 6.00073014 -3.87051275 3.07881696 0 0 Z " fill="#E3E3E3" transform="translate(90,58)"/>
<path d="M0 0 C0.66 2.31 1.32 4.62 2 7 C-1.465 8.485 -1.465 8.485 -5 10 C-5.33 8.68 -5.66 7.36 -6 6 C-4.35 5.34 -2.7 4.68 -1 4 C-2.32 4 -3.64 4 -5 4 C-5 3.01 -5 2.02 -5 1 C-3 0 -3 0 0 0 Z " fill="#D0D0D0" transform="translate(49,46)"/>
<path d="M0 0 C0.33 0 0.66 0 1 0 C1.83930594 9.02253886 2.12224626 17.9401941 2 27 C1.34 27 0.68 27 0 27 C-0.95784079 20.86981894 -0.97547621 15.18040266 -0.5625 9 C-0.51029297 8.12988281 -0.45808594 7.25976562 -0.40429688 6.36328125 C-0.27607439 4.24178191 -0.1389652 2.12082275 0 0 Z " fill="#D0F1FC" transform="translate(485,91)"/>
<path d="M0 0 C1.67542976 0.28604898 3.34385343 0.61781233 5 1 C5.1875 3.375 5.1875 3.375 5 6 C2 8 2 8 -1 8 C-1.04241723 5.66705225 -1.04092937 3.33297433 -1 1 C-0.67 0.67 -0.34 0.34 0 0 Z " fill="#ECF6F1" transform="translate(154,98)"/>
<path d="M0 0 C-0.75 4.75 -0.75 4.75 -3 7 C-4.32 7 -5.64 7 -7 7 C-7 5.02 -7 3.04 -7 1 C-4.53721199 -0.231394 -2.7204945 -0.07159196 0 0 Z " fill="#D9E7E3" transform="translate(207,98)"/>
<path d="M0 0 C1.74271938 2.297221 3.39911152 4.59866729 5 7 C5.33 5.35 5.66 3.7 6 2 C9.00617269 5.00617269 8.59585316 7.82381598 9 12 C6.75 12 6.75 12 4 11 C1.56204629 7.52611069 0 4.26177936 0 0 Z " fill="#898989" transform="translate(25,72)"/>
<path d="M0 0 C3.63 0.66 7.26 1.32 11 2 C7.47844036 4.34770643 5.49228157 4.37669614 1.3125 4.625 C0.13300781 4.69976562 -1.04648437 4.77453125 -2.26171875 4.8515625 C-3.61716797 4.92503906 -3.61716797 4.92503906 -5 5 C-5 4.01 -5 3.02 -5 2 C-3.35 2 -1.7 2 0 2 C0 1.34 0 0.68 0 0 Z " fill="#A1A1A1" transform="translate(48,64)"/>
<path d="M0 0 C3.88375805 0.57537156 6.17781201 2.33036271 9 5 C9.8125 7.25 9.8125 7.25 10 9 C6.60807637 8.40716379 4.7892243 7.23256811 2.25 4.9375 C1.63640625 4.38964844 1.0228125 3.84179688 0.390625 3.27734375 C-0.06828125 2.85582031 -0.5271875 2.43429688 -1 2 C-0.67 1.34 -0.34 0.68 0 0 Z " fill="#757575" transform="translate(100,54)"/>
<path d="M0 0 C0.66 0 1.32 0 2 0 C2.054348 2.0622048 2.09294961 4.12482816 2.125 6.1875 C2.14820312 7.33605469 2.17140625 8.48460938 2.1953125 9.66796875 C2.00484152 12.91740372 1.39360127 15.08660521 0 18 C-0.66 18 -1.32 18 -2 18 C-2 14.7 -2 11.4 -2 8 C-1.34 8 -0.68 8 0 8 C0 5.36 0 2.72 0 0 Z " fill="#767676" transform="translate(114,74)"/>
<path d="M0 0 C3.00631739 1.71118512 5.64767696 3.44649143 8 6 C8.68820402 9.11209905 8.50115655 11.86777159 8 15 C7.34 15 6.68 15 6 15 C5.5978125 13.329375 5.5978125 13.329375 5.1875 11.625 C4.34190981 7.78159049 4.34190981 7.78159049 1 6 C1 5.34 1 4.68 1 4 C-0.32 3.67 -1.64 3.34 -3 3 C-2.01 3 -1.02 3 0 3 C0 2.01 0 1.02 0 0 Z " fill="#B4B4B4" transform="translate(85,71)"/>
<path d="M0 0 C1.9375 1.5 1.9375 1.5 2.6875 5.125 C2.81125 6.795625 2.81125 6.795625 2.9375 8.5 C0.9375 6.5 0.9375 6.5 -0.0625 3.5 C-2.2089753 3.61344376 -4.35470592 3.74106345 -6.5 3.875 C-8.29244141 3.97941406 -8.29244141 3.97941406 -10.12109375 4.0859375 C-11.09175781 4.22257812 -12.06242188 4.35921875 -13.0625 4.5 C-13.3925 5.16 -13.7225 5.82 -14.0625 6.5 C-13.7325 5.18 -13.4025 3.86 -13.0625 2.5 C-12.43601562 2.36722656 -11.80953125 2.23445313 -11.1640625 2.09765625 C-10.34679687 1.92105469 -9.52953125 1.74445312 -8.6875 1.5625 C-7.87539063 1.38847656 -7.06328125 1.21445312 -6.2265625 1.03515625 C-1.03044371 -0.24980453 -1.03044371 -0.24980453 0 0 Z " fill="#565656" transform="translate(24.0625,55.5)"/>
<path d="M0 0 C0.66 0 1.32 0 2 0 C2 4.95 2 9.9 2 15 C1.34 15 0.68 15 0 15 C0.33 13.68 0.66 12.36 1 11 C0.01 10.67 -0.98 10.34 -2 10 C-1.85950482 8.52031676 -1.71245174 7.04125484 -1.5625 5.5625 C-1.48128906 4.73878906 -1.40007812 3.91507812 -1.31640625 3.06640625 C-1 1 -1 1 0 0 Z " fill="#212B3F" transform="translate(411,106)"/>
<path d="M0 0 C0.66 0 1.32 0 2 0 C4.3992233 4.64849515 4.19957409 8.91086074 4 14 C3.34 14 2.68 14 2 14 C0.66416101 9.15758367 -0.25328119 5.06562383 0 0 Z " fill="#DADADA" transform="translate(17,90)"/>
<path d="M0 0 C0.1875 2.375 0.1875 2.375 0 5 C-3 7 -3 7 -6 7 C-6 5.02 -6 3.04 -6 1 C-4 0 -4 0 0 0 Z " fill="#F1F5EC" transform="translate(394,98)"/>
<path d="M0 0 C1.32 0.33 2.64 0.66 4 1 C3.01 2.485 3.01 2.485 2 4 C1.01 4 0.02 4 -1 4 C-1 4.66 -1 5.32 -1 6 C0.65 5.67 2.3 5.34 4 5 C3.34 5.66 2.68 6.32 2 7 C1.29289322 8.64991582 0.62056011 10.31562256 0 12 C-0.33 12 -0.66 12 -1 12 C-1 10.35 -1 8.7 -1 7 C-2.32 6.67 -3.64 6.34 -5 6 C-4.01 6 -3.02 6 -2 6 C-1.7834375 5.071875 -1.7834375 5.071875 -1.5625 4.125 C-1 2 -1 2 0 0 Z " fill="#898989" transform="translate(71,48)"/>
<path d="M0 0 C0.33 0 0.66 0 1 0 C1.33 4.95 1.66 9.9 2 15 C1.01 15.33 0.02 15.66 -1 16 C-1.02685095 13.52076199 -1.04676547 11.0418116 -1.0625 8.5625 C-1.07506836 7.50192383 -1.07506836 7.50192383 -1.08789062 6.41992188 C-1.09653588 4.61306441 -1.05220011 2.80612397 -1 1 C-0.67 0.67 -0.34 0.34 0 0 Z " fill="#060606" transform="translate(85,116)"/>
<path d="M0 0 C0.66 0.33 1.32 0.66 2 1 C2.6328125 3.06640625 2.6328125 3.06640625 3.125 5.5625 C3.29257813 6.38878906 3.46015625 7.21507813 3.6328125 8.06640625 C3.75398438 8.70449219 3.87515625 9.34257813 4 10 C3.01 10.66 2.02 11.32 1 12 C0.01 11.67 -0.98 11.34 -2 11 C-1.835 10.46375 -1.67 9.9275 -1.5 9.375 C-0.89055693 6.88465559 -0.89055693 6.88465559 -1 3.8125 C-1 1 -1 1 0 0 Z " fill="#F0F0F0" transform="translate(63,77)"/>
<path d="M0 0 C0.99 0.495 0.99 0.495 2 1 C2 2.65 2 4.3 2 6 C2.66 6 3.32 6 4 6 C4 4.02 4 2.04 4 0 C4.33 0 4.66 0 5 0 C5.33 3.3 5.66 6.6 6 10 C4.68 10.33 3.36 10.66 2 11 C2 10.34 2 9.68 2 9 C1.34 8.67 0.68 8.34 0 8 C0 5.36 0 2.72 0 0 Z " fill="#ADADAD" transform="translate(71,63)"/>
<path d="M0 0 C2 1 2 1 2.625 2.5625 C3.16368951 6.06398181 3.05903219 9.45806833 3 13 C2.34 13 1.68 13 1 13 C0.63447197 11.58622218 0.28304505 10.16879424 -0.0625 8.75 C-0.25972656 7.96109375 -0.45695312 7.1721875 -0.66015625 6.359375 C-1.01497267 3.89605178 -0.76877544 2.34395868 0 0 Z " fill="#C5C5C5" transform="translate(24,91)"/>
<path d="M0 0 C2 2 2 2 2.1953125 4.3828125 C2.17210937 5.28773437 2.14890625 6.19265625 2.125 7.125 C2.10695312 8.03507812 2.08890625 8.94515625 2.0703125 9.8828125 C2.03550781 10.93082031 2.03550781 10.93082031 2 12 C1.01 12.495 1.01 12.495 0 13 C-1.25069801 10.49860398 -1.13302467 8.72607309 -1.125 5.9375 C-1.12757812 5.03902344 -1.13015625 4.14054687 -1.1328125 3.21484375 C-1 1 -1 1 0 0 Z " fill="#C5C5C5" transform="translate(58,98)"/>
<path d="M0 0 C2.64 0.33 5.28 0.66 8 1 C8.33 1.99 8.66 2.98 9 4 C8.01 4 7.02 4 6 4 C6 6.97 6 9.94 6 13 C5.67 13 5.34 13 5 13 C4.9175 11.948125 4.835 10.89625 4.75 9.8125 C3.94359023 5.71325034 2.76623666 4.03393698 0 1 C0 0.67 0 0.34 0 0 Z " fill="#0F0F0F" transform="translate(72,99)"/>
<path d="M0 0 C2.64 0.66 5.28 1.32 8 2 C6.02 4.97 6.02 4.97 4 8 C3.67 7.01 3.34 6.02 3 5 C2.01 5 1.02 5 0 5 C0 3.35 0 1.7 0 0 Z " fill="#131313" transform="translate(77,60)"/>
<path d="M0 0 C0 2.97 0 5.94 0 9 C-1.32 9.33 -2.64 9.66 -4 10 C-3.67 9.34 -3.34 8.68 -3 8 C-2.34 8 -1.68 8 -1 8 C-1.33 7.01 -1.66 6.02 -2 5 C-3.65 5.66 -5.3 6.32 -7 7 C-3.72340426 0 -3.72340426 0 0 0 Z " fill="#B6B6B6" transform="translate(39,51)"/>
<path d="M0 0 C0.66 0.33 1.32 0.66 2 1 C2 4.63 2 8.26 2 12 C1.34 12 0.68 12 0 12 C-1.1898306 9.6203388 -1.13349966 8.08514265 -1.125 5.4375 C-1.12886719 4.22900391 -1.12886719 4.22900391 -1.1328125 2.99609375 C-1 1 -1 1 0 0 Z " fill="#BABABA" transform="translate(47,96)"/>
<path d="M0 0 C0.66 0 1.32 0 2 0 C1.67 5.61 1.34 11.22 1 17 C-1.03404654 12.93190692 -1.24655953 11.22048871 -1.1875 6.8125 C-1.18105469 5.74644531 -1.17460937 4.68039063 -1.16796875 3.58203125 C-1 1 -1 1 0 0 Z " fill="#90845F" transform="translate(406,92)"/>
<path d="M0 0 C2 1 2 1 3.125 4.25 C3.85463482 7.37700635 4.19234975 9.82622905 4 13 C3.34 13 2.68 13 2 13 C0.24252386 8.49646738 -0.19294408 4.82360189 0 0 Z " fill="#D6D6D6" transform="translate(12,89)"/>
<path d="M0 0 C0.99 0 1.98 0 3 0 C3 3.96 3 7.92 3 12 C0.71046511 9.71046511 0.47586642 8.54484795 -0.1875 5.4375 C-0.36667969 4.63183594 -0.54585937 3.82617188 -0.73046875 2.99609375 C-0.81941406 2.33738281 -0.90835938 1.67867188 -1 1 C-0.67 0.67 -0.34 0.34 0 0 Z " fill="#EFEFEF" transform="translate(36,71)"/>
<path d="M0 0 C0.99 0.33 1.98 0.66 3 1 C3 3.97 3 6.94 3 10 C2.01 10 1.02 10 0 10 C0 6.7 0 3.4 0 0 Z " fill="#B6B6B6" transform="translate(68,117)"/>
<path d="M0 0 C0.99 0 1.98 0 3 0 C3 3.3 3 6.6 3 10 C2.01 10 1.02 10 0 10 C0 6.7 0 3.4 0 0 Z " fill="#BDBDBD" transform="translate(78,103)"/>
<path d="M0 0 C0.66 0 1.32 0 2 0 C3.3271261 3.9813783 3.06915913 7.85045227 3 12 C2.34 12 1.68 12 1 12 C0.03929566 9.11788698 -0.10581883 7.30149956 -0.0625 4.3125 C-0.05347656 3.50425781 -0.04445313 2.69601563 -0.03515625 1.86328125 C-0.02355469 1.24839844 -0.01195313 0.63351563 0 0 Z " fill="#D4D4D4" transform="translate(29,93)"/>
<path d="M0 0 C0.99 0.33 1.98 0.66 3 1 C3.25 7.625 3.25 7.625 1 11 C0 10 0 10 -0.09765625 7.71484375 C-0.08605469 6.79832031 -0.07445312 5.88179688 -0.0625 4.9375 C-0.05347656 4.01839844 -0.04445312 3.09929687 -0.03515625 2.15234375 C-0.02355469 1.44207031 -0.01195312 0.73179688 0 0 Z " fill="#BABABA" transform="translate(48,114)"/>
<path d="M0 0 C0.66 0 1.32 0 2 0 C2.33 0.66 2.66 1.32 3 2 C5.01669827 3.13350534 5.01669827 3.13350534 7 4 C5.02 4.33 3.04 4.66 1 5 C1 6.98 1 8.96 1 11 C0.34 11 -0.32 11 -1 11 C-1.185625 10.071875 -1.185625 10.071875 -1.375 9.125 C-1.87197356 6.80879168 -1.87197356 6.80879168 -4 5 C-2.68 4.67 -1.36 4.34 0 4 C0 2.68 0 1.36 0 0 Z " fill="#B6B6B6" transform="translate(51,75)"/>
<path d="M0 0 C1.32 0.33 2.64 0.66 4 1 C4 1.66 4 2.32 4 3 C4.99 2.67 5.98 2.34 7 2 C7 2.99 7 3.98 7 5 C4.69 5 2.38 5 0 5 C0 3.35 0 1.7 0 0 Z " fill="#010409" transform="translate(182,118)"/>
<path d="M0 0 C1.32 0.33 2.64 0.66 4 1 C4 1.66 4 2.32 4 3 C4.99 2.67 5.98 2.34 7 2 C7 2.99 7 3.98 7 5 C4.69 5 2.38 5 0 5 C0 3.35 0 1.7 0 0 Z " fill="#010409" transform="translate(135,118)"/>
<path d="M0 0 C0.33 1.32 0.66 2.64 1 4 C-1.31 5.32 -3.62 6.64 -6 8 C-6.33 7.01 -6.66 6.02 -7 5 C-4.69 3.35 -2.38 1.7 0 0 Z " fill="#F7F7F7" transform="translate(37,55)"/>
<path d="M0 0 C6.625 -0.25 6.625 -0.25 10 2 C7.69 1.67 5.38 1.34 3 1 C3 1.99 3 2.98 3 4 C2.34 4 1.68 4 1 4 C1 4.99 1 5.98 1 7 C-0.32 6.67 -1.64 6.34 -3 6 C-2.01 6 -1.02 6 0 6 C0 4.02 0 2.04 0 0 Z " fill="#363636" transform="translate(58,51)"/>
<path d="M0 0 C0.66 0.33 1.32 0.66 2 1 C1.25 2.9375 1.25 2.9375 0 5 C-2.49470772 5.96569331 -4.29745539 6 -7 6 C-7.66 5.67 -8.32 5.34 -9 5 C-7.54735962 4.1361871 -6.0876837 3.28419546 -4.625 2.4375 C-3.40683594 1.72400391 -3.40683594 1.72400391 -2.1640625 0.99609375 C-1.44992188 0.66738281 -0.73578125 0.33867188 0 0 Z " fill="#757575" transform="translate(28,49)"/>
<path d="M0 0 C4.43458973 1.3937282 6.87378374 3.60582235 10 7 C9.67 7.66 9.34 8.32 9 9 C7.68412059 7.87895467 6.37239647 6.75303035 5.0625 5.625 C4.33160156 4.99851562 3.60070312 4.37203125 2.84765625 3.7265625 C1 2 1 2 0 0 Z " fill="#EDEDED" transform="translate(85,68)"/>
<path d="M0 0 C0.33 0 0.66 0 1 0 C1.33 3.3 1.66 6.6 2 10 C1.01 10.33 0.02 10.66 -1 11 C-1.02688151 9.35425434 -1.04634123 7.70838587 -1.0625 6.0625 C-1.07410156 5.14597656 -1.08570312 4.22945313 -1.09765625 3.28515625 C-1 1 -1 1 0 0 Z " fill="#111111" transform="translate(99,109)"/>
<path d="M0 0 C1.68496298 0.96885372 3.35178756 1.96986723 5 3 C5 3.33 5 3.66 5 4 C1.04 4 -2.92 4 -7 4 C-7 3.34 -7 2.68 -7 2 C-5.02 2 -3.04 2 -1 2 C-0.67 1.34 -0.34 0.68 0 0 Z " fill="#010001" transform="translate(278,118)"/>
<path d="M0 0 C0.33 0 0.66 0 1 0 C1.33 3.63 1.66 7.26 2 11 C1.01 11 0.02 11 -1 11 C-1.0270043 9.54176788 -1.04639787 8.08339325 -1.0625 6.625 C-1.07410156 5.81289062 -1.08570312 5.00078125 -1.09765625 4.1640625 C-1 2 -1 2 0 0 Z " fill="#0D0D0D" transform="translate(107,101)"/>
<path d="M0 0 C0.66 0 1.32 0 2 0 C2.33 2.64 2.66 5.28 3 8 C2.01 8.33 1.02 8.66 0 9 C0 6.03 0 3.06 0 0 Z " fill="#858585" transform="translate(111,98)"/>
<path d="M0 0 C0.99 0.495 0.99 0.495 2 1 C2.4140625 3.06640625 2.4140625 3.06640625 2.625 5.5625 C2.69976563 6.38878906 2.77453125 7.21507813 2.8515625 8.06640625 C2.92503906 9.02353516 2.92503906 9.02353516 3 10 C2.34 10 1.68 10 1 10 C0.67 6.7 0.34 3.4 0 0 Z " fill="#C0C0C0" transform="translate(20,109)"/>
<path d="M0 0 C1.2065625 0.0309375 1.2065625 0.0309375 2.4375 0.0625 C2.4375 1.0525 2.4375 2.0425 2.4375 3.0625 C1.4475 3.3925 0.4575 3.7225 -0.5625 4.0625 C-1.2225 4.7225 -1.8825 5.3825 -2.5625 6.0625 C-2.94468767 4.40635343 -3.27645102 2.73792976 -3.5625 1.0625 C-2.5625 0.0625 -2.5625 0.0625 0 0 Z " fill="#8C8C8C" transform="translate(36.5625,67.9375)"/>
<path d="M0 0 C2.64 0 5.28 0 8 0 C8 0.99 8 1.98 8 3 C6.35 3.33 4.7 3.66 3 4 C3 3.01 3 2.02 3 1 C2.01 0.67 1.02 0.34 0 0 Z " fill="#D9D9D9" transform="translate(64,45)"/>
<path d="M0 0 C0.928125 0.2784375 0.928125 0.2784375 1.875 0.5625 C4.04160178 1.23686176 4.04160178 1.23686176 6 0 C6 0.99 6 1.98 6 3 C4.02 3.33 2.04 3.66 0 4 C0 2.68 0 1.36 0 0 Z " fill="#7B7B7B" transform="translate(79,71)"/>
<path d="M0 0 C1.32 0 2.64 0 4 0 C3.67 1.65 3.34 3.3 3 5 C2.01 5.33 1.02 5.66 0 6 C0 4.02 0 2.04 0 0 Z " fill="#7F7F7F" transform="translate(76,65)"/>
<path d="M0 0 C-6.625 4 -6.625 4 -10 4 C-10 3.34 -10 2.68 -10 2 C-8.71211992 1.46987262 -7.41953322 0.9511671 -6.125 0.4375 C-5.40570312 0.14746094 -4.68640625 -0.14257812 -3.9453125 -0.44140625 C-2 -1 -2 -1 0 0 Z " fill="#C0C0C0" transform="translate(25,54)"/>
<path d="M0 0 C0.45375 0.474375 0.9075 0.94875 1.375 1.4375 C2.93258204 3.09027808 2.93258204 3.09027808 5 4 C1.535 5.485 1.535 5.485 -2 7 C-1.34 4.69 -0.68 2.38 0 0 Z " fill="#3B2219" transform="translate(453,105)"/>
<path d="M0 0 C-0.99 0.33 -1.98 0.66 -3 1 C-4.20882096 3.00016466 -4.20882096 3.00016466 -5 5 C-5.66 4.67 -6.32 4.34 -7 4 C-6.625 2.0625 -6.625 2.0625 -6 0 C-3.50907189 -1.24546405 -2.58919267 -0.7767578 0 0 Z " fill="#DDDDDD" transform="translate(86,77)"/>
<path d="M0 0 C1.32 0 2.64 0 4 0 C4 1.65 4 3.3 4 5 C2.68 4.34 1.36 3.68 0 3 C0 2.01 0 1.02 0 0 Z " fill="#111111" transform="translate(66,55)"/>
<path d="M0 0 C0.66 0.33 1.32 0.66 2 1 C0.7260411 3.03833424 -0.61061923 5.03852126 -2 7 C-2.66 7 -3.32 7 -4 7 C-3.6875 4.625 -3.6875 4.625 -3 2 C-2.01 1.34 -1.02 0.68 0 0 Z " fill="#202020" transform="translate(53,36)"/>
</svg>
