<?xml version="1.0" encoding="UTF-8"?>
<svg version="1.1" xmlns="http://www.w3.org/2000/svg" width="510" height="101">
<path d="M0 0 C168.3 0 336.6 0 510 0 C510 33.33 510 66.66 510 101 C341.7 101 173.4 101 0 101 C0 67.67 0 34.34 0 0 Z " fill="#FCFCFC" transform="translate(0,0)"/>
<path d="M0 0 C6.72 0.72 6.72 0.72 8 2 C8.08855161 4.6662603 8.11524673 7.30647114 8.09765625 9.97265625 C8.0962413 10.77029892 8.09482635 11.56794159 8.09336853 12.38975525 C8.08775316 14.94737435 8.07519812 17.50490718 8.0625 20.0625 C8.05748698 21.79231645 8.05292373 23.52213426 8.04882812 25.25195312 C8.03777875 29.50133553 8.02050386 33.75065312 8 38 C5.03 38 2.06 38 -1 38 C-1.495 33.05 -1.495 33.05 -2 28 C-3.98 31.465 -3.98 31.465 -6 35 C-7.65 34.67 -9.3 34.34 -11 34 C-11.66 31.69 -12.32 29.38 -13 27 C-13.33 30.63 -13.66 34.26 -14 38 C-16.97 38 -19.94 38 -23 38 C-23.10419795 25.94777093 -23.03346871 14.01407381 -22 2 C-18.7 2 -15.4 2 -12 2 C-11.28385417 4.21354167 -10.56770833 6.42708333 -9.8515625 8.640625 C-9.04826333 10.86627958 -8.10288338 12.90931672 -7 15 C-6.57847656 14.00097656 -6.15695313 13.00195312 -5.72265625 11.97265625 C-5.16939783 10.66921692 -4.61600549 9.36583443 -4.0625 8.0625 C-3.78470703 7.40314453 -3.50691406 6.74378906 -3.22070312 6.06445312 C-1.11328125 1.11328125 -1.11328125 1.11328125 0 0 Z " fill="#060606" transform="translate(178,33)"/>
<path d="M0 0 C4.845 3.8475 4.845 3.8475 6.125 7.6875 C7.1227931 16.45499347 5.26982635 24.71508777 -0.25 31.6875 C-5.14756731 35.41897985 -8.41336837 36.8483353 -14.5859375 36.76171875 C-16.0716626 36.74564575 -16.0716626 36.74564575 -17.58740234 36.72924805 C-18.34230957 36.71547119 -19.0972168 36.70169434 -19.875 36.6875 C-20.08138953 13.10511516 -20.08138953 13.10511516 -18.875 1.6875 C-12.63091362 -1.50096964 -6.63058474 -3.02700608 0 0 Z " fill="#0A0A0A" transform="translate(407.875,34.3125)"/>
<path d="M0 0 C7.25440806 -0.4836272 7.25440806 -0.4836272 10.3125 1.5 C12.57694423 4.85473219 13.71991314 8.15973942 15 12 C15.33 8.04 15.66 4.08 16 0 C18.97 0 21.94 0 25 0 C24.95456055 0.98057373 24.95456055 0.98057373 24.90820312 1.98095703 C24.08426641 19.98279428 24.08426641 19.98279428 24 38 C21.03 38 18.06 38 15 38 C14.2066145 35.95900065 13.4153697 33.9171691 12.625 31.875 C12.18414062 30.73804687 11.74328125 29.60109375 11.2890625 28.4296875 C10.11785816 25.31357414 9.05270518 22.15811555 8 19 C7.67 25.27 7.34 31.54 7 38 C4.03 38 1.06 38 -2 38 C-2.25451689 8.05184603 -2.25451689 8.05184603 0 0 Z " fill="#080808" transform="translate(418,33)"/>
<path d="M0 0 C7.25440806 -0.4836272 7.25440806 -0.4836272 10.3125 1.5 C12.57694423 4.85473219 13.71991314 8.15973942 15 12 C15.33 8.04 15.66 4.08 16 0 C18.97 0 21.94 0 25 0 C24.95456055 0.98057373 24.95456055 0.98057373 24.90820312 1.98095703 C24.08426641 19.98279428 24.08426641 19.98279428 24 38 C21.03 38 18.06 38 15 38 C14.2066145 35.95900065 13.4153697 33.9171691 12.625 31.875 C12.18414062 30.73804687 11.74328125 29.60109375 11.2890625 28.4296875 C10.11785816 25.31357414 9.05270518 22.15811555 8 19 C7.67 25.27 7.34 31.54 7 38 C4.03 38 1.06 38 -2 38 C-2.25451689 8.05184603 -2.25451689 8.05184603 0 0 Z " fill="#080808" transform="translate(219,33)"/>
<path d="M0 0 C0.81597656 -0.02900391 1.63195312 -0.05800781 2.47265625 -0.08789062 C6.24202585 -0.12785947 8.44874919 -0.12654283 11.6640625 1.9609375 C14.41040493 6.38152077 13.85546545 11.30260961 13.125 16.3125 C11 19.1875 11 19.1875 9.125 21.3125 C9.66141935 24.34062283 9.66141935 24.34062283 11.125 27.3125 C11.79166667 29.3125 12.45833333 31.3125 13.125 33.3125 C7.375 37.3125 7.375 37.3125 5.125 37.3125 C4.72667969 36.53003906 4.32835937 35.74757812 3.91796875 34.94140625 C3.38816406 33.92949219 2.85835938 32.91757813 2.3125 31.875 C1.52939453 30.36099609 1.52939453 30.36099609 0.73046875 28.81640625 C-0.68918484 26.02558782 -0.68918484 26.02558782 -3.875 25.3125 C-3.86339844 26.09496094 -3.85179687 26.87742187 -3.83984375 27.68359375 C-3.83082031 28.69550781 -3.82179688 29.70742188 -3.8125 30.75 C-3.80089844 31.75933594 -3.78929687 32.76867187 -3.77734375 33.80859375 C-3.875 36.3125 -3.875 36.3125 -4.875 37.3125 C-7.54558851 37.45365161 -10.19932238 37.35497107 -12.875 37.3125 C-13.00287885 29.22771475 -12.63521885 21.24624658 -12 13.1875 C-11.92136719 12.053125 -11.84273438 10.91875 -11.76171875 9.75 C-11.67792969 8.67492187 -11.59414063 7.59984375 -11.5078125 6.4921875 C-11.43449707 5.52007324 -11.36118164 4.54795898 -11.28564453 3.54638672 C-11.08237549 2.44061279 -11.08237549 2.44061279 -10.875 1.3125 C-7.49341559 -0.3782922 -3.71552188 0.04360941 0 0 Z " fill="#0B0B0B" transform="translate(330.875,33.6875)"/>
<path d="M0 0 C0.81597656 -0.02900391 1.63195312 -0.05800781 2.47265625 -0.08789062 C6.24202585 -0.12785947 8.44874919 -0.12654283 11.6640625 1.9609375 C14.41040493 6.38152077 13.85546545 11.30260961 13.125 16.3125 C11 19.1875 11 19.1875 9.125 21.3125 C9.66141935 24.34062283 9.66141935 24.34062283 11.125 27.3125 C11.79166667 29.3125 12.45833333 31.3125 13.125 33.3125 C7.375 37.3125 7.375 37.3125 5.125 37.3125 C4.72667969 36.53003906 4.32835938 35.74757812 3.91796875 34.94140625 C3.38816406 33.92949219 2.85835937 32.91757813 2.3125 31.875 C1.52939453 30.36099609 1.52939453 30.36099609 0.73046875 28.81640625 C-0.68918484 26.02558782 -0.68918484 26.02558782 -3.875 25.3125 C-3.86339844 26.09496094 -3.85179688 26.87742187 -3.83984375 27.68359375 C-3.83082031 28.69550781 -3.82179688 29.70742188 -3.8125 30.75 C-3.80089844 31.75933594 -3.78929688 32.76867187 -3.77734375 33.80859375 C-3.875 36.3125 -3.875 36.3125 -4.875 37.3125 C-7.54558851 37.45365161 -10.19932238 37.35497107 -12.875 37.3125 C-13.00287885 29.22771475 -12.63521885 21.24624658 -12 13.1875 C-11.92136719 12.053125 -11.84273438 10.91875 -11.76171875 9.75 C-11.67792969 8.67492187 -11.59414062 7.59984375 -11.5078125 6.4921875 C-11.43449707 5.52007324 -11.36118164 4.54795898 -11.28564453 3.54638672 C-11.08237549 2.44061279 -11.08237549 2.44061279 -10.875 1.3125 C-7.49341559 -0.3782922 -3.71552188 0.04360941 0 0 Z " fill="#0B0B0B" transform="translate(108.875,33.6875)"/>
<path d="M0 0 C4.24629886 2.78205787 5.08036975 8.07164268 6.0703125 12.765625 C6.4272673 14.59270477 6.77867219 16.4208761 7.125 18.25 C7.30675781 19.15363281 7.48851563 20.05726562 7.67578125 20.98828125 C8.78086596 26.76297204 9.17994436 32.1218177 9 38 C5.7 38 2.4 38 -1 38 C-1 35.36 -1 32.72 -1 30 C-3.97 30.66 -6.94 31.32 -10 32 C-9.979375 32.804375 -9.95875 33.60875 -9.9375 34.4375 C-10 37 -10 37 -11 38 C-12.68608966 38.07205511 -14.37500659 38.08386068 -16.0625 38.0625 C-16.98160156 38.05347656 -17.90070313 38.04445312 -18.84765625 38.03515625 C-19.55792969 38.02355469 -20.26820312 38.01195312 -21 38 C-19.16623153 25.38051805 -14.88704101 12.32521673 -9 1 C-5.95016004 -0.52491998 -3.3576631 -0.23562548 0 0 Z " fill="#0B0B0B" transform="translate(84,33)"/>
<path d="M0 0 C5.04758053 5.46821225 5.54988007 12.44858156 6.75 19.5625 C6.97042969 20.78130859 7.19085938 22.00011719 7.41796875 23.25585938 C8.30711544 28.28975508 9 32.86915958 9 38 C5.7 38 2.4 38 -1 38 C-1.33 35.36 -1.66 32.72 -2 30 C-5.47548841 30.53977565 -5.47548841 30.53977565 -9 32 C-10.53146378 35.00594421 -10.53146378 35.00594421 -11 38 C-14.3 38 -17.6 38 -21 38 C-20.5532238 29.51125226 -17.91005752 21.9130628 -15 14 C-14.35611328 12.2365625 -14.35611328 12.2365625 -13.69921875 10.4375 C-10.56895294 2.37440044 -10.56895294 2.37440044 -8.03515625 0.70703125 C-5.07744969 -0.32050212 -3.10584259 -0.51764043 0 0 Z " fill="#0F0F0F" transform="translate(29,33)"/>
<path d="M0 0 C8.25 0 16.5 0 25 0 C25 2.64 25 5.28 25 8 C19.72 8.66 14.44 9.32 9 10 C8.67 11.32 8.34 12.64 8 14 C12.29 14 16.58 14 21 14 C21 16.31 21 18.62 21 21 C16.71 21.66 12.42 22.32 8 23 C8 24.32 8 25.64 8 27 C12.95 27 17.9 27 23 27 C23 29.97 23 32.94 23 36 C14.64895793 36.68271293 6.38011029 37.15392039 -2 37 C-2.11440533 29.69077067 -1.98489968 22.42121309 -1.5625 15.125 C-1.52326416 14.4244751 -1.48402832 13.7239502 -1.44360352 13.00219727 C-1.17130056 8.59883377 -0.62700987 4.38906912 0 0 Z " fill="#0A0A0A" transform="translate(190,34)"/>
<path d="M0 0 C8.25 0 16.5 0 25 0 C25 2.64 25 5.28 25 8 C19.72 8.66 14.44 9.32 9 10 C8.67 11.32 8.34 12.64 8 14 C12.29 14 16.58 14 21 14 C21 16.31 21 18.62 21 21 C16.71 21.66 12.42 22.32 8 23 C8 24.32 8 25.64 8 27 C12.95 27 17.9 27 23 27 C23 29.97 23 32.94 23 36 C20.8753797 36.1714391 18.75027411 36.33686595 16.625 36.5 C15.44164062 36.5928125 14.25828125 36.685625 13.0390625 36.78125 C8.36147514 37.08876473 3.68538805 37.04290867 -1 37 C-1.02488484 32.85571691 -1.04294686 28.71147446 -1.05493164 24.56713867 C-1.0599327 23.15990439 -1.0667357 21.75267523 -1.07543945 20.34545898 C-1.08769159 18.31232431 -1.0932707 16.27925886 -1.09765625 14.24609375 C-1.10289307 13.02591553 -1.10812988 11.8057373 -1.11352539 10.54858398 C-1 7 -1 7 0 0 Z " fill="#070707" transform="translate(361,34)"/>
<path d="M0 0 C2.19286433 1.76575061 3.9397125 3.41458125 5.20703125 5.94921875 C5.64574462 11.12603646 5.5219607 14.96417708 2.67578125 19.40625 C-0.17047694 22.39633507 -3.85827593 23.88094633 -7.79296875 24.94921875 C-9.44296875 24.94921875 -11.09296875 24.94921875 -12.79296875 24.94921875 C-12.79296875 28.57921875 -12.79296875 32.20921875 -12.79296875 35.94921875 C-15.43296875 35.94921875 -18.07296875 35.94921875 -20.79296875 35.94921875 C-19.80296875 35.45421875 -19.80296875 35.45421875 -18.79296875 34.94921875 C-19.12296875 33.29921875 -19.45296875 31.64921875 -19.79296875 29.94921875 C-20.12296875 29.94921875 -20.45296875 29.94921875 -20.79296875 29.94921875 C-20.977479 9.98110941 -20.977479 9.98110941 -19.79296875 0.94921875 C-4.40606268 -2.58220231 -4.40606268 -2.58220231 0 0 Z " fill="#060606" transform="translate(61.79296875,35.05078125)"/>
<path d="M0 0 C7.59 0 15.18 0 23 0 C23 2.64 23 5.28 23 8 C18.38 8.66 13.76 9.32 9 10 C8.67 11.98 8.34 13.96 8 16 C11.96 16 15.92 16 20 16 C20 18.64 20 21.28 20 24 C16.04 24.66 12.08 25.32 8 26 C7.67 29.63 7.34 33.26 7 37 C4.03 37 1.06 37 -2 37 C-2.21919058 24.43307368 -1.86012191 12.43956527 0 0 Z " fill="#090909" transform="translate(293,34)"/>
<path d="M0 0 C8.58 0 17.16 0 26 0 C26 2.64 26 5.28 26 8 C23.36 8 20.72 8 18 8 C18.01160156 9.16015625 18.02320313 10.3203125 18.03515625 11.515625 C18.09618744 20.41282879 17.90904983 29.13676411 17 38 C13.7 38 10.4 38 7 38 C6.86140644 28.298451 7.40376864 18.67811261 8 9 C7.01 9.495 7.01 9.495 6 10 C4.00039988 10.039992 1.99952758 10.04346799 0 10 C0 6.7 0 3.4 0 0 Z " fill="#090909" transform="translate(126,33)"/>
<path d="M0 0 C1.38671875 2.72265625 1.38671875 2.72265625 2.6875 6.0625 C3.34298828 7.71958984 3.34298828 7.71958984 4.01171875 9.41015625 C4.33785156 10.26480469 4.66398437 11.11945312 5 12 C5.31453125 11.14535156 5.6290625 10.29070313 5.953125 9.41015625 C6.38109375 8.30542969 6.8090625 7.20070313 7.25 6.0625 C7.66765625 4.96035156 8.0853125 3.85820313 8.515625 2.72265625 C10 0 10 0 12 -0.90625 C14.4693235 -1.02199954 16.60911764 -0.59772059 19 0 C17.61754132 4.30098256 16.1988055 8.55148635 14.5 12.73828125 C11.22584203 20.89398309 9.033807 28.07495106 9 37 C5.7 37 2.4 37 -1 37 C-0.87818359 35.92298828 -0.87818359 35.92298828 -0.75390625 34.82421875 C-0.12218755 24.47176739 -3.37074471 16.40334909 -7.35742188 6.99194336 C-8 5 -8 5 -8 1 C-3.375 -1.125 -3.375 -1.125 0 0 Z " fill="#0E0E0E" transform="translate(476,34)"/>
<path d="M0 0 C2.97 0 5.94 0 9 0 C9.1723784 9.04028922 8.6331684 17.98865693 8 27 C12.29 27 16.58 27 21 27 C21 30.63 21 34.26 21 38 C13.74 38 6.48 38 -1 38 C-1.19148936 10.70212766 -1.19148936 10.70212766 0 0 Z " fill="#070707" transform="translate(447,33)"/>
<path d="M0 0 C8.91 0 17.82 0 27 0 C27 2.64 27 5.28 27 8 C24.03 8 21.06 8 18 8 C18.01160156 9.16015625 18.02320313 10.3203125 18.03515625 11.515625 C18.09610339 20.40057489 17.97126442 29.15455616 17 38 C14.03 38 11.06 38 8 38 C8 36.68 8 35.36 8 34 C8.66 34 9.32 34 10 34 C9.835 32.845 9.67 31.69 9.5 30.5 C8.68646128 23.3614842 8.92079278 16.17265341 9 9 C4.545 9.495 4.545 9.495 0 10 C0 6.7 0 3.4 0 0 Z " fill="#030303" transform="translate(246,33)"/>
<path d="M0 0 C3.3 0 6.6 0 10 0 C9.95456055 1.08716309 9.95456055 1.08716309 9.90820312 2.19628906 C9.7695942 5.54742635 9.63478028 8.89870662 9.5 12.25 C9.45230469 13.38953125 9.40460938 14.5290625 9.35546875 15.703125 C9.05967839 23.14013973 8.93891103 30.55732726 9 38 C5.7 38 2.4 38 -1 38 C-1.02497729 34.0347593 -1.0429894 30.06954995 -1.05493164 26.10424805 C-1.06235104 24.10268542 -1.07506659 22.10114467 -1.08789062 20.09960938 C-1.10499609 13.30874075 -0.93798004 6.72834499 0 0 Z " fill="#050505" transform="translate(349,33)"/>
<path d="M0 0 C0.12375 0.969375 0.2475 1.93875 0.375 2.9375 C0.58125 3.948125 0.7875 4.95875 1 6 C1.66 6.33 2.32 6.66 3 7 C2.34 7 1.68 7 1 7 C0.80664062 7.62648438 0.61328125 8.25296875 0.4140625 8.8984375 C0.15367187 9.71570312 -0.10671875 10.53296875 -0.375 11.375 C-0.63023437 12.18710937 -0.88546875 12.99921875 -1.1484375 13.8359375 C-2 16 -2 16 -4 18 C-4.99 18 -5.98 18 -7 18 C-8.22036504 14.33890489 -7.94694905 11.15655883 -7.6875 7.375 C-7.65205078 6.68148437 -7.61660156 5.98796875 -7.58007812 5.2734375 C-7.46461815 3.50879543 -7.24042891 1.75199503 -7 0 C-4.3333581 -1.33332095 -2.83319697 -0.67102033 0 0 Z " fill="#ECECEC" transform="translate(404,43)"/>
<path d="M0 0 C1.65322266 0.01740234 1.65322266 0.01740234 3.33984375 0.03515625 C4.99693359 0.04869141 4.99693359 0.04869141 6.6875 0.0625 C7.54214844 0.07410156 8.39679688 0.08570313 9.27734375 0.09765625 C9.27734375 2.40765625 9.27734375 4.71765625 9.27734375 7.09765625 C4.98734375 7.75765625 0.69734375 8.41765625 -3.72265625 9.09765625 C-4.05265625 10.41765625 -4.38265625 11.73765625 -4.72265625 13.09765625 C-5.91015625 11.59765625 -5.91015625 11.59765625 -6.72265625 9.09765625 C-4.50162211 0.16146421 -4.50162211 0.16146421 0 0 Z " fill="#090909" transform="translate(372.72265625,47.90234375)"/>
<path d="M0 0 C0.66 0 1.32 0 2 0 C2.33 1.98 2.66 3.96 3 6 C3.66 6 4.32 6 5 6 C5 4.02 5 2.04 5 0 C5.33 0 5.66 0 6 0 C6 2.97 6 5.94 6 9 C2.7 9 -0.6 9 -4 9 C-4 7.02 -4 5.04 -4 3 C-3.34 3 -2.68 3 -2 3 C-1.34 2.01 -0.68 1.02 0 0 Z " fill="#3B3B3B" transform="translate(87,62)"/>
<path d="M0 0 C1 1 1 1 1.3125 3.375 C1 6 1 6 -0.75 7.8125 C-3 9 -3 9 -7 9 C-7 6.36 -7 3.72 -7 1 C-4.51588385 -0.24205807 -2.74800896 -0.14092354 0 0 Z " fill="#EBEBEB" transform="translate(57,42)"/>
<path d="M0 0 C1.65 0.33 3.3 0.66 5 1 C4.01 1.495 4.01 1.495 3 2 C2.5636895 4.17990771 2.5636895 4.17990771 2.4375 6.8046875 C2.36273438 7.78050781 2.28796875 8.75632812 2.2109375 9.76171875 C2.14132812 10.78910156 2.07171875 11.81648438 2 12.875 C1.86218106 14.89379228 1.71667828 16.91207867 1.5625 18.9296875 C1.50191406 19.82929199 1.44132812 20.72889648 1.37890625 21.65576172 C1 24 1 24 -1 27 C-1.18451025 7.99544419 -1.18451025 7.99544419 0 0 Z " fill="#636363" transform="translate(349,33)"/>
<path d="M0 0 C2.64 0 5.28 0 8 0 C7.6641593 3.10652645 7.40950721 4.60414303 5.125 6.8125 C3 8 3 8 0 8 C0 5.36 0 2.72 0 0 Z " fill="#EFEFEF" transform="translate(328,42)"/>
<path d="M0 0 C2.64 0 5.28 0 8 0 C7.6641593 3.10652645 7.40950721 4.60414303 5.125 6.8125 C3 8 3 8 0 8 C0 5.36 0 2.72 0 0 Z " fill="#EFEFEF" transform="translate(106,42)"/>
<path d="M0 0 C2.475 0.495 2.475 0.495 5 1 C5 1.99 5 2.98 5 4 C5.66 4 6.32 4 7 4 C7 2.68 7 1.36 7 0 C7.99 0.33 8.98 0.66 10 1 C10 2.65 10 4.3 10 6 C6.7 6 3.4 6 0 6 C0 4.02 0 2.04 0 0 Z " fill="#0B0B0B" transform="translate(28,65)"/>
<path d="M0 0 C1.32 0.33 2.64 0.66 4 1 C4 3.31 4 5.62 4 8 C1.69 8.33 -0.62 8.66 -3 9 C-3.33 8.01 -3.66 7.02 -4 6 C-3.34 5.67 -2.68 5.34 -2 5 C-1.27840576 3.35636866 -0.60648579 1.68949614 0 0 Z " fill="#5A5A5A" transform="translate(77,48)"/>
<path d="M0 0 C0.66 0.33 1.32 0.66 2 1 C2.4140625 3.06640625 2.4140625 3.06640625 2.625 5.5625 C2.69976563 6.38878906 2.77453125 7.21507812 2.8515625 8.06640625 C2.90054687 8.70449219 2.94953125 9.34257813 3 10 C2.21625 9.79375 1.4325 9.5875 0.625 9.375 C-0.24125 9.25125 -1.1075 9.1275 -2 9 C-2.66 9.66 -3.32 10.32 -4 11 C-3.39301257 6.87248551 -1.96189209 3.6678852 0 0 Z " fill="#929292" transform="translate(23,46)"/>
<path d="M0 0 C0.33 0 0.66 0 1 0 C1 4.29 1 8.58 1 13 C1.66 13 2.32 13 3 13 C3 16.63 3 20.26 3 24 C2.67 24 2.34 24 2 24 C1.67 22.35 1.34 20.7 1 19 C0.67 19 0.34 19 0 19 C0 12.73 0 6.46 0 0 Z " fill="#3B3B3B" transform="translate(41,46)"/>
<path d="M0 0 C0.33 0 0.66 0 1 0 C1 3.96 1 7.92 1 12 C-3 9 -3 9 -3.75 5.8125 C-3.8325 4.884375 -3.915 3.95625 -4 3 C-2.68 2.67 -1.36 2.34 0 2 C0 1.34 0 0.68 0 0 Z " fill="#616161" transform="translate(357,59)"/>
<path d="M0 0 C2.1875 1.4375 2.1875 1.4375 4 3 C3.01 3.33 2.02 3.66 1 4 C1 4.66 1 5.32 1 6 C-0.65 6.33 -2.3 6.66 -4 7 C-3.67 5.02 -3.34 3.04 -3 1 C-2.01 0.67 -1.02 0.34 0 0 Z " fill="#212121" transform="translate(407,51)"/>
<path d="M0 0 C0.66 0 1.32 0 2 0 C2 2.97 2 5.94 2 9 C1.34 9 0.68 9 0 9 C-0.33 10.32 -0.66 11.64 -1 13 C-1.02696365 11.20841511 -1.04637917 9.41671527 -1.0625 7.625 C-1.07410156 6.62726563 -1.08570313 5.62953125 -1.09765625 4.6015625 C-1 2 -1 2 0 0 Z " fill="#777777" transform="translate(134,58)"/>
<path d="M0 0 C0.33 0 0.66 0 1 0 C1.33 2.64 1.66 5.28 2 8 C2.33 8 2.66 8 3 8 C3 9.98 3 11.96 3 14 C2.01 14.33 1.02 14.66 0 15 C0 10.05 0 5.1 0 0 Z " fill="#A5A5A5" transform="translate(40,56)"/>
<path d="M0 0 C0.33 0 0.66 0 1 0 C1.33 1.98 1.66 3.96 2 6 C3.65 6.33 5.3 6.66 7 7 C6.01 8.485 6.01 8.485 5 10 C3.35 10 1.7 10 0 10 C0 6.7 0 3.4 0 0 Z " fill="#282828" transform="translate(246,33)"/>
<path d="M0 0 C0.33 0 0.66 0 1 0 C1.05391993 1.79133978 1.09275571 3.58313899 1.125 5.375 C1.14820313 6.37273438 1.17140625 7.37046875 1.1953125 8.3984375 C1 11 1 11 -1 13 C-1.99 12.67 -2.98 12.34 -4 12 C-3.34 10.68 -2.68 9.36 -2 8 C-1.34 8 -0.68 8 0 8 C0 5.36 0 2.72 0 0 Z " fill="#4A4A4A" transform="translate(357,47)"/>
<path d="M0 0 C0.99 0.495 0.99 0.495 2 1 C3.19150921 5.36886712 3.021829 7.95634201 1 12 C0.67 12 0.34 12 0 12 C0 8.04 0 4.08 0 0 Z " fill="#B0B0B0" transform="translate(164,59)"/>
<path d="M0 0 C2.56687367 3.8503105 1.83288724 5.58569763 1 10 C-0.32 9.67 -1.64 9.34 -3 9 C-2.01 6.03 -1.02 3.06 0 0 Z " fill="#E6E6E6" transform="translate(67,44)"/>
<path d="M0 0 C2.31 0 4.62 0 7 0 C7 0.99 7 1.98 7 3 C4.69 3 2.38 3 0 3 C0 2.01 0 1.02 0 0 Z " fill="#020202" transform="translate(189,68)"/>
<path d="M0 0 C0.66 0.33 1.32 0.66 2 1 C2.33 1.99 2.66 2.98 3 4 C2.01 5.485 2.01 5.485 1 7 C0.34 7 -0.32 7 -1 7 C-1.625 4.625 -1.625 4.625 -2 2 C-1.34 1.34 -0.68 0.68 0 0 Z " fill="#323232" transform="translate(432,60)"/>
<path d="M0 0 C0.66 0.33 1.32 0.66 2 1 C2.33 1.99 2.66 2.98 3 4 C2.01 5.485 2.01 5.485 1 7 C0.34 7 -0.32 7 -1 7 C-1.625 4.625 -1.625 4.625 -2 2 C-1.34 1.34 -0.68 0.68 0 0 Z " fill="#323232" transform="translate(233,60)"/>
<path d="M0 0 C0.66 0.33 1.32 0.66 2 1 C1.67 3.31 1.34 5.62 1 8 C-1 6 -1 6 -1.1875 3.4375 C-1 1 -1 1 0 0 Z " fill="#656565" transform="translate(349,41)"/>
<path d="M0 0 C2.64 0.33 5.28 0.66 8 1 C8 1.66 8 2.32 8 3 C5.03 2.67 2.06 2.34 -1 2 C-0.67 1.34 -0.34 0.68 0 0 Z " fill="#505050" transform="translate(487,33)"/>
<path d="M0 0 C0.66 0 1.32 0 2 0 C2 0.99 2 1.98 2 3 C2.66 3.33 3.32 3.66 4 4 C3.34 4 2.68 4 2 4 C1.67 5.32 1.34 6.64 1 8 C-0.42944945 5.64561267 -1.08661261 4.51967567 -0.625 1.75 C-0.41875 1.1725 -0.2125 0.595 0 0 Z " fill="#474747" transform="translate(367,53)"/>
<path d="M0 0 C0.66 0 1.32 0 2 0 C2 0.99 2 1.98 2 3 C2.66 3.33 3.32 3.66 4 4 C3.34 4 2.68 4 2 4 C1.67 5.32 1.34 6.64 1 8 C-0.42944945 5.64561267 -1.08661261 4.51967567 -0.625 1.75 C-0.41875 1.1725 -0.2125 0.595 0 0 Z " fill="#474747" transform="translate(196,53)"/>
<path d="M0 0 C0.66 0.33 1.32 0.66 2 1 C2 2.98 2 4.96 2 7 C1.01 7 0.02 7 -1 7 C-0.67 4.69 -0.34 2.38 0 0 Z " fill="#D9D9D9" transform="translate(79,48)"/>
</svg>
