<?xml version="1.0" encoding="UTF-8"?>
<svg version="1.1" xmlns="http://www.w3.org/2000/svg" width="343" height="231">
<path d="M0 0 C113.19 0 226.38 0 343 0 C343 76.23 343 152.46 343 231 C229.81 231 116.62 231 0 231 C0 154.77 0 78.54 0 0 Z " fill="#121212" transform="translate(0,0)"/>
<path d="M0 0 C2.475 0.495 2.475 0.495 5 1 C4.40057385 5.21630255 2.93936722 8.2686792 0.83984375 11.95703125 C0.21142578 13.06884766 -0.41699219 14.18066406 -1.06445312 15.32617188 C-1.73031954 16.48836675 -2.39633706 17.65047506 -3.0625 18.8125 C-3.73305373 19.99378217 -4.40298231 21.17541945 -5.07226562 22.35742188 C-6.70869611 25.24177777 -8.35354295 28.12135573 -10 31 C-2.08 31 5.84 31 14 31 C14.495 33.475 14.495 33.475 15 36 C11.67301363 37.66349319 7.93570615 37.24378057 4.2734375 37.31640625 C3.41062164 37.33718735 2.54780579 37.35796844 1.65884399 37.37937927 C-1.10235493 37.44486034 -3.86365038 37.50375298 -6.625 37.5625 C-8.49480172 37.6056866 -10.36459362 37.64930093 -12.234375 37.69335938 C-16.82281728 37.80054024 -21.41135683 37.90181175 -26 38 C-25.77860352 38.85529297 -25.55720703 39.71058594 -25.32910156 40.59179688 C-24.48613301 43.84963789 -23.64376146 47.10763218 -22.80175781 50.36572266 C-22.44130955 51.75998756 -22.08064204 53.15419581 -21.71972656 54.54833984 C-21.19274155 56.58415065 -20.66662021 58.62018325 -20.140625 60.65625 C-19.82641602 61.87119141 -19.51220703 63.08613281 -19.18847656 64.33789062 C-17.43432178 71.21902039 -15.72229337 78.11082651 -14 85 C8.11 85 30.22 85 53 85 C55.475 74.605 55.475 74.605 58 64 C60.125 55.9375 60.125 55.9375 61.0078125 52.71484375 C62.40262892 47.49251928 63.69928392 42.24643668 65 37 C63.28901123 37.01571045 63.28901123 37.01571045 61.54345703 37.03173828 C57.32050706 37.06787717 53.09757081 37.09087812 48.87451172 37.10986328 C47.04506127 37.11993484 45.21562697 37.13359276 43.38623047 37.15087891 C40.76005066 37.17507677 38.13408325 37.18647132 35.5078125 37.1953125 C34.68693146 37.20563507 33.86605042 37.21595764 33.02029419 37.22659302 C31.01210858 37.22699184 29.00444618 37.1224954 27 37 C26.34 36.34 25.68 35.68 25 35 C25.33 33.68 25.66 32.36 26 31 C33.59 31 41.18 31 49 31 C46.6796875 27.0709375 46.6796875 27.0709375 44.3125 23.0625 C43.39488849 21.49664706 42.47802194 19.93035684 41.5625 18.36328125 C40.12606764 15.90763104 38.67436594 13.46873925 37.1875 11.04296875 C36.506875 9.90794922 36.506875 9.90794922 35.8125 8.75 C35.42707031 8.12609375 35.04164063 7.5021875 34.64453125 6.859375 C33.7648625 4.32166395 34.31024133 2.54815307 35 0 C37.60846875 0.36358989 38.73896498 0.70051235 40.49658203 2.71704102 C41.18276611 3.81810181 41.18276611 3.81810181 41.8828125 4.94140625 C42.39489258 5.75496582 42.90697266 6.56852539 43.43457031 7.40673828 C43.95116211 8.26251465 44.46775391 9.11829102 45 10 C45.49854492 10.82097168 45.99708984 11.64194336 46.51074219 12.48779297 C47.98834135 14.95841279 49.43580997 17.44433793 50.875 19.9375 C51.37257813 20.78634766 51.87015625 21.63519531 52.3828125 22.50976562 C52.85203125 23.31994141 53.32125 24.13011719 53.8046875 24.96484375 C54.43866455 26.05720337 54.43866455 26.05720337 55.08544922 27.17163086 C56 29 56 29 56 31 C57.60681641 30.98259766 57.60681641 30.98259766 59.24609375 30.96484375 C60.64322743 30.95546701 62.04036299 30.94636669 63.4375 30.9375 C64.14455078 30.92912109 64.85160156 30.92074219 65.58007812 30.91210938 C67.38693559 30.90346412 69.19387603 30.94779989 71 31 C72 32 72 32 72.17163086 35.16186523 C72.00343715 38.92313586 71.37341358 41.83059018 70.25390625 45.41015625 C68.68657053 50.62287608 67.24954944 55.83181559 65.96484375 61.12109375 C65.71427719 62.14428207 65.71427719 62.14428207 65.45864868 63.18814087 C64.77586646 65.98065407 64.09713785 68.77410253 63.42456055 71.5690918 C62.92250435 73.65026902 62.41291222 75.72949091 61.90234375 77.80859375 C61.60835693 79.02345459 61.31437012 80.23831543 61.01147461 81.48999023 C59.94541797 85.18941006 58.54269113 88.47755387 57 92 C47.38614362 92.02313874 37.77229678 92.04092293 28.15841866 92.05181217 C23.6946324 92.05703764 19.23086516 92.06412921 14.76708984 92.07543945 C10.46179898 92.08628024 6.15652644 92.09227938 1.85122299 92.09487724 C0.20613186 92.09672933 -1.43895823 92.10034584 -3.0840416 92.10573006 C-5.38271018 92.11295628 -7.68130241 92.11399027 -9.97998047 92.11352539 C-11.94522171 92.11685631 -11.94522171 92.11685631 -13.95016479 92.12025452 C-17 92 -17 92 -19 91 C-21.80761365 83.81581214 -23.53503525 76.1508053 -25.35009766 68.66577148 C-26.36808755 64.47536032 -27.45011908 60.30862449 -28.5859375 56.1484375 C-28.86066895 55.13185059 -29.13540039 54.11526367 -29.41845703 53.06787109 C-29.96104877 51.06604849 -30.51116497 49.06624581 -31.06982422 47.06884766 C-31.44518311 45.67351807 -31.44518311 45.67351807 -31.828125 44.25 C-32.0540332 43.43015625 -32.27994141 42.6103125 -32.51269531 41.765625 C-33 39 -33 39 -33 31 C-27.72 31 -22.44 31 -17 31 C-16.34 29.35 -15.68 27.7 -15 26 C-14.28983106 24.60520543 -13.55391694 23.22322226 -12.79296875 21.85546875 C-12.37080078 21.09556641 -11.94863281 20.33566406 -11.51367188 19.55273438 C-10.8572168 18.38194336 -10.8572168 18.38194336 -10.1875 17.1875 C-9.76146484 16.41857422 -9.33542969 15.64964844 -8.89648438 14.85742188 C-6.07920379 9.80677514 -3.11277432 4.87387246 0 0 Z " fill="#E3DE3D" transform="translate(135,49)"/>
<path d="M0 0 C0.97710937 -0.02578125 1.95421875 -0.0515625 2.9609375 -0.078125 C5.625 0.25 5.625 0.25 7.453125 1.515625 C8.85652107 3.59265118 9.02830755 4.75893526 9 7.25 C9.00773437 7.930625 9.01546875 8.61125 9.0234375 9.3125 C8.49156476 11.89886155 7.79518338 12.74756536 5.625 14.25 C2.9609375 14.578125 2.9609375 14.578125 0 14.5 C-0.98226563 14.48453125 -1.96453125 14.4690625 -2.9765625 14.453125 C-5.375 14.25 -5.375 14.25 -6.375 13.25 C-6.47373816 11.25200428 -6.50471799 9.25042842 -6.5 7.25 C-6.50257813 6.156875 -6.50515625 5.06375 -6.5078125 3.9375 C-6.27609571 -0.75135743 -4.20690534 0.06625048 0 0 Z " fill="#D0D0D0" transform="translate(269.375,156.75)"/>
<path d="M0 0 C0 4.62 0 9.24 0 14 C-0.99 14 -1.98 14 -3 14 C-3 13.01 -3 12.02 -3 11 C-5.97 11 -8.94 11 -12 11 C-12 11.99 -12 12.98 -12 14 C-12.99 14 -13.98 14 -15 14 C-15.60402685 5.20805369 -15.60402685 5.20805369 -13.6875 1.375 C-9.23272778 -0.90418579 -4.94597267 -0.23552251 0 0 Z " fill="#CECECE" transform="translate(83,157)"/>
<path d="M0 0 C0 4.62 0 9.24 0 14 C-0.99 14 -1.98 14 -3 14 C-3 13.01 -3 12.02 -3 11 C-5.97 11 -8.94 11 -12 11 C-12 11.99 -12 12.98 -12 14 C-12.99 14 -13.98 14 -15 14 C-15.60402685 5.20805369 -15.60402685 5.20805369 -13.6875 1.375 C-9.23272778 -0.90418579 -4.94597267 -0.23552251 0 0 Z " fill="#C3C3C3" transform="translate(49,157)"/>
<path d="M0 0 C1.79244141 0.01740234 1.79244141 0.01740234 3.62109375 0.03515625 C5.41740234 0.04869141 5.41740234 0.04869141 7.25 0.0625 C8.17683594 0.07410156 9.10367188 0.08570313 10.05859375 0.09765625 C10.05859375 1.08765625 10.05859375 2.07765625 10.05859375 3.09765625 C6.75859375 3.09765625 3.45859375 3.09765625 0.05859375 3.09765625 C0.05859375 3.75765625 0.05859375 4.41765625 0.05859375 5.09765625 C3.02859375 5.09765625 5.99859375 5.09765625 9.05859375 5.09765625 C8.72859375 6.41765625 8.39859375 7.73765625 8.05859375 9.09765625 C5.41859375 9.09765625 2.77859375 9.09765625 0.05859375 9.09765625 C0.05859375 10.08765625 0.05859375 11.07765625 0.05859375 12.09765625 C3.35859375 12.09765625 6.65859375 12.09765625 10.05859375 12.09765625 C10.05859375 12.75765625 10.05859375 13.41765625 10.05859375 14.09765625 C8.10093094 14.17847719 6.14232647 14.23676403 4.18359375 14.28515625 C3.09304687 14.31996094 2.0025 14.35476562 0.87890625 14.390625 C-0.05179688 14.29394531 -0.9825 14.19726562 -1.94140625 14.09765625 C-4.12981979 10.81503594 -4.1899529 9.77974727 -4.12890625 5.97265625 C-4.12246094 5.08320313 -4.11601562 4.19375 -4.109375 3.27734375 C-3.8490509 -0.10081546 -3.45728019 0.11478354 0 0 Z " fill="#D1D1D1" transform="translate(140.94140625,156.90234375)"/>
<path d="M0 0 C4.98777148 2.49388574 5.51258849 4.20284924 8 9 C8.39832031 8.3503125 8.79664062 7.700625 9.20703125 7.03125 C9.73683594 6.1959375 10.26664063 5.360625 10.8125 4.5 C11.59560547 3.24703125 11.59560547 3.24703125 12.39453125 1.96875 C13.18923828 0.99421875 13.18923828 0.99421875 14 0 C14.99 0 15.98 0 17 0 C17 4.62 17 9.24 17 14 C16.01 14 15.02 14 14 14 C13.67 12.02 13.34 10.04 13 8 C11.02 10.97 11.02 10.97 9 14 C6 13 6 13 4.3125 9.9375 C3.879375 8.968125 3.44625 7.99875 3 7 C2.67 9.31 2.34 11.62 2 14 C1.34 14 0.68 14 0 14 C0 9.38 0 4.76 0 0 Z " fill="#DCDCDC" transform="translate(118,157)"/>
<path d="M0 0 C1.1859375 0.00257813 2.371875 0.00515625 3.59375 0.0078125 C4.7796875 0.00523437 5.965625 0.00265625 7.1875 0 C10.09375 0.1328125 10.09375 0.1328125 11.09375 1.1328125 C11.56433824 6.54457721 11.56433824 6.54457721 9.59375 9.0078125 C9.09875 9.3790625 8.60375 9.7503125 8.09375 10.1328125 C9.08375 11.4528125 10.07375 12.7728125 11.09375 14.1328125 C6.25208214 13.68242479 3.59706713 12.53309089 0.09375 9.1328125 C0.09375 8.4728125 0.09375 7.8128125 0.09375 7.1328125 C3.55875 6.6378125 3.55875 6.6378125 7.09375 6.1328125 C7.42375 4.8128125 7.75375 3.4928125 8.09375 2.1328125 C5.12375 2.1328125 2.15375 2.1328125 -0.90625 2.1328125 C-0.90625 6.0928125 -0.90625 10.0528125 -0.90625 14.1328125 C-1.89625 14.1328125 -2.88625 14.1328125 -3.90625 14.1328125 C-3.93310938 11.98704613 -3.95258088 9.84118605 -3.96875 7.6953125 C-3.98035156 6.50035156 -3.99195313 5.30539063 -4.00390625 4.07421875 C-3.87451855 0.17706133 -3.87451855 0.17706133 0 0 Z " fill="#CCCCCC" transform="translate(210.90625,156.8671875)"/>
<path d="M0 0 C4.35143616 1.08785904 5.0207114 1.75586189 7.75 5.0625 C8.36359375 5.79597656 8.9771875 6.52945313 9.609375 7.28515625 C10.06828125 7.85105469 10.5271875 8.41695312 11 9 C11.33 6.03 11.66 3.06 12 0 C12.99 0 13.98 0 15 0 C15 4.62 15 9.24 15 14 C10.87407007 12.96851752 10.02929503 12.37713898 7.25 9.4375 C6.63640625 8.79683594 6.0228125 8.15617188 5.390625 7.49609375 C4.70226562 6.75552734 4.70226562 6.75552734 4 6 C3.67 8.64 3.34 11.28 3 14 C2.01 14 1.02 14 0 14 C0 9.38 0 4.76 0 0 Z " fill="#C9C9C9" transform="translate(246,157)"/>
<path d="M0 0 C4.12592993 1.03148248 4.97070497 1.62286102 7.75 4.5625 C8.36359375 5.20316406 8.9771875 5.84382812 9.609375 6.50390625 C10.06828125 6.99761719 10.5271875 7.49132812 11 8 C11.33 5.36 11.66 2.72 12 0 C12.99 0 13.98 0 15 0 C15 4.62 15 9.24 15 14 C10.64856384 12.91214096 9.9792886 12.24413811 7.25 8.9375 C6.63640625 8.20402344 6.0228125 7.47054687 5.390625 6.71484375 C4.93171875 6.14894531 4.4728125 5.58304688 4 5 C3.67 7.97 3.34 10.94 3 14 C2.01 14 1.02 14 0 14 C0 9.38 0 4.76 0 0 Z " fill="#CBCBCB" transform="translate(153,157)"/>
<path d="M0 0 C10.05859375 -0.09765625 10.05859375 -0.09765625 13 0 C14 1 14 1 14.0625 4.0625 C14.041875 5.031875 14.02125 6.00125 14 7 C12.02 7.99 12.02 7.99 10 9 C10 9.66 10 10.32 10 11 C11.32 11.66 12.64 12.32 14 13 C12.25 13.6875 12.25 13.6875 10 14 C7.75 12.6875 7.75 12.6875 6 11 C6 10.34 6 9.68 6 9 C5.01 9 4.02 9 3 9 C3 8.34 3 7.68 3 7 C5.64 6.67 8.28 6.34 11 6 C11.33 4.68 11.66 3.36 12 2 C8.7 2 5.4 2 2 2 C2 5.96 2 9.92 2 14 C1.34 14 0.68 14 0 14 C0 9.38 0 4.76 0 0 Z " fill="#DCDCDC" transform="translate(86,157)"/>
<path d="M0 0 C6.15234375 -0.09765625 6.15234375 -0.09765625 8 0 C9 1 9 1 9.1875 4.4375 C9 8 9 8 7 10 C3.375 10.125 3.375 10.125 0 10 C0 6.7 0 3.4 0 0 Z " fill="#252525" transform="translate(266,159)"/>
<path d="M0 0 C0.98871094 -0.01417969 1.97742188 -0.02835938 2.99609375 -0.04296875 C5.5625 0.1875 5.5625 0.1875 7.5625 2.1875 C7.89583333 7.52083333 7.89583333 7.52083333 6.5625 10.1875 C3.5925 10.1875 0.6225 10.1875 -2.4375 10.1875 C-2.4375 9.5275 -2.4375 8.8675 -2.4375 8.1875 C-0.1275 8.1875 2.1825 8.1875 4.5625 8.1875 C4.5625 6.2075 4.5625 4.2275 4.5625 2.1875 C1.9225 2.5175 -0.7175 2.8475 -3.4375 3.1875 C-3.7675 6.8175 -4.0975 10.4475 -4.4375 14.1875 C-5.0975 14.1875 -5.7575 14.1875 -6.4375 14.1875 C-6.46435938 12.04173363 -6.48383088 9.89587355 -6.5 7.75 C-6.51160156 6.55503906 -6.52320313 5.36007813 -6.53515625 4.12890625 C-6.37050569 -0.83036853 -4.46111388 0.02900594 0 0 Z " fill="#D8D8D8" transform="translate(58.4375,156.8125)"/>
<path d="M0 0 C4.62 0 9.24 0 14 0 C14 0.66 14 1.32 14 2 C10.37 2 6.74 2 3 2 C3 5.3 3 8.6 3 12 C6.3 12 9.6 12 13 12 C13 12.66 13 13.32 13 14 C11.20866022 14.05391993 9.41686101 14.09275571 7.625 14.125 C6.62726563 14.14820313 5.62953125 14.17140625 4.6015625 14.1953125 C2 14 2 14 0 12 C-0.27783543 7.98805634 -0.0856495 4.02552638 0 0 Z " fill="#D3D3D3" transform="translate(230,157)"/>
<path d="M0 0 C0.66 0 1.32 0 2 0 C2.33 1.98 2.66 3.96 3 6 C5.64 6.33 8.28 6.66 11 7 C11 4.69 11 2.38 11 0 C11.99 0 12.98 0 14 0 C14.125 3.375 14.125 3.375 14 7 C13.34 7.66 12.68 8.32 12 9 C10.68 9 9.36 9 8 9 C8 10.65 8 12.3 8 14 C7.01 14 6.02 14 5 14 C5 12.35 5 10.7 5 9 C3.68 9 2.36 9 1 9 C-0.4783226 6.04335481 -0.06032783 3.25770263 0 0 Z " fill="#D1D1D1" transform="translate(294,157)"/>
<path d="M0 0 C2.05078125 0.03255208 4.1015625 0.06510417 6.15234375 0.09765625 C6.15234375 2.07765625 6.15234375 4.05765625 6.15234375 6.09765625 C3.84234375 6.09765625 1.53234375 6.09765625 -0.84765625 6.09765625 C-0.84765625 6.75765625 -0.84765625 7.41765625 -0.84765625 8.09765625 C1.46234375 8.09765625 3.77234375 8.09765625 6.15234375 8.09765625 C6.15234375 8.42765625 6.15234375 8.75765625 6.15234375 9.09765625 C3.51234375 9.09765625 0.87234375 9.09765625 -1.84765625 9.09765625 C-2.17765625 10.08765625 -2.50765625 11.07765625 -2.84765625 12.09765625 C-2.87452904 10.28523573 -2.8939934 8.47270392 -2.91015625 6.66015625 C-2.92175781 5.65082031 -2.93335938 4.64148438 -2.9453125 3.6015625 C-2.81063978 0.1485539 -2.81063978 0.1485539 0 0 Z " fill="#3B3B3B" transform="translate(56.84765625,158.90234375)"/>
<path d="M0 0 C4.62 0 9.24 0 14 0 C14 0.66 14 1.32 14 2 C12.02 2 10.04 2 8 2 C8 5.96 8 9.92 8 14 C7.01 14 6.02 14 5 14 C5 10.04 5 6.08 5 2 C3.35 2 1.7 2 0 2 C0 1.34 0 0.68 0 0 Z " fill="#D2D2D2" transform="translate(102,157)"/>
<path d="M0 0 C0.99 0 1.98 0 3 0 C3 3.96 3 7.92 3 12 C6.63 12 10.26 12 14 12 C14 12.66 14 13.32 14 14 C11.85423363 14.02685938 9.70837355 14.04633088 7.5625 14.0625 C6.36753906 14.07410156 5.17257812 14.08570313 3.94140625 14.09765625 C1 14 1 14 0 13 C-0.07258946 10.81360547 -0.08373783 8.62499611 -0.0625 6.4375 C-0.05347656 5.23996094 -0.04445313 4.04242188 -0.03515625 2.80859375 C-0.02355469 1.88175781 -0.01195312 0.95492187 0 0 Z " fill="#CCCCCC" transform="translate(280,157)"/>
<path d="M0 0 C4.29 0 8.58 0 13 0 C13 0.66 13 1.32 13 2 C9.7 2 6.4 2 3 2 C3 5.96 3 9.92 3 14 C2.01 14 1.02 14 0 14 C0 9.38 0 4.76 0 0 Z " fill="#D2D2D2" transform="translate(192,157)"/>
<path d="M0 0 C3.3 0 6.6 0 10 0 C9.67 1.65 9.34 3.3 9 5 C6.36 5 3.72 5 1 5 C1 5.66 1 6.32 1 7 C1.99 7.33 2.98 7.66 4 8 C3.01 8 2.02 8 1 8 C0.67 9.32 0.34 10.64 0 12 C0 8.04 0 4.08 0 0 Z " fill="#565656" transform="translate(88,159)"/>
<path d="M0 0 C0.99 0 1.98 0 3 0 C3 4.62 3 9.24 3 14 C2.01 14 1.02 14 0 14 C-0.33 12.02 -0.66 10.04 -1 8 C-1.99 8 -2.98 8 -4 8 C-2.87548273 5.0280615 -1.77706209 2.66559313 0 0 Z " fill="#C3C3C3" transform="translate(132,157)"/>
<path d="M0 0 C3.63 0 7.26 0 11 0 C11 0.33 11 0.66 11 1 C7.7 1 4.4 1 1 1 C1 1.66 1 2.32 1 3 C3.97 3 6.94 3 10 3 C9.67 4.32 9.34 5.64 9 7 C6.36 7 3.72 7 1 7 C0.67 7.66 0.34 8.32 0 9 C0 6.03 0 3.06 0 0 Z " fill="#797979" transform="translate(140,159)"/>
<path d="M0 0 C2.97 0 5.94 0 9 0 C8.67 1.65 8.34 3.3 8 5 C5.69 5 3.38 5 1 5 C1 5.66 1 6.32 1 7 C1.66 7.33 2.32 7.66 3 8 C2.34 8 1.68 8 1 8 C0.67 9.32 0.34 10.64 0 12 C0 8.04 0 4.08 0 0 Z " fill="#414141" transform="translate(210,159)"/>
<path d="M0 0 C4.62 0 9.24 0 14 0 C14 0.66 14 1.32 14 2 C12.02 2 10.04 2 8 2 C8 5.96 8 9.92 8 14 C7.34 14 6.68 14 6 14 C6 10.04 6 6.08 6 2 C4.02 2 2.04 2 0 2 C0 1.34 0 0.68 0 0 Z " fill="#E1E1E1" transform="translate(170,157)"/>
<path d="M0 0 C0 1.98 0 3.96 0 6 C-2.97 6 -5.94 6 -9 6 C-8.625 3.5625 -8.625 3.5625 -8 1 C-5.29120665 -0.35439668 -2.99066732 -0.06501451 0 0 Z " fill="#202020" transform="translate(46,159)"/>
<path d="M0 0 C0 1.98 0 3.96 0 6 C-2.97 6 -5.94 6 -9 6 C-8.625 3.5625 -8.625 3.5625 -8 1 C-5.29120665 -0.35439668 -2.99066732 -0.06501451 0 0 Z " fill="#1D1D1D" transform="translate(80,159)"/>
<path d="M0 0 C1.37478516 0.01740234 1.37478516 0.01740234 2.77734375 0.03515625 C3.69644531 0.04417969 4.61554687 0.05320313 5.5625 0.0625 C6.27277344 0.07410156 6.98304687 0.08570313 7.71484375 0.09765625 C7.71484375 2.40765625 7.71484375 4.71765625 7.71484375 7.09765625 C7.38484375 7.09765625 7.05484375 7.09765625 6.71484375 7.09765625 C6.71484375 5.44765625 6.71484375 3.79765625 6.71484375 2.09765625 C5.27690983 2.40815351 3.83951195 2.72113385 2.40234375 3.03515625 C1.20158203 3.29619141 1.20158203 3.29619141 -0.0234375 3.5625 C-2.43055725 4.09651784 -2.43055725 4.09651784 -5.28515625 5.09765625 C-2.87806166 0.12299409 -2.87806166 0.12299409 0 0 Z " fill="#DFDFDF" transform="translate(40.28515625,156.90234375)"/>
<path d="M0 0 C0.66 0 1.32 0 2 0 C1.67 1.98 1.34 3.96 1 6 C-1.97 6 -4.94 6 -8 6 C-8 5.34 -8 4.68 -8 4 C-4.535 3.505 -4.535 3.505 -1 3 C-0.67 2.01 -0.34 1.02 0 0 Z " fill="#DFDFDF" transform="translate(64,161)"/>
<path d="M0 0 C2.64 0 5.28 0 8 0 C8 0.99 8 1.98 8 3 C5.36 3 2.72 3 0 3 C0 2.01 0 1.02 0 0 Z " fill="#121212" transform="translate(211,160)"/>
<path d="M0 0 C2.64 0 5.28 0 8 0 C8 0.99 8 1.98 8 3 C5.36 3 2.72 3 0 3 C0 2.01 0 1.02 0 0 Z " fill="#121212" transform="translate(89,160)"/>
<path d="M0 0 C0.66 0.33 1.32 0.66 2 1 C2 1.66 2 2.32 2 3 C1.34 3 0.68 3 0 3 C-0.33 3.66 -0.66 4.32 -1 5 C-1.33 5 -1.66 5 -2 5 C-2.33 7.97 -2.66 10.94 -3 14 C-3.33 14 -3.66 14 -4 14 C-4.63019694 4.82713348 -4.63019694 4.82713348 -2 1.375 C-1.34 0.92125 -0.68 0.4675 0 0 Z " fill="#C3C3C3" transform="translate(72,157)"/>
<path d="M0 0 C0.33 0.99 0.66 1.98 1 3 C-0.4375 5.1875 -0.4375 5.1875 -2 7 C-2.99 6.67 -3.98 6.34 -5 6 C-3.63016497 2.83884224 -3.0109362 2.0072908 0 0 Z " fill="#D1D1D1" transform="translate(129,164)"/>
<path d="M0 0 C4 2 4 2 5 3 C5.04080783 4.99958364 5.04254356 7.00045254 5 9 C4.34 9 3.68 9 3 9 C2.01 6.03 1.02 3.06 0 0 Z " fill="#D2D2D2" transform="translate(273,157)"/>
<path d="M0 0 C0.33 1.32 0.66 2.64 1 4 C1.66 4 2.32 4 3 4 C2.1875 5.9375 2.1875 5.9375 1 8 C0.01 8.33 -0.98 8.66 -2 9 C-1.34 6.03 -0.68 3.06 0 0 Z " fill="#BDBDBD" transform="translate(275,162)"/>
</svg>
